<svg width="386" height="173" viewBox="0 0 386 173" fill="none" xmlns="http://www.w3.org/2000/svg">
<path d="M380 0H6C2.68629 0 0 2.68629 0 6V167C0 170.314 2.68629 173 6 173H380C383.314 173 386 170.314 386 167V6C386 2.68629 383.314 0 380 0Z" fill="#182125"/>
<path d="M19 26C20.6569 26 22 24.6569 22 23C22 21.3431 20.6569 20 19 20C17.3431 20 16 21.3431 16 23C16 24.6569 17.3431 26 19 26Z" fill="#0C74DF"/>
<path d="M31.7713 19.7272V26.9999H30.8906V19.7272H31.7713ZM40.0542 19.7272V26.9999H39.2019L35.2388 21.2897H35.1678V26.9999H34.2871V19.7272H35.1394L39.1167 25.4516H39.1877V19.7272H40.0542ZM46.5437 21.5454C46.5011 21.1855 46.3283 20.9061 46.0252 20.7073C45.7222 20.5084 45.3505 20.409 44.9102 20.409C44.5882 20.409 44.3065 20.4611 44.065 20.5652C43.8259 20.6694 43.6389 20.8126 43.5039 20.9949C43.3714 21.1772 43.3051 21.3844 43.3051 21.6164C43.3051 21.8105 43.3512 21.9774 43.4436 22.1171C43.5383 22.2544 43.659 22.3692 43.8058 22.4615C43.9526 22.5515 44.1064 22.6261 44.2674 22.6853C44.4284 22.7421 44.5764 22.7883 44.7113 22.8238L45.45 23.0226C45.6393 23.0723 45.85 23.141 46.0821 23.2286C46.3164 23.3162 46.5402 23.4357 46.7532 23.5873C46.9687 23.7364 47.1462 23.9282 47.2859 24.1625C47.4256 24.3969 47.4954 24.6846 47.4954 25.0255C47.4954 25.4185 47.3924 25.7736 47.1865 26.0908C46.9829 26.408 46.6846 26.6602 46.2916 26.8472C45.9009 27.0342 45.4263 27.1277 44.8676 27.1277C44.3467 27.1277 43.8957 27.0437 43.5146 26.8756C43.1358 26.7075 42.8375 26.4731 42.6197 26.1725C42.4043 25.8718 42.2823 25.5226 42.2539 25.1249H43.163C43.1867 25.3995 43.279 25.6268 43.44 25.8067C43.6034 25.9843 43.8093 26.1169 44.0579 26.2044C44.3089 26.2897 44.5787 26.3323 44.8676 26.3323C45.2037 26.3323 45.5056 26.2778 45.7731 26.1689C46.0406 26.0577 46.2525 25.9038 46.4088 25.7073C46.565 25.5084 46.6431 25.2764 46.6431 25.0113C46.6431 24.7698 46.5757 24.5733 46.4407 24.4218C46.3058 24.2703 46.1282 24.1472 45.908 24.0525C45.6879 23.9578 45.45 23.8749 45.1943 23.8039L44.2994 23.5482C43.7312 23.3848 43.2814 23.1517 42.95 22.8486C42.6185 22.5456 42.4528 22.149 42.4528 21.659C42.4528 21.2518 42.5629 20.8967 42.783 20.5937C43.0056 20.2883 43.3039 20.0515 43.6779 19.8834C44.0544 19.713 44.4746 19.6277 44.9386 19.6277C45.4073 19.6277 45.824 19.7118 46.1886 19.8799C46.5532 20.0456 46.842 20.2729 47.0551 20.5617C47.2705 20.8505 47.3841 21.1784 47.396 21.5454H46.5437ZM49.6934 26.9999V19.7272H54.0826V20.5084H50.5741V22.9658H53.8553V23.7471H50.5741V26.2187H54.1394V26.9999H49.6934ZM62.187 19.7272V26.9999H61.3347L57.3716 21.2897H57.3006V26.9999H56.4199V19.7272H57.2722L61.2495 25.4516H61.3205V19.7272H62.187ZM68.6765 21.5454C68.6339 21.1855 68.4611 20.9061 68.158 20.7073C67.855 20.5084 67.4833 20.409 67.043 20.409C66.721 20.409 66.4393 20.4611 66.1978 20.5652C65.9587 20.6694 65.7717 20.8126 65.6367 20.9949C65.5042 21.1772 65.4379 21.3844 65.4379 21.6164C65.4379 21.8105 65.484 21.9774 65.5764 22.1171C65.6711 22.2544 65.7918 22.3692 65.9386 22.4615C66.0854 22.5515 66.2393 22.6261 66.4002 22.6853C66.5612 22.7421 66.7092 22.7883 66.8441 22.8238L67.5828 23.0226C67.7722 23.0723 67.9829 23.141 68.2149 23.2286C68.4492 23.3162 68.673 23.4357 68.886 23.5873C69.1015 23.7364 69.279 23.9282 69.4187 24.1625C69.5584 24.3969 69.6282 24.6846 69.6282 25.0255C69.6282 25.4185 69.5252 25.7736 69.3193 26.0908C69.1157 26.408 68.8174 26.6602 68.4244 26.8472C68.0338 27.0342 67.5591 27.1277 67.0004 27.1277C66.4795 27.1277 66.0285 27.0437 65.6474 26.8756C65.2686 26.7075 64.9703 26.4731 64.7525 26.1725C64.5371 25.8718 64.4152 25.5226 64.3867 25.1249H65.2958C65.3195 25.3995 65.4118 25.6268 65.5728 25.8067C65.7362 25.9843 65.9421 26.1169 66.1907 26.2044C66.4417 26.2897 66.7116 26.3323 67.0004 26.3323C67.3366 26.3323 67.6384 26.2778 67.9059 26.1689C68.1734 26.0577 68.3853 25.9038 68.5416 25.7073C68.6978 25.5084 68.7759 25.2764 68.7759 25.0113C68.7759 24.7698 68.7085 24.5733 68.5735 24.4218C68.4386 24.2703 68.261 24.1472 68.0409 24.0525C67.8207 23.9578 67.5828 23.8749 67.3271 23.8039L66.4322 23.5482C65.864 23.3848 65.4142 23.1517 65.0828 22.8486C64.7513 22.5456 64.5856 22.149 64.5856 21.659C64.5856 21.2518 64.6957 20.8967 64.9159 20.5937C65.1384 20.2883 65.4367 20.0515 65.8107 19.8834C66.1872 19.713 66.6074 19.6277 67.0714 19.6277C67.5402 19.6277 67.9568 19.7118 68.3214 19.8799C68.686 20.0456 68.9748 20.2729 69.1879 20.5617C69.4033 20.8505 69.5169 21.1784 69.5288 21.5454H68.6765ZM72.7069 19.7272V26.9999H71.8262V19.7272H72.7069ZM74.825 20.5084V19.7272H80.2795V20.5084H77.9926V26.9999H77.1119V20.5084H74.825ZM83.2694 19.7272V26.9999H82.3887V19.7272H83.2694ZM86.0835 19.7272L88.2426 25.8493H88.3278L90.4869 19.7272H91.4102L88.7397 26.9999H87.8306L85.1602 19.7272H86.0835ZM93.293 26.9999V19.7272H97.6822V20.5084H94.1737V22.9658H97.4549V23.7471H94.1737V26.2187H97.739V26.9999H93.293ZM103.582 26.9999V19.7272H104.463V26.2187H107.843V26.9999H103.582ZM110.714 26.9999H109.791L112.461 19.7272H113.37L116.041 26.9999H115.118L112.944 20.8777H112.887L110.714 26.9999ZM111.055 24.159H114.777V24.9402H111.055V24.159ZM123.691 19.7272V26.9999H122.838L118.875 21.2897H118.804V26.9999H117.924V19.7272H118.776L122.753 25.4516H122.824V19.7272H123.691ZM131.175 21.9999C131.096 21.7608 130.993 21.5465 130.866 21.3571C130.74 21.1654 130.59 21.002 130.415 20.8671C130.242 20.7321 130.045 20.6292 129.825 20.5581C129.605 20.4871 129.363 20.4516 129.101 20.4516C128.67 20.4516 128.278 20.5629 127.925 20.7854C127.573 21.0079 127.292 21.3358 127.084 21.7691C126.875 22.2023 126.771 22.7338 126.771 23.3635C126.771 23.9933 126.876 24.5248 127.087 24.958C127.298 25.3912 127.583 25.7191 127.943 25.9417C128.303 26.1642 128.708 26.2755 129.157 26.2755C129.574 26.2755 129.941 26.1867 130.258 26.0091C130.578 25.8292 130.827 25.5759 131.004 25.2492C131.184 24.9201 131.274 24.533 131.274 24.088L131.544 24.1448H129.356V23.3635H132.126V24.1448C132.126 24.7437 131.998 25.2646 131.743 25.7073C131.489 26.15 131.139 26.4933 130.692 26.7371C130.247 26.9786 129.735 27.0993 129.157 27.0993C128.514 27.0993 127.948 26.9478 127.46 26.6448C126.975 26.3418 126.596 25.9109 126.324 25.3522C126.054 24.7935 125.919 24.1306 125.919 23.3635C125.919 22.7883 125.996 22.271 126.15 21.8117C126.306 21.35 126.526 20.957 126.81 20.6327C127.094 20.3084 127.43 20.0598 127.819 19.887C128.207 19.7142 128.634 19.6277 129.101 19.6277C129.484 19.6277 129.842 19.6857 130.173 19.8017C130.507 19.9154 130.804 20.0776 131.064 20.2883C131.327 20.4966 131.546 20.7463 131.721 21.0375C131.897 21.3264 132.017 21.6472 132.084 21.9999H131.175ZM139.157 19.7272H140.038V24.5425C140.038 25.0397 139.921 25.4836 139.686 25.8742C139.454 26.2624 139.127 26.569 138.703 26.7939C138.279 27.0165 137.782 27.1277 137.211 27.1277C136.641 27.1277 136.144 27.0165 135.72 26.7939C135.296 26.569 134.967 26.2624 134.733 25.8742C134.501 25.4836 134.385 25.0397 134.385 24.5425V19.7272H135.265V24.4715C135.265 24.8266 135.343 25.1427 135.5 25.4196C135.656 25.6943 135.878 25.9109 136.167 26.0695C136.458 26.2258 136.806 26.3039 137.211 26.3039C137.616 26.3039 137.964 26.2258 138.255 26.0695C138.547 25.9109 138.769 25.6943 138.923 25.4196C139.079 25.1427 139.157 24.8266 139.157 24.4715V19.7272ZM142.845 26.9999H141.922L144.592 19.7272H145.501L148.172 26.9999H147.248L145.075 20.8777H145.018L142.845 26.9999ZM143.186 24.159H146.907V24.9402H143.186V24.159ZM154.684 21.9999C154.606 21.7608 154.503 21.5465 154.375 21.3571C154.25 21.1654 154.1 21.002 153.924 20.8671C153.752 20.7321 153.555 20.6292 153.335 20.5581C153.115 20.4871 152.873 20.4516 152.61 20.4516C152.18 20.4516 151.788 20.5629 151.435 20.7854C151.082 21.0079 150.802 21.3358 150.593 21.7691C150.385 22.2023 150.281 22.7338 150.281 23.3635C150.281 23.9933 150.386 24.5248 150.597 24.958C150.808 25.3912 151.093 25.7191 151.453 25.9417C151.813 26.1642 152.217 26.2755 152.667 26.2755C153.084 26.2755 153.451 26.1867 153.768 26.0091C154.088 25.8292 154.336 25.5759 154.514 25.2492C154.694 24.9201 154.784 24.533 154.784 24.088L155.054 24.1448H152.866V23.3635H155.636V24.1448C155.636 24.7437 155.508 25.2646 155.252 25.7073C154.999 26.15 154.649 26.4933 154.201 26.7371C153.756 26.9786 153.245 27.0993 152.667 27.0993C152.023 27.0993 151.458 26.9478 150.97 26.6448C150.484 26.3418 150.106 25.9109 149.833 25.3522C149.564 24.7935 149.429 24.1306 149.429 23.3635C149.429 22.7883 149.506 22.271 149.659 21.8117C149.816 21.35 150.036 20.957 150.32 20.6327C150.604 20.3084 150.94 20.0598 151.328 19.887C151.717 19.7142 152.144 19.6277 152.61 19.6277C152.994 19.6277 153.351 19.6857 153.683 19.8017C154.017 19.9154 154.314 20.0776 154.574 20.2883C154.837 20.4966 155.056 20.7463 155.231 21.0375C155.406 21.3264 155.527 21.6472 155.593 21.9999H154.684ZM157.894 26.9999V19.7272H162.284V20.5084H158.775V22.9658H162.056V23.7471H158.775V26.2187H162.34V26.9999H157.894Z" fill="#A7B0B4"/>
<path d="M17.3369 62.5V51.5909H23.8781V52.7628H18.658V56.4489H23.3881V57.6207H18.658V62.5H17.3369ZM25.9702 62.5V54.3182H27.2273V62.5H25.9702ZM26.6094 52.9545C26.3644 52.9545 26.1531 52.8711 25.9755 52.7042C25.8015 52.5373 25.7145 52.3366 25.7145 52.1023C25.7145 51.8679 25.8015 51.6673 25.9755 51.5004C26.1531 51.3335 26.3644 51.25 26.6094 51.25C26.8544 51.25 27.0639 51.3335 27.2379 51.5004C27.4155 51.6673 27.5043 51.8679 27.5043 52.1023C27.5043 52.3366 27.4155 52.5373 27.2379 52.7042C27.0639 52.8711 26.8544 52.9545 26.6094 52.9545ZM29.5298 62.5V54.3182H30.7443V55.554H30.8295C30.9786 55.1491 31.2485 54.8207 31.6391 54.5685C32.0298 54.3164 32.4701 54.1903 32.9602 54.1903C33.0525 54.1903 33.1679 54.1921 33.3064 54.1957C33.4449 54.1992 33.5496 54.2045 33.6207 54.2116V55.4901C33.5781 55.4794 33.4804 55.4634 33.3277 55.4421C33.1786 55.4173 33.0205 55.4048 32.8536 55.4048C32.4559 55.4048 32.1008 55.4883 31.7883 55.6552C31.4793 55.8185 31.2343 56.0458 31.0532 56.337C30.8756 56.6246 30.7869 56.9531 30.7869 57.3224V62.5H29.5298ZM38.2922 62.6705C37.5038 62.6705 36.8238 62.4964 36.2521 62.1484C35.6839 61.7969 35.2453 61.3068 34.9364 60.6783C34.631 60.0462 34.4783 59.3111 34.4783 58.473C34.4783 57.6349 34.631 56.8963 34.9364 56.2571C35.2453 55.6143 35.675 55.1136 36.2254 54.755C36.7794 54.3928 37.4257 54.2116 38.1644 54.2116C38.5905 54.2116 39.0113 54.2827 39.4268 54.4247C39.8423 54.5668 40.2205 54.7976 40.5614 55.1172C40.9023 55.4332 41.1739 55.8523 41.3764 56.3743C41.5788 56.8963 41.68 57.5391 41.68 58.3026V58.8352H35.3732V57.7486H40.4016C40.4016 57.2869 40.3092 56.875 40.1246 56.5128C39.9435 56.1506 39.6842 55.8647 39.3469 55.6552C39.0131 55.4457 38.6189 55.3409 38.1644 55.3409C37.6636 55.3409 37.2304 55.4652 36.8646 55.7138C36.5024 55.9588 36.2237 56.2784 36.0283 56.6726C35.833 57.0668 35.7354 57.4893 35.7354 57.9403V58.6648C35.7354 59.2827 35.8419 59.8065 36.055 60.2362C36.2716 60.6623 36.5717 60.9872 36.9552 61.2109C37.3387 61.4311 37.7844 61.5412 38.2922 61.5412C38.6224 61.5412 38.9207 61.495 39.1871 61.4027C39.457 61.3068 39.6896 61.1648 39.8849 60.9766C40.0802 60.7848 40.2311 60.5469 40.3376 60.2628L41.5521 60.6037C41.4243 61.0156 41.2095 61.3778 40.9076 61.6903C40.6058 61.9993 40.2329 62.2408 39.789 62.4148C39.3451 62.5852 38.8462 62.6705 38.2922 62.6705ZM43.5923 62.5V54.3182H44.8068V55.5966H44.9133C45.0837 55.1598 45.359 54.8207 45.7389 54.5792C46.1189 54.3342 46.5752 54.2116 47.1079 54.2116C47.6477 54.2116 48.0969 54.3342 48.4555 54.5792C48.8178 54.8207 49.1001 55.1598 49.3025 55.5966H49.3877C49.5972 55.174 49.9115 54.8384 50.3305 54.5898C50.7496 54.3377 51.2521 54.2116 51.838 54.2116C52.5695 54.2116 53.1679 54.4407 53.6331 54.8988C54.0983 55.3533 54.3309 56.0618 54.3309 57.0241V62.5H53.0738V57.0241C53.0738 56.4205 52.9087 55.989 52.5784 55.7298C52.2482 55.4705 51.8593 55.3409 51.4119 55.3409C50.8366 55.3409 50.3909 55.5149 50.0749 55.8629C49.7588 56.2074 49.6008 56.6442 49.6008 57.1733V62.5H48.3224V56.8963C48.3224 56.4311 48.1715 56.0565 47.8696 55.7724C47.5678 55.4847 47.1789 55.3409 46.7031 55.3409C46.3764 55.3409 46.071 55.4279 45.7869 55.6019C45.5063 55.7759 45.2791 56.0174 45.105 56.3263C44.9346 56.6317 44.8494 56.9851 44.8494 57.3864V62.5H43.5923ZM60.0598 62.6705C59.2714 62.6705 58.5914 62.4964 58.0196 62.1484C57.4515 61.7969 57.0129 61.3068 56.7039 60.6783C56.3985 60.0462 56.2458 59.3111 56.2458 58.473C56.2458 57.6349 56.3985 56.8963 56.7039 56.2571C57.0129 55.6143 57.4426 55.1136 57.993 54.755C58.547 54.3928 59.1933 54.2116 59.9319 54.2116C60.3581 54.2116 60.7789 54.2827 61.1944 54.4247C61.6098 54.5668 61.988 54.7976 62.3289 55.1172C62.6699 55.4332 62.9415 55.8523 63.1439 56.3743C63.3463 56.8963 63.4476 57.5391 63.4476 58.3026V58.8352H57.1407V57.7486H62.1691C62.1691 57.2869 62.0768 56.875 61.8922 56.5128C61.711 56.1506 61.4518 55.8647 61.1145 55.6552C60.7807 55.4457 60.3865 55.3409 59.9319 55.3409C59.4312 55.3409 58.998 55.4652 58.6322 55.7138C58.27 55.9588 57.9912 56.2784 57.7959 56.6726C57.6006 57.0668 57.503 57.4893 57.503 57.9403V58.6648C57.503 59.2827 57.6095 59.8065 57.8226 60.2362C58.0392 60.6623 58.3392 60.9872 58.7228 61.2109C59.1063 61.4311 59.552 61.5412 60.0598 61.5412C60.39 61.5412 60.6883 61.495 60.9547 61.4027C61.2245 61.3068 61.4571 61.1648 61.6525 60.9766C61.8478 60.7848 61.9987 60.5469 62.1052 60.2628L63.3197 60.6037C63.1919 61.0156 62.977 61.3778 62.6752 61.6903C62.3733 61.9993 62.0005 62.2408 61.5566 62.4148C61.1127 62.5852 60.6137 62.6705 60.0598 62.6705ZM66.6169 57.5781V62.5H65.3598V54.3182H66.5743V55.5966H66.6809C66.8726 55.1811 67.1638 54.8473 67.5544 54.5952C67.9451 54.3395 68.4493 54.2116 69.0672 54.2116C69.6212 54.2116 70.1059 54.3253 70.5214 54.5526C70.9369 54.7763 71.2601 55.1172 71.4909 55.5753C71.7217 56.0298 71.8371 56.6051 71.8371 57.3011V62.5H70.58V57.3864C70.58 56.7436 70.4131 56.2429 70.0793 55.8842C69.7455 55.522 69.2874 55.3409 68.705 55.3409C68.3037 55.3409 67.9451 55.4279 67.629 55.6019C67.3165 55.7759 67.0697 56.0298 66.8886 56.3636C66.7075 56.6974 66.6169 57.1023 66.6169 57.5781Z" fill="#E9ECEC"/>
<path d="M15 57.5H75" stroke="#DF2D24"/>
<path d="M87 56.75C86.5858 56.75 86.25 57.0858 86.25 57.5C86.25 57.9142 86.5858 58.25 87 58.25V56.75ZM100.53 58.0303C100.823 57.7374 100.823 57.2626 100.53 56.9697L95.7574 52.1967C95.4645 51.9038 94.9896 51.9038 94.6967 52.1967C94.4038 52.4896 94.4038 52.9645 94.6967 53.2574L98.9393 57.5L94.6967 61.7426C94.4038 62.0355 94.4038 62.5104 94.6967 62.8033C94.9896 63.0962 95.4645 63.0962 95.7574 62.8033L100.53 58.0303ZM87 58.25H100V56.75H87V58.25Z" fill="#9FA5A5"/>
<path d="M208 44H120C116.686 44 114 46.6863 114 50V65C114 68.3137 116.686 71 120 71H208C211.314 71 214 68.3137 214 65V50C214 46.6863 211.314 44 208 44Z" fill="#3387DD"/>
<path d="M122.76 63.0001V52.091H129.301V53.2629H124.081V56.949H128.811V58.1208H124.081V63.0001H122.76ZM131.393 63.0001V54.8183H132.65V63.0001H131.393ZM132.032 53.4546C131.787 53.4546 131.576 53.3712 131.399 53.2043C131.225 53.0374 131.138 52.8367 131.138 52.6024C131.138 52.368 131.225 52.1674 131.399 52.0005C131.576 51.8336 131.787 51.7501 132.032 51.7501C132.277 51.7501 132.487 51.8336 132.661 52.0005C132.839 52.1674 132.927 52.368 132.927 52.6024C132.927 52.8367 132.839 53.0374 132.661 53.2043C132.487 53.3712 132.277 53.4546 132.032 53.4546ZM134.953 63.0001V54.8183H136.167V56.0541H136.253C136.402 55.6492 136.672 55.3208 137.062 55.0686C137.453 54.8165 137.893 54.6904 138.383 54.6904C138.476 54.6904 138.591 54.6922 138.729 54.6958C138.868 54.6993 138.973 54.7046 139.044 54.7117V55.9902C139.001 55.9795 138.903 55.9635 138.751 55.9422C138.602 55.9174 138.444 55.9049 138.277 55.9049C137.879 55.9049 137.524 55.9884 137.211 56.1553C136.902 56.3186 136.657 56.5459 136.476 56.8371C136.299 57.1247 136.21 57.4532 136.21 57.8225V63.0001H134.953ZM143.715 63.1706C142.927 63.1706 142.247 62.9965 141.675 62.6485C141.107 62.297 140.668 61.8069 140.359 61.1784C140.054 60.5463 139.901 59.8112 139.901 58.9731C139.901 58.135 140.054 57.3964 140.359 56.7572C140.668 56.1144 141.098 55.6137 141.648 55.2551C142.202 54.8929 142.849 54.7117 143.587 54.7117C144.014 54.7117 144.434 54.7828 144.85 54.9248C145.265 55.0669 145.644 55.2977 145.984 55.6173C146.325 55.9333 146.597 56.3524 146.799 56.8744C147.002 57.3964 147.103 58.0392 147.103 58.8027V59.3353H140.796V58.2487H145.825C145.825 57.787 145.732 57.3751 145.548 57.0129C145.367 56.6507 145.107 56.3648 144.77 56.1553C144.436 55.9458 144.042 55.841 143.587 55.841C143.087 55.841 142.653 55.9653 142.288 56.2139C141.925 56.4589 141.647 56.7785 141.451 57.1727C141.256 57.5669 141.158 57.9894 141.158 58.4404V59.1649C141.158 59.7828 141.265 60.3066 141.478 60.7363C141.695 61.1624 141.995 61.4873 142.378 61.711C142.762 61.9312 143.207 62.0413 143.715 62.0413C144.045 62.0413 144.344 61.9951 144.61 61.9028C144.88 61.8069 145.113 61.6649 145.308 61.4767C145.503 61.2849 145.654 61.047 145.761 60.7629L146.975 61.1038C146.847 61.5157 146.633 61.8779 146.331 62.1904C146.029 62.4994 145.656 62.7409 145.212 62.9149C144.768 63.0853 144.269 63.1706 143.715 63.1706ZM156.878 54.8183V55.8836H152.467V54.8183H156.878ZM153.788 63.0001V53.689C153.788 53.2203 153.898 52.8296 154.118 52.5171C154.338 52.2046 154.624 51.9703 154.976 51.814C155.327 51.6578 155.699 51.5796 156.089 51.5796C156.398 51.5796 156.65 51.6045 156.846 51.6542C157.041 51.7039 157.186 51.7501 157.282 51.7927L156.92 52.8794C156.856 52.8581 156.767 52.8314 156.654 52.7995C156.544 52.7675 156.398 52.7515 156.217 52.7515C155.802 52.7515 155.501 52.8563 155.317 53.0658C155.136 53.2753 155.045 53.5825 155.045 53.9873V63.0001H153.788ZM158.639 63.0001V54.8183H159.896V63.0001H158.639ZM159.279 53.4546C159.034 53.4546 158.822 53.3712 158.645 53.2043C158.471 53.0374 158.384 52.8367 158.384 52.6024C158.384 52.368 158.471 52.1674 158.645 52.0005C158.822 51.8336 159.034 51.7501 159.279 51.7501C159.524 51.7501 159.733 51.8336 159.907 52.0005C160.085 52.1674 160.173 52.368 160.173 52.6024C160.173 52.8367 160.085 53.0374 159.907 53.2043C159.733 53.3712 159.524 53.4546 159.279 53.4546ZM165.501 66.2387C164.894 66.2387 164.372 66.1606 163.935 66.0044C163.499 65.8517 163.135 65.6492 162.843 65.3971C162.556 65.1485 162.327 64.8822 162.156 64.5981L163.158 63.895C163.271 64.0441 163.415 64.2146 163.589 64.4063C163.763 64.6017 164.001 64.7703 164.303 64.9124C164.608 65.058 165.008 65.1308 165.501 65.1308C166.162 65.1308 166.707 64.971 167.137 64.6514C167.566 64.3318 167.781 63.8311 167.781 63.1492V61.4873H167.675C167.582 61.6365 167.451 61.8211 167.281 62.0413C167.114 62.2579 166.872 62.4514 166.556 62.6219C166.244 62.7888 165.821 62.8723 165.288 62.8723C164.628 62.8723 164.035 62.716 163.509 62.4035C162.987 62.091 162.574 61.6365 162.268 61.0399C161.966 60.4433 161.815 59.7188 161.815 58.8666C161.815 58.0285 161.963 57.2988 162.258 56.6773C162.552 56.0523 162.962 55.5693 163.488 55.2284C164.014 54.884 164.621 54.7117 165.31 54.7117C165.842 54.7117 166.265 54.8005 166.577 54.9781C166.894 55.1521 167.135 55.351 167.302 55.5747C167.472 55.7948 167.604 55.976 167.696 56.118H167.824V54.8183H169.038V63.2345C169.038 63.9376 168.879 64.5093 168.559 64.9497C168.243 65.3936 167.817 65.7185 167.281 65.9245C166.748 66.134 166.155 66.2387 165.501 66.2387ZM165.459 61.743C165.963 61.743 166.389 61.6276 166.737 61.3968C167.085 61.1659 167.35 60.8339 167.531 60.4007C167.712 59.9674 167.803 59.449 167.803 58.8453C167.803 58.2558 167.714 57.7355 167.536 57.2845C167.359 56.8336 167.096 56.4802 166.748 56.2245C166.4 55.9688 165.97 55.841 165.459 55.841C164.926 55.841 164.482 55.976 164.127 56.2458C163.776 56.5157 163.511 56.8779 163.333 57.3325C163.159 57.787 163.072 58.2913 163.072 58.8453C163.072 59.4135 163.161 59.9159 163.339 60.3527C163.52 60.786 163.786 61.1269 164.138 61.3755C164.493 61.6205 164.933 61.743 165.459 61.743ZM172.597 58.0782V63.0001H171.34V52.091H172.597V56.0967H172.703C172.895 55.6741 173.183 55.3385 173.566 55.0899C173.953 54.8378 174.468 54.7117 175.111 54.7117C175.668 54.7117 176.157 54.8236 176.576 55.0473C176.995 55.2675 177.32 55.6066 177.55 56.0647C177.785 56.5193 177.902 57.0981 177.902 57.8012V63.0001H176.645V57.8865C176.645 57.2366 176.476 56.7341 176.139 56.379C175.805 56.0203 175.342 55.841 174.749 55.841C174.337 55.841 173.967 55.928 173.641 56.102C173.318 56.276 173.062 56.5299 172.874 56.8637C172.689 57.1975 172.597 57.6024 172.597 58.0782ZM183.76 54.8183V55.8836H179.52V54.8183H183.76ZM180.756 52.8581H182.013V60.6563C182.013 61.0115 182.064 61.2778 182.167 61.4554C182.274 61.6294 182.409 61.7465 182.572 61.8069C182.739 61.8637 182.915 61.8921 183.1 61.8921C183.238 61.8921 183.352 61.885 183.44 61.8708C183.529 61.8531 183.6 61.8389 183.654 61.8282L183.909 62.9575C183.824 62.9894 183.705 63.0214 183.552 63.0534C183.4 63.0889 183.206 63.1066 182.972 63.1066C182.617 63.1066 182.269 63.0303 181.928 62.8776C181.59 62.7249 181.31 62.4923 181.086 62.1798C180.866 61.8673 180.756 61.4731 180.756 60.9973V52.8581ZM188.994 63.1706C188.205 63.1706 187.525 62.9965 186.953 62.6485C186.385 62.297 185.947 61.8069 185.638 61.1784C185.332 60.5463 185.18 59.8112 185.18 58.9731C185.18 58.135 185.332 57.3964 185.638 56.7572C185.947 56.1144 186.376 55.6137 186.927 55.2551C187.481 54.8929 188.127 54.7117 188.866 54.7117C189.292 54.7117 189.713 54.7828 190.128 54.9248C190.544 55.0669 190.922 55.2977 191.263 55.6173C191.604 55.9333 191.875 56.3524 192.078 56.8744C192.28 57.3964 192.381 58.0392 192.381 58.8027V59.3353H186.075V58.2487H191.103C191.103 57.787 191.011 57.3751 190.826 57.0129C190.645 56.6507 190.386 56.3648 190.048 56.1553C189.714 55.9458 189.32 55.841 188.866 55.841C188.365 55.841 187.932 55.9653 187.566 56.2139C187.204 56.4589 186.925 56.7785 186.73 57.1727C186.534 57.5669 186.437 57.9894 186.437 58.4404V59.1649C186.437 59.7828 186.543 60.3066 186.756 60.7363C186.973 61.1624 187.273 61.4873 187.657 61.711C188.04 61.9312 188.486 62.0413 188.994 62.0413C189.324 62.0413 189.622 61.9951 189.888 61.9028C190.158 61.8069 190.391 61.6649 190.586 61.4767C190.782 61.2849 190.932 61.047 191.039 60.7629L192.254 61.1038C192.126 61.5157 191.911 61.8779 191.609 62.1904C191.307 62.4994 190.934 62.7409 190.49 62.9149C190.046 63.0853 189.548 63.1706 188.994 63.1706ZM194.294 63.0001V54.8183H195.508V56.0541H195.593C195.742 55.6492 196.012 55.3208 196.403 55.0686C196.794 54.8165 197.234 54.6904 197.724 54.6904C197.816 54.6904 197.932 54.6922 198.07 54.6958C198.209 54.6993 198.314 54.7046 198.385 54.7117V55.9902C198.342 55.9795 198.244 55.9635 198.092 55.9422C197.942 55.9174 197.784 55.9049 197.617 55.9049C197.22 55.9049 196.865 55.9884 196.552 56.1553C196.243 56.3186 195.998 56.5459 195.817 56.8371C195.64 57.1247 195.551 57.4532 195.551 57.8225V63.0001H194.294ZM205.67 56.6507L204.541 56.9703C204.47 56.7821 204.365 56.5992 204.227 56.4216C204.092 56.2405 203.907 56.0914 203.673 55.9742C203.438 55.857 203.138 55.7984 202.772 55.7984C202.272 55.7984 201.854 55.9138 201.521 56.1446C201.19 56.3719 201.025 56.6613 201.025 57.0129C201.025 57.3254 201.139 57.5722 201.366 57.7533C201.593 57.9344 201.949 58.0853 202.432 58.2061L203.646 58.5044C204.378 58.6819 204.923 58.9536 205.281 59.3193C205.64 59.6816 205.819 60.1485 205.819 60.7203C205.819 61.189 205.684 61.6081 205.414 61.9774C205.148 62.3467 204.775 62.6379 204.296 62.851C203.816 63.064 203.259 63.1706 202.623 63.1706C201.789 63.1706 201.098 62.9894 200.551 62.6272C200.004 62.265 199.658 61.7359 199.512 61.0399L200.706 60.7416C200.819 61.1819 201.034 61.5122 201.35 61.7323C201.67 61.9525 202.087 62.0626 202.602 62.0626C203.188 62.0626 203.653 61.9383 203.998 61.6897C204.346 61.4376 204.52 61.1358 204.52 60.7842C204.52 60.5001 204.42 60.2622 204.221 60.0704C204.022 59.8751 203.717 59.7295 203.305 59.6336L201.941 59.314C201.192 59.1365 200.642 58.8613 200.29 58.4884C199.942 58.112 199.768 57.6414 199.768 57.0768C199.768 56.6152 199.898 56.2068 200.157 55.8517C200.42 55.4965 200.777 55.2178 201.228 55.0154C201.682 54.813 202.197 54.7117 202.772 54.7117C203.582 54.7117 204.218 54.8893 204.679 55.2444C205.145 55.5995 205.475 56.0683 205.67 56.6507Z" fill="white"/>
<path d="M16.3412 99.0001L17.9108 89.5456H23.9676L23.7276 90.9813H19.3835L18.9588 93.548H22.8874L22.6473 94.9838H18.7187L18.0539 99.0001H16.3412ZM23.8845 99.0001L25.0664 91.9092H26.7375L25.5557 99.0001H23.8845ZM26.1466 90.8936C25.8789 90.8936 25.6573 90.8043 25.4818 90.6258C25.3064 90.4473 25.2295 90.2334 25.251 89.9841C25.2726 89.7348 25.3849 89.5209 25.588 89.3424C25.7942 89.1639 26.0297 89.0747 26.2943 89.0747C26.5621 89.0747 26.7822 89.1639 26.9545 89.3424C27.1299 89.5209 27.2069 89.7348 27.1853 89.9841C27.1669 90.2334 27.0545 90.4473 26.8483 90.6258C26.6452 90.8043 26.4113 90.8936 26.1466 90.8936ZM27.2742 99.0001L28.456 91.9092H30.0764L29.8779 93.091H29.9517C30.1456 92.6817 30.4196 92.3662 30.7735 92.1446C31.1305 91.92 31.5121 91.8076 31.9184 91.8076C32.0138 91.8076 32.1169 91.8122 32.2277 91.8215C32.3385 91.8276 32.4339 91.8384 32.5139 91.8538L32.2554 93.3911C32.1846 93.3665 32.0738 93.3449 31.923 93.3264C31.7753 93.3049 31.6291 93.2941 31.4844 93.2941C31.1797 93.2941 30.8966 93.3603 30.635 93.4926C30.3765 93.6219 30.158 93.8019 29.9794 94.0328C29.8009 94.2636 29.6855 94.5298 29.6332 94.8314L28.9454 99.0001H27.2742ZM35.2699 99.1386C34.559 99.1386 33.9712 98.9909 33.5064 98.6954C33.0417 98.3969 32.7155 97.9752 32.5277 97.4305C32.3431 96.8827 32.3123 96.2379 32.4354 95.4962C32.5554 94.7668 32.8001 94.1266 33.1694 93.5757C33.5388 93.0218 34.0004 92.5909 34.5544 92.2831C35.1114 91.9723 35.727 91.8169 36.401 91.8169C36.838 91.8169 37.2396 91.8876 37.6059 92.0292C37.9721 92.1677 38.2814 92.3831 38.5338 92.6755C38.7861 92.9679 38.96 93.3403 39.0554 93.7927C39.1508 94.2421 39.1462 94.7776 39.0416 95.3992L38.9631 95.9117H33.1464L33.3264 94.7853H37.5366C37.592 94.4652 37.5736 94.1805 37.4812 93.9312C37.3889 93.6788 37.235 93.4803 37.0196 93.3357C36.8041 93.191 36.5348 93.1187 36.2117 93.1187C35.8824 93.1187 35.5746 93.2033 35.2884 93.3726C35.0053 93.5388 34.7667 93.7542 34.5728 94.0189C34.379 94.2836 34.2558 94.5621 34.2035 94.8545L34.0142 95.9348C33.9465 96.3779 33.9619 96.7396 34.0604 97.0196C34.1589 97.2997 34.3312 97.5059 34.5775 97.6382C34.8237 97.7706 35.1345 97.8367 35.51 97.8367C35.7562 97.8367 35.9839 97.8029 36.1932 97.7352C36.4025 97.6675 36.5887 97.5659 36.7518 97.4305C36.918 97.292 37.0565 97.1227 37.1673 96.9227L38.6954 97.0981C38.5261 97.5105 38.2783 97.8706 37.9521 98.1784C37.6259 98.4831 37.235 98.72 36.7795 98.8893C36.3271 99.0555 35.8239 99.1386 35.2699 99.1386ZM39.8726 99.0001L41.0544 91.9092H42.6563L42.4532 93.1141H42.5409C42.7563 92.7078 43.0533 92.3908 43.4319 92.1631C43.8104 91.9323 44.2367 91.8169 44.7106 91.8169C45.1877 91.8169 45.5724 91.9338 45.8647 92.1677C46.1602 92.3985 46.3418 92.714 46.4095 93.1141H46.4834C46.7049 92.7171 47.0219 92.4016 47.4343 92.1677C47.8498 91.9338 48.3161 91.8169 48.8331 91.8169C49.4794 91.8169 49.9749 92.0231 50.3196 92.4355C50.6643 92.8479 50.7705 93.4496 50.6382 94.2405L49.8441 99.0001H48.173L48.9301 94.499C48.9978 94.0589 48.9301 93.7373 48.727 93.5342C48.5269 93.328 48.2576 93.2249 47.9191 93.2249C47.5159 93.2249 47.1804 93.3495 46.9127 93.5988C46.648 93.8481 46.4849 94.1743 46.4233 94.5775L45.6801 99.0001H44.0412L44.8076 94.4298C44.863 94.0635 44.7983 93.7712 44.6137 93.5527C44.4321 93.3341 44.1643 93.2249 43.8104 93.2249C43.5704 93.2249 43.3411 93.2864 43.1226 93.4095C42.904 93.5327 42.7178 93.705 42.564 93.9266C42.4132 94.1451 42.3147 94.399 42.2685 94.6883L41.5483 99.0001H39.8726ZM54.6557 99.1386C53.9447 99.1386 53.3569 98.9909 52.8922 98.6954C52.4275 98.3969 52.1012 97.9752 51.9135 97.4305C51.7288 96.8827 51.698 96.2379 51.8212 95.4962C51.9412 94.7668 52.1859 94.1266 52.5552 93.5757C52.9245 93.0218 53.3861 92.5909 53.9401 92.2831C54.4972 91.9723 55.1127 91.8169 55.7867 91.8169C56.2237 91.8169 56.6254 91.8876 56.9916 92.0292C57.3579 92.1677 57.6672 92.3831 57.9195 92.6755C58.1719 92.9679 58.3458 93.3403 58.4412 93.7927C58.5366 94.2421 58.532 94.7776 58.4273 95.3992L58.3489 95.9117H52.5321L52.7121 94.7853H56.9224C56.9778 94.4652 56.9593 94.1805 56.867 93.9312C56.7746 93.6788 56.6208 93.4803 56.4053 93.3357C56.1899 93.191 55.9206 93.1187 55.5974 93.1187C55.2681 93.1187 54.9604 93.2033 54.6741 93.3726C54.391 93.5388 54.1525 93.7542 53.9586 94.0189C53.7647 94.2836 53.6416 94.5621 53.5893 94.8545L53.4 95.9348C53.3323 96.3779 53.3477 96.7396 53.4462 97.0196C53.5446 97.2997 53.717 97.5059 53.9632 97.6382C54.2094 97.7706 54.5203 97.8367 54.8957 97.8367C55.1419 97.8367 55.3697 97.8029 55.579 97.7352C55.7882 97.6675 55.9744 97.5659 56.1376 97.4305C56.3038 97.292 56.4422 97.1227 56.553 96.9227L58.0811 97.0981C57.9118 97.5105 57.6641 97.8706 57.3378 98.1784C57.0116 98.4831 56.6208 98.72 56.1653 98.8893C55.7128 99.0555 55.2096 99.1386 54.6557 99.1386ZM61.6173 94.8453L60.9341 99.0001H59.2583L60.4401 91.9092H62.042L61.8389 93.1141H61.9266C62.1482 92.7171 62.4591 92.4016 62.8592 92.1677C63.2592 91.9338 63.7255 91.8169 64.2579 91.8169C64.7411 91.8169 65.1474 91.9215 65.4767 92.1308C65.806 92.337 66.0399 92.6401 66.1784 93.0402C66.3169 93.4372 66.3384 93.9189 66.243 94.4852L65.4859 99.0001H63.8148L64.5211 94.7437C64.6011 94.2728 64.5411 93.9035 64.341 93.6358C64.1441 93.3649 63.8271 93.2295 63.39 93.2295C63.0977 93.2295 62.8284 93.2941 62.5822 93.4234C62.336 93.5496 62.1282 93.7327 61.9589 93.9728C61.7927 94.2128 61.6789 94.5037 61.6173 94.8453ZM70.9138 99.0001V91.9092H71.9663V93.0171H72.0586C72.2064 92.6386 72.4449 92.3447 72.7742 92.1354C73.1035 91.923 73.499 91.8169 73.9606 91.8169C74.4284 91.8169 74.8178 91.923 75.1286 92.1354C75.4425 92.3447 75.6872 92.6386 75.8626 93.0171H75.9365C76.1181 92.6509 76.3904 92.3601 76.7536 92.1446C77.1168 91.9261 77.5522 91.8169 78.0601 91.8169C78.6941 91.8169 79.2126 92.0154 79.6158 92.4124C80.019 92.8063 80.2206 93.4203 80.2206 94.2544V99.0001H79.1311V94.2544C79.1311 93.7312 78.988 93.3572 78.7017 93.1326C78.4155 92.9079 78.0785 92.7956 77.6907 92.7956C77.1922 92.7956 76.8059 92.9464 76.532 93.248C76.2581 93.5465 76.1211 93.9251 76.1211 94.3836V99.0001H75.0132V94.1436C75.0132 93.7404 74.8824 93.4157 74.6208 93.1695C74.3592 92.9202 74.0222 92.7956 73.6098 92.7956C73.3266 92.7956 73.062 92.871 72.8157 93.0218C72.5726 93.1726 72.3756 93.3818 72.2248 93.6496C72.0771 93.9143 72.0032 94.2205 72.0032 94.5683V99.0001H70.9138ZM84.2992 99.1663C83.8499 99.1663 83.4421 99.0817 83.0759 98.9124C82.7096 98.74 82.4188 98.4923 82.2033 98.1691C81.9879 97.8429 81.8802 97.449 81.8802 96.9873C81.8802 96.5811 81.9602 96.2518 82.1202 95.9994C82.2803 95.7439 82.4942 95.5439 82.7619 95.3992C83.0297 95.2546 83.3252 95.1469 83.6483 95.0761C83.9745 95.0022 84.3023 94.9438 84.6316 94.9007C85.0625 94.8453 85.4118 94.8037 85.6796 94.776C85.9504 94.7452 86.1474 94.6945 86.2705 94.6237C86.3966 94.5529 86.4597 94.4298 86.4597 94.2544V94.2174C86.4597 93.7619 86.3351 93.408 86.0858 93.1556C85.8396 92.9033 85.4657 92.7771 84.964 92.7771C84.4439 92.7771 84.0361 92.891 83.7406 93.1187C83.4452 93.3465 83.2374 93.5896 83.1174 93.8481L82.0833 93.4788C82.268 93.0479 82.5142 92.7125 82.822 92.4724C83.1328 92.2293 83.4713 92.06 83.8376 91.9646C84.2069 91.8661 84.5701 91.8169 84.9271 91.8169C85.1548 91.8169 85.4164 91.8446 85.7119 91.9C86.0104 91.9523 86.2982 92.0615 86.5752 92.2277C86.8552 92.3939 87.0876 92.6447 87.2722 92.9802C87.4569 93.3157 87.5492 93.765 87.5492 94.3282V99.0001H86.4597V98.0399H86.4043C86.3305 98.1938 86.2074 98.3584 86.035 98.5338C85.8627 98.7093 85.6334 98.8585 85.3472 98.9816C85.0609 99.1047 84.7116 99.1663 84.2992 99.1663ZM84.4654 98.1876C84.8963 98.1876 85.2595 98.103 85.5549 97.9337C85.8534 97.7644 86.0781 97.5459 86.2289 97.2782C86.3828 97.0104 86.4597 96.7288 86.4597 96.4333V95.4362C86.4136 95.4916 86.312 95.5424 86.1551 95.5885C86.0012 95.6316 85.8227 95.6701 85.6195 95.7039C85.4195 95.7347 85.2241 95.7624 85.0332 95.787C84.8455 95.8086 84.6932 95.827 84.5762 95.8424C84.2931 95.8794 84.0284 95.9394 83.7822 96.0225C83.539 96.1025 83.3421 96.2241 83.1913 96.3872C83.0435 96.5472 82.9697 96.7657 82.9697 97.0427C82.9697 97.4213 83.1097 97.7075 83.3898 97.9014C83.6729 98.0922 84.0315 98.1876 84.4654 98.1876ZM89.9856 101.659C89.8009 101.659 89.6363 101.644 89.4916 101.613C89.347 101.585 89.2469 101.558 89.1915 101.53L89.4685 100.57C89.7332 100.637 89.9671 100.662 90.1702 100.643C90.3734 100.625 90.5534 100.534 90.7104 100.371C90.8704 100.211 91.0166 99.9511 91.1489 99.591L91.3521 99.037L88.7299 91.9092H89.9117L91.8691 97.5598H91.943L93.9003 91.9092H95.0822L92.0722 100.034C91.9368 100.4 91.7691 100.703 91.569 100.944C91.369 101.187 91.1366 101.367 90.8719 101.484C90.6103 101.601 90.3149 101.659 89.9856 101.659ZM100.325 99.0001V89.5456H101.414V93.0356H101.506C101.586 92.9125 101.697 92.7555 101.839 92.5647C101.983 92.3708 102.19 92.1985 102.457 92.0477C102.728 91.8938 103.094 91.8169 103.556 91.8169C104.153 91.8169 104.679 91.9661 105.135 92.2647C105.59 92.5632 105.946 92.9864 106.201 93.5342C106.457 94.082 106.585 94.7283 106.585 95.4731C106.585 96.2241 106.457 96.875 106.201 97.4259C105.946 97.9737 105.592 98.3984 105.14 98.7C104.687 98.9986 104.165 99.1478 103.575 99.1478C103.119 99.1478 102.754 99.0724 102.48 98.9216C102.207 98.7677 101.996 98.5938 101.848 98.4C101.7 98.203 101.586 98.0399 101.506 97.9106H101.377V99.0001H100.325ZM101.396 95.4546C101.396 95.9902 101.474 96.4626 101.631 96.8719C101.788 97.2782 102.017 97.5967 102.319 97.8275C102.621 98.0553 102.99 98.1691 103.427 98.1691C103.882 98.1691 104.262 98.0491 104.567 97.809C104.875 97.5659 105.106 97.2397 105.26 96.8304C105.417 96.418 105.495 95.9594 105.495 95.4546C105.495 94.9561 105.418 94.5067 105.264 94.1066C105.113 93.7035 104.884 93.3849 104.576 93.151C104.272 92.914 103.888 92.7956 103.427 92.7956C102.984 92.7956 102.611 92.9079 102.31 93.1326C102.008 93.3541 101.78 93.665 101.626 94.0651C101.473 94.4621 101.396 94.9253 101.396 95.4546ZM111.224 99.1478C110.541 99.1478 109.951 98.997 109.456 98.6954C108.964 98.3907 108.583 97.966 108.316 97.4213C108.051 96.8734 107.919 96.2364 107.919 95.51C107.919 94.7837 108.051 94.1436 108.316 93.5896C108.583 93.0325 108.956 92.5986 109.433 92.2877C109.913 91.9738 110.473 91.8169 111.113 91.8169C111.483 91.8169 111.847 91.8784 112.207 92.0015C112.567 92.1246 112.895 92.3247 113.191 92.6017C113.486 92.8756 113.722 93.2387 113.897 93.6912C114.072 94.1436 114.16 94.7006 114.16 95.3623V95.824H108.694V94.8822H113.052C113.052 94.4821 112.972 94.1251 112.812 93.8112C112.655 93.4973 112.431 93.2495 112.138 93.0679C111.849 92.8863 111.507 92.7956 111.113 92.7956C110.679 92.7956 110.304 92.9033 109.987 93.1187C109.673 93.3311 109.431 93.6081 109.262 93.9497C109.093 94.2913 109.008 94.6575 109.008 95.0484V95.6762C109.008 96.2117 109.1 96.6657 109.285 97.0381C109.473 97.4074 109.733 97.689 110.065 97.8829C110.398 98.0737 110.784 98.1691 111.224 98.1691C111.51 98.1691 111.769 98.1291 112 98.0491C112.234 97.966 112.435 97.8429 112.604 97.6798C112.774 97.5136 112.904 97.3074 112.997 97.0612L114.049 97.3566C113.939 97.7136 113.752 98.0276 113.491 98.2984C113.229 98.5662 112.906 98.7754 112.521 98.9262C112.137 99.074 111.704 99.1478 111.224 99.1478ZM119.474 99.0001V91.9092H120.563V99.0001H119.474ZM120.028 90.7274C119.815 90.7274 119.632 90.655 119.478 90.5104C119.328 90.3657 119.252 90.1919 119.252 89.9887C119.252 89.7856 119.328 89.6117 119.478 89.4671C119.632 89.3224 119.815 89.2501 120.028 89.2501C120.24 89.2501 120.422 89.3224 120.572 89.4671C120.726 89.6117 120.803 89.7856 120.803 89.9887C120.803 90.1919 120.726 90.3657 120.572 90.5104C120.422 90.655 120.24 90.7274 120.028 90.7274ZM123.648 94.7345V99.0001H122.559V91.9092H123.611V93.0171H123.704C123.87 92.6571 124.122 92.3678 124.461 92.1492C124.799 91.9277 125.236 91.8169 125.772 91.8169C126.252 91.8169 126.672 91.9153 127.032 92.1123C127.392 92.3062 127.672 92.6017 127.872 92.9987C128.072 93.3926 128.172 93.8912 128.172 94.4944V99.0001H127.083V94.5683C127.083 94.0112 126.938 93.5773 126.649 93.2664C126.36 92.9525 125.963 92.7956 125.458 92.7956C125.11 92.7956 124.799 92.871 124.525 93.0218C124.254 93.1726 124.041 93.3926 123.884 93.6819C123.727 93.9712 123.648 94.3221 123.648 94.7345ZM135.186 93.4973L134.207 93.7742C134.146 93.6111 134.055 93.4526 133.935 93.2988C133.818 93.1418 133.658 93.0125 133.455 92.911C133.252 92.8094 132.992 92.7586 132.675 92.7586C132.241 92.7586 131.879 92.8586 131.59 93.0587C131.303 93.2557 131.16 93.5065 131.16 93.8112C131.16 94.082 131.259 94.2959 131.456 94.4529C131.653 94.6098 131.961 94.7406 132.379 94.8453L133.432 95.1038C134.066 95.2577 134.538 95.4931 134.849 95.8101C135.16 96.124 135.315 96.5287 135.315 97.0242C135.315 97.4305 135.198 97.7937 134.964 98.1137C134.733 98.4338 134.41 98.6862 133.995 98.8708C133.579 99.0555 133.096 99.1478 132.545 99.1478C131.822 99.1478 131.223 98.9909 130.749 98.6769C130.276 98.363 129.975 97.9045 129.849 97.3012L130.883 97.0427C130.982 97.4243 131.168 97.7106 131.442 97.9014C131.719 98.0922 132.081 98.1876 132.527 98.1876C133.035 98.1876 133.438 98.0799 133.736 97.8644C134.038 97.6459 134.189 97.3843 134.189 97.0796C134.189 96.8334 134.103 96.6272 133.93 96.461C133.758 96.2918 133.493 96.1656 133.136 96.0825L131.954 95.8055C131.305 95.6516 130.828 95.4131 130.523 95.0899C130.222 94.7637 130.071 94.3559 130.071 93.8666C130.071 93.4665 130.183 93.1126 130.408 92.8048C130.636 92.497 130.945 92.2554 131.336 92.08C131.73 91.9046 132.176 91.8169 132.675 91.8169C133.376 91.8169 133.927 91.9707 134.327 92.2785C134.73 92.5863 135.017 92.9925 135.186 93.4973ZM139.928 99.1478C139.245 99.1478 138.656 98.997 138.16 98.6954C137.668 98.3907 137.288 97.966 137.02 97.4213C136.755 96.8734 136.623 96.2364 136.623 95.51C136.623 94.7837 136.755 94.1436 137.02 93.5896C137.288 93.0325 137.66 92.5986 138.137 92.2877C138.617 91.9738 139.177 91.8169 139.817 91.8169C140.187 91.8169 140.551 91.8784 140.911 92.0015C141.272 92.1246 141.599 92.3247 141.895 92.6017C142.19 92.8756 142.426 93.2387 142.601 93.6912C142.777 94.1436 142.864 94.7006 142.864 95.3623V95.824H137.398V94.8822H141.756C141.756 94.4821 141.676 94.1251 141.516 93.8112C141.359 93.4973 141.135 93.2495 140.842 93.0679C140.553 92.8863 140.211 92.7956 139.817 92.7956C139.383 92.7956 139.008 92.9033 138.691 93.1187C138.377 93.3311 138.135 93.6081 137.966 93.9497C137.797 94.2913 137.712 94.6575 137.712 95.0484V95.6762C137.712 96.2117 137.805 96.6657 137.989 97.0381C138.177 97.4074 138.437 97.689 138.769 97.8829C139.102 98.0737 139.488 98.1691 139.928 98.1691C140.214 98.1691 140.473 98.1291 140.704 98.0491C140.938 97.966 141.139 97.8429 141.309 97.6798C141.478 97.5136 141.609 97.3074 141.701 97.0612L142.753 97.3566C142.643 97.7136 142.456 98.0276 142.195 98.2984C141.933 98.5662 141.61 98.7754 141.225 98.9262C140.841 99.074 140.408 99.1478 139.928 99.1478ZM145.611 94.7345V99.0001H144.522V91.9092H145.574V93.0171H145.666C145.833 92.6571 146.085 92.3678 146.424 92.1492C146.762 91.9277 147.199 91.8169 147.735 91.8169C148.215 91.8169 148.635 91.9153 148.995 92.1123C149.355 92.3062 149.635 92.6017 149.835 92.9987C150.035 93.3926 150.135 93.8912 150.135 94.4944V99.0001H149.046V94.5683C149.046 94.0112 148.901 93.5773 148.612 93.2664C148.322 92.9525 147.925 92.7956 147.421 92.7956C147.073 92.7956 146.762 92.871 146.488 93.0218C146.217 93.1726 146.003 93.3926 145.847 93.6819C145.69 93.9712 145.611 94.3221 145.611 94.7345ZM157.149 93.4973L156.17 93.7742C156.109 93.6111 156.018 93.4526 155.898 93.2988C155.781 93.1418 155.621 93.0125 155.418 92.911C155.214 92.8094 154.954 92.7586 154.637 92.7586C154.203 92.7586 153.842 92.8586 153.553 93.0587C153.266 93.2557 153.123 93.5065 153.123 93.8112C153.123 94.082 153.222 94.2959 153.419 94.4529C153.616 94.6098 153.923 94.7406 154.342 94.8453L155.395 95.1038C156.029 95.2577 156.501 95.4931 156.812 95.8101C157.123 96.124 157.278 96.5287 157.278 97.0242C157.278 97.4305 157.161 97.7937 156.927 98.1137C156.696 98.4338 156.373 98.6862 155.958 98.8708C155.542 99.0555 155.059 99.1478 154.508 99.1478C153.785 99.1478 153.186 98.9909 152.712 98.6769C152.238 98.363 151.938 97.9045 151.812 97.3012L152.846 97.0427C152.945 97.4243 153.131 97.7106 153.405 97.9014C153.682 98.0922 154.043 98.1876 154.49 98.1876C154.998 98.1876 155.401 98.0799 155.699 97.8644C156.001 97.6459 156.152 97.3843 156.152 97.0796C156.152 96.8334 156.065 96.6272 155.893 96.461C155.721 96.2918 155.456 96.1656 155.099 96.0825L153.917 95.8055C153.268 95.6516 152.791 95.4131 152.486 95.0899C152.185 94.7637 152.034 94.3559 152.034 93.8666C152.034 93.4665 152.146 93.1126 152.371 92.8048C152.598 92.497 152.908 92.2554 153.299 92.08C153.693 91.9046 154.139 91.8169 154.637 91.8169C155.339 91.8169 155.89 91.9707 156.29 92.2785C156.693 92.5863 156.98 92.9925 157.149 93.4973ZM158.918 99.0001V91.9092H160.008V99.0001H158.918ZM159.472 90.7274C159.26 90.7274 159.077 90.655 158.923 90.5104C158.772 90.3657 158.696 90.1919 158.696 89.9887C158.696 89.7856 158.772 89.6117 158.923 89.4671C159.077 89.3224 159.26 89.2501 159.472 89.2501C159.684 89.2501 159.866 89.3224 160.017 89.4671C160.171 89.6117 160.248 89.7856 160.248 89.9887C160.248 90.1919 160.171 90.3657 160.017 90.5104C159.866 90.655 159.684 90.7274 159.472 90.7274ZM165.087 91.9092V92.8325H161.412V91.9092H165.087ZM162.483 90.2103H163.573V96.9689C163.573 97.2766 163.617 97.5074 163.706 97.6613C163.799 97.8121 163.916 97.9137 164.057 97.966C164.202 98.0153 164.354 98.0399 164.514 98.0399C164.634 98.0399 164.733 98.0337 164.81 98.0214C164.887 98.006 164.948 97.9937 164.994 97.9845L165.216 98.9632C165.142 98.9909 165.039 99.0186 164.907 99.0463C164.774 99.077 164.607 99.0924 164.404 99.0924C164.096 99.0924 163.794 99.0263 163.499 98.8939C163.206 98.7616 162.963 98.56 162.769 98.2892C162.579 98.0183 162.483 97.6767 162.483 97.2643V90.2103ZM166.726 99.0001V91.9092H167.815V99.0001H166.726ZM167.28 90.7274C167.067 90.7274 166.884 90.655 166.73 90.5104C166.579 90.3657 166.504 90.1919 166.504 89.9887C166.504 89.7856 166.579 89.6117 166.73 89.4671C166.884 89.3224 167.067 89.2501 167.28 89.2501C167.492 89.2501 167.674 89.3224 167.824 89.4671C167.978 89.6117 168.055 89.7856 168.055 89.9887C168.055 90.1919 167.978 90.3657 167.824 90.5104C167.674 90.655 167.492 90.7274 167.28 90.7274ZM175.609 91.9092L172.987 99.0001H171.879L169.257 91.9092H170.438L172.396 97.5598H172.47L174.427 91.9092H175.609ZM179.766 99.1478C179.083 99.1478 178.493 98.997 177.998 98.6954C177.506 98.3907 177.125 97.966 176.858 97.4213C176.593 96.8734 176.461 96.2364 176.461 95.51C176.461 94.7837 176.593 94.1436 176.858 93.5896C177.125 93.0325 177.498 92.5986 177.975 92.2877C178.455 91.9738 179.015 91.8169 179.655 91.8169C180.025 91.8169 180.389 91.8784 180.749 92.0015C181.109 92.1246 181.437 92.3247 181.733 92.6017C182.028 92.8756 182.264 93.2387 182.439 93.6912C182.614 94.1436 182.702 94.7006 182.702 95.3623V95.824H177.236V94.8822H181.594C181.594 94.4821 181.514 94.1251 181.354 93.8112C181.197 93.4973 180.973 93.2495 180.68 93.0679C180.391 92.8863 180.049 92.7956 179.655 92.7956C179.221 92.7956 178.846 92.9033 178.529 93.1187C178.215 93.3311 177.973 93.6081 177.804 93.9497C177.635 94.2913 177.55 94.6575 177.55 95.0484V95.6762C177.55 96.2117 177.642 96.6657 177.827 97.0381C178.015 97.4074 178.275 97.689 178.607 97.8829C178.94 98.0737 179.326 98.1691 179.766 98.1691C180.052 98.1691 180.311 98.1291 180.542 98.0491C180.776 97.966 180.977 97.8429 181.146 97.6798C181.316 97.5136 181.446 97.3074 181.539 97.0612L182.591 97.3566C182.481 97.7136 182.294 98.0276 182.033 98.2984C181.771 98.5662 181.448 98.7754 181.063 98.9262C180.679 99.074 180.246 99.1478 179.766 99.1478ZM185.153 99.074C184.926 99.074 184.73 98.9924 184.567 98.8293C184.404 98.6662 184.323 98.4707 184.323 98.243C184.323 98.0153 184.404 97.8198 184.567 97.6567C184.73 97.4936 184.926 97.412 185.153 97.412C185.381 97.412 185.577 97.4936 185.74 97.6567C185.903 97.8198 185.984 98.0153 185.984 98.243C185.984 98.3938 185.946 98.5323 185.869 98.6585C185.795 98.7847 185.695 98.8862 185.569 98.9632C185.446 99.037 185.307 99.074 185.153 99.074ZM199.351 92.5001H198.207C198.139 92.1708 198.02 91.8815 197.851 91.6322C197.685 91.3829 197.482 91.1736 197.242 91.0044C197.005 90.832 196.742 90.7028 196.452 90.6166C196.163 90.5304 195.861 90.4873 195.547 90.4873C194.975 90.4873 194.456 90.632 193.992 90.9213C193.53 91.2106 193.162 91.6368 192.888 92.2C192.618 92.7632 192.482 93.4542 192.482 94.2728C192.482 95.0915 192.618 95.7824 192.888 96.3456C193.162 96.9088 193.53 97.3351 193.992 97.6244C194.456 97.9137 194.975 98.0583 195.547 98.0583C195.861 98.0583 196.163 98.0153 196.452 97.9291C196.742 97.8429 197.005 97.7152 197.242 97.5459C197.482 97.3736 197.685 97.1627 197.851 96.9135C198.02 96.6611 198.139 96.3718 198.207 96.0456H199.351C199.265 96.5287 199.108 96.9612 198.881 97.3428C198.653 97.7244 198.37 98.0491 198.031 98.3169C197.693 98.5815 197.313 98.7831 196.891 98.9216C196.472 99.0601 196.025 99.1294 195.547 99.1294C194.741 99.1294 194.024 98.9324 193.396 98.5385C192.768 98.1445 192.274 97.5844 191.914 96.8581C191.554 96.1317 191.374 95.27 191.374 94.2728C191.374 93.2757 191.554 92.4139 191.914 91.6876C192.274 90.9613 192.768 90.4011 193.396 90.0072C194.024 89.6133 194.741 89.4163 195.547 89.4163C196.025 89.4163 196.472 89.4855 196.891 89.624C197.313 89.7625 197.693 89.9657 198.031 90.2334C198.37 90.4981 198.653 90.8212 198.881 91.2029C199.108 91.5814 199.265 92.0138 199.351 92.5001ZM203.934 99.1478C203.294 99.1478 202.733 98.9955 202.249 98.6908C201.769 98.3861 201.394 97.9599 201.123 97.412C200.855 96.8642 200.721 96.2241 200.721 95.4916C200.721 94.7529 200.855 94.1082 201.123 93.5573C201.394 93.0064 201.769 92.5786 202.249 92.2739C202.733 91.9692 203.294 91.8169 203.934 91.8169C204.575 91.8169 205.135 91.9692 205.615 92.2739C206.098 92.5786 206.474 93.0064 206.741 93.5573C207.012 94.1082 207.148 94.7529 207.148 95.4916C207.148 96.2241 207.012 96.8642 206.741 97.412C206.474 97.9599 206.098 98.3861 205.615 98.6908C205.135 98.9955 204.575 99.1478 203.934 99.1478ZM203.934 98.1691C204.421 98.1691 204.821 98.0445 205.135 97.7952C205.449 97.5459 205.681 97.2181 205.832 96.8119C205.983 96.4056 206.058 95.9655 206.058 95.4916C206.058 95.0176 205.983 94.576 205.832 94.1666C205.681 93.7573 205.449 93.4265 205.135 93.1741C204.821 92.9217 204.421 92.7956 203.934 92.7956C203.448 92.7956 203.048 92.9217 202.734 93.1741C202.42 93.4265 202.188 93.7573 202.037 94.1666C201.886 94.576 201.811 95.0176 201.811 95.4916C201.811 95.9655 201.886 96.4056 202.037 96.8119C202.188 97.2181 202.42 97.5459 202.734 97.7952C203.048 98.0445 203.448 98.1691 203.934 98.1691ZM209.9 94.7345V99.0001H208.811V91.9092H209.863V93.0171H209.956C210.122 92.6571 210.374 92.3678 210.713 92.1492C211.051 91.9277 211.488 91.8169 212.024 91.8169C212.504 91.8169 212.924 91.9153 213.284 92.1123C213.644 92.3062 213.924 92.6017 214.124 92.9987C214.324 93.3926 214.424 93.8912 214.424 94.4944V99.0001H213.335V94.5683C213.335 94.0112 213.19 93.5773 212.901 93.2664C212.612 92.9525 212.215 92.7956 211.71 92.7956C211.362 92.7956 211.051 92.871 210.777 93.0218C210.506 93.1726 210.293 93.3926 210.136 93.6819C209.979 93.9712 209.9 94.3221 209.9 94.7345ZM221.438 93.4973L220.459 93.7742C220.398 93.6111 220.307 93.4526 220.187 93.2988C220.07 93.1418 219.91 93.0125 219.707 92.911C219.504 92.8094 219.243 92.7586 218.926 92.7586C218.493 92.7586 218.131 92.8586 217.842 93.0587C217.555 93.2557 217.412 93.5065 217.412 93.8112C217.412 94.082 217.511 94.2959 217.708 94.4529C217.905 94.6098 218.212 94.7406 218.631 94.8453L219.684 95.1038C220.318 95.2577 220.79 95.4931 221.101 95.8101C221.412 96.124 221.567 96.5287 221.567 97.0242C221.567 97.4305 221.45 97.7937 221.216 98.1137C220.985 98.4338 220.662 98.6862 220.247 98.8708C219.831 99.0555 219.348 99.1478 218.797 99.1478C218.074 99.1478 217.475 98.9909 217.001 98.6769C216.527 98.363 216.227 97.9045 216.101 97.3012L217.135 97.0427C217.234 97.4243 217.42 97.7106 217.694 97.9014C217.971 98.0922 218.333 98.1876 218.779 98.1876C219.287 98.1876 219.69 98.0799 219.988 97.8644C220.29 97.6459 220.441 97.3843 220.441 97.0796C220.441 96.8334 220.355 96.6272 220.182 96.461C220.01 96.2918 219.745 96.1656 219.388 96.0825L218.206 95.8055C217.557 95.6516 217.08 95.4131 216.775 95.0899C216.474 94.7637 216.323 94.3559 216.323 93.8666C216.323 93.4665 216.435 93.1126 216.66 92.8048C216.888 92.497 217.197 92.2554 217.588 92.08C217.982 91.9046 218.428 91.8169 218.926 91.8169C219.628 91.8169 220.179 91.9707 220.579 92.2785C220.982 92.5863 221.269 92.9925 221.438 93.4973ZM223.207 99.0001V91.9092H224.297V99.0001H223.207ZM223.761 90.7274C223.549 90.7274 223.366 90.655 223.212 90.5104C223.061 90.3657 222.986 90.1919 222.986 89.9887C222.986 89.7856 223.061 89.6117 223.212 89.4671C223.366 89.3224 223.549 89.2501 223.761 89.2501C223.973 89.2501 224.155 89.3224 224.306 89.4671C224.46 89.6117 224.537 89.7856 224.537 89.9887C224.537 90.1919 224.46 90.3657 224.306 90.5104C224.155 90.655 223.973 90.7274 223.761 90.7274ZM228.97 99.1478C228.379 99.1478 227.857 98.9986 227.405 98.7C226.952 98.3984 226.598 97.9737 226.343 97.4259C226.087 96.875 225.96 96.2241 225.96 95.4731C225.96 94.7283 226.087 94.082 226.343 93.5342C226.598 92.9864 226.954 92.5632 227.409 92.2647C227.865 91.9661 228.391 91.8169 228.988 91.8169C229.45 91.8169 229.814 91.8938 230.082 92.0477C230.353 92.1985 230.559 92.3708 230.701 92.5647C230.845 92.7555 230.958 92.9125 231.038 93.0356H231.13V89.5456H232.22V99.0001H231.167V97.9106H231.038C230.958 98.0399 230.844 98.203 230.696 98.4C230.548 98.5938 230.338 98.7677 230.064 98.9216C229.79 99.0724 229.425 99.1478 228.97 99.1478ZM229.117 98.1691C229.554 98.1691 229.924 98.0553 230.225 97.8275C230.527 97.5967 230.756 97.2782 230.913 96.8719C231.07 96.4626 231.149 95.9902 231.149 95.4546C231.149 94.9253 231.072 94.4621 230.918 94.0651C230.764 93.665 230.536 93.3541 230.235 93.1326C229.933 92.9079 229.561 92.7956 229.117 92.7956C228.656 92.7956 228.271 92.914 227.963 93.151C227.659 93.3849 227.429 93.7035 227.275 94.1066C227.125 94.5067 227.049 94.9561 227.049 95.4546C227.049 95.9594 227.126 96.418 227.28 96.8304C227.437 97.2397 227.668 97.5659 227.972 97.809C228.28 98.0491 228.662 98.1691 229.117 98.1691ZM237.339 99.1478C236.656 99.1478 236.067 98.997 235.571 98.6954C235.079 98.3907 234.699 97.966 234.431 97.4213C234.166 96.8734 234.034 96.2364 234.034 95.51C234.034 94.7837 234.166 94.1436 234.431 93.5896C234.699 93.0325 235.071 92.5986 235.548 92.2877C236.028 91.9738 236.588 91.8169 237.229 91.8169C237.598 91.8169 237.963 91.8784 238.323 92.0015C238.683 92.1246 239.01 92.3247 239.306 92.6017C239.601 92.8756 239.837 93.2387 240.012 93.6912C240.188 94.1436 240.275 94.7006 240.275 95.3623V95.824H234.809V94.8822H239.167C239.167 94.4821 239.087 94.1251 238.927 93.8112C238.77 93.4973 238.546 93.2495 238.253 93.0679C237.964 92.8863 237.622 92.7956 237.229 92.7956C236.795 92.7956 236.419 92.9033 236.102 93.1187C235.788 93.3311 235.547 93.6081 235.377 93.9497C235.208 94.2913 235.123 94.6575 235.123 95.0484V95.6762C235.123 96.2117 235.216 96.6657 235.4 97.0381C235.588 97.4074 235.848 97.689 236.181 97.8829C236.513 98.0737 236.899 98.1691 237.339 98.1691C237.626 98.1691 237.884 98.1291 238.115 98.0491C238.349 97.966 238.55 97.8429 238.72 97.6798C238.889 97.5136 239.02 97.3074 239.112 97.0612L240.165 97.3566C240.054 97.7136 239.868 98.0276 239.606 98.2984C239.344 98.5662 239.021 98.7754 238.637 98.9262C238.252 99.074 237.819 99.1478 237.339 99.1478ZM241.933 99.0001V91.9092H242.985V92.9802H243.059C243.188 92.6294 243.422 92.3447 243.761 92.1262C244.099 91.9077 244.481 91.7984 244.906 91.7984C244.986 91.7984 245.086 91.7999 245.206 91.803C245.326 91.8061 245.417 91.8107 245.478 91.8169V92.9248C245.441 92.9156 245.357 92.9017 245.224 92.8833C245.095 92.8617 244.958 92.851 244.813 92.851C244.469 92.851 244.161 92.9233 243.89 93.0679C243.622 93.2095 243.41 93.4065 243.253 93.6588C243.099 93.9081 243.022 94.1928 243.022 94.5129V99.0001H241.933ZM254.895 96.101V91.9092H255.984V99.0001H254.895V97.7998H254.821C254.655 98.1599 254.396 98.4661 254.045 98.7185C253.694 98.9678 253.251 99.0924 252.716 99.0924C252.272 99.0924 251.879 98.9955 251.534 98.8016C251.189 98.6046 250.918 98.3092 250.721 97.9152C250.524 97.5182 250.426 97.0181 250.426 96.4149V91.9092H251.515V96.341C251.515 96.8581 251.66 97.2705 251.949 97.5782C252.242 97.886 252.614 98.0399 253.066 98.0399C253.337 98.0399 253.613 97.9706 253.893 97.8321C254.176 97.6936 254.413 97.4813 254.604 97.1951C254.798 96.9088 254.895 96.5441 254.895 96.101ZM263.002 93.4973L262.024 93.7742C261.962 93.6111 261.871 93.4526 261.751 93.2988C261.634 93.1418 261.474 93.0125 261.271 92.911C261.068 92.8094 260.808 92.7586 260.491 92.7586C260.057 92.7586 259.695 92.8586 259.406 93.0587C259.12 93.2557 258.977 93.5065 258.977 93.8112C258.977 94.082 259.075 94.2959 259.272 94.4529C259.469 94.6098 259.777 94.7406 260.195 94.8453L261.248 95.1038C261.882 95.2577 262.354 95.4931 262.665 95.8101C262.976 96.124 263.132 96.5287 263.132 97.0242C263.132 97.4305 263.015 97.7937 262.781 98.1137C262.55 98.4338 262.227 98.6862 261.811 98.8708C261.396 99.0555 260.913 99.1478 260.362 99.1478C259.638 99.1478 259.04 98.9909 258.566 98.6769C258.092 98.363 257.792 97.9045 257.666 97.3012L258.7 97.0427C258.798 97.4243 258.984 97.7106 259.258 97.9014C259.535 98.0922 259.897 98.1876 260.343 98.1876C260.851 98.1876 261.254 98.0799 261.553 97.8644C261.854 97.6459 262.005 97.3843 262.005 97.0796C262.005 96.8334 261.919 96.6272 261.747 96.461C261.574 96.2918 261.31 96.1656 260.953 96.0825L259.771 95.8055C259.121 95.6516 258.644 95.4131 258.34 95.0899C258.038 94.7637 257.887 94.3559 257.887 93.8666C257.887 93.4665 258 93.1126 258.224 92.8048C258.452 92.497 258.761 92.2554 259.152 92.08C259.546 91.9046 259.992 91.8169 260.491 91.8169C261.193 91.8169 261.744 91.9707 262.144 92.2785C262.547 92.5863 262.833 92.9925 263.002 93.4973ZM264.772 99.0001V91.9092H265.861V99.0001H264.772ZM265.326 90.7274C265.113 90.7274 264.93 90.655 264.776 90.5104C264.625 90.3657 264.55 90.1919 264.55 89.9887C264.55 89.7856 264.625 89.6117 264.776 89.4671C264.93 89.3224 265.113 89.2501 265.326 89.2501C265.538 89.2501 265.719 89.3224 265.87 89.4671C266.024 89.6117 266.101 89.7856 266.101 89.9887C266.101 90.1919 266.024 90.3657 265.87 90.5104C265.719 90.655 265.538 90.7274 265.326 90.7274ZM268.946 94.7345V99.0001H267.857V91.9092H268.909V93.0171H269.001C269.168 92.6571 269.42 92.3678 269.759 92.1492C270.097 91.9277 270.534 91.8169 271.07 91.8169C271.55 91.8169 271.97 91.9153 272.33 92.1123C272.69 92.3062 272.97 92.6017 273.17 92.9987C273.37 93.3926 273.47 93.8912 273.47 94.4944V99.0001H272.381V94.5683C272.381 94.0112 272.236 93.5773 271.947 93.2664C271.657 92.9525 271.26 92.7956 270.756 92.7956C270.408 92.7956 270.097 92.871 269.823 93.0218C269.552 93.1726 269.338 93.3926 269.181 93.6819C269.025 93.9712 268.946 94.3221 268.946 94.7345ZM278.323 101.807C277.797 101.807 277.345 101.739 276.966 101.604C276.587 101.471 276.272 101.296 276.02 101.077C275.77 100.862 275.572 100.631 275.424 100.385L276.292 99.7757C276.39 99.9049 276.515 100.053 276.666 100.219C276.817 100.388 277.023 100.534 277.285 100.657C277.549 100.783 277.895 100.847 278.323 100.847C278.896 100.847 279.368 100.708 279.741 100.431C280.113 100.154 280.299 99.7203 280.299 99.1294V97.689H280.207C280.127 97.8183 280.013 97.9783 279.865 98.1691C279.72 98.3569 279.511 98.5246 279.237 98.6723C278.966 98.817 278.6 98.8893 278.139 98.8893C277.566 98.8893 277.052 98.7539 276.597 98.4831C276.144 98.2122 275.786 97.8183 275.521 97.3012C275.259 96.7842 275.129 96.1563 275.129 95.4177C275.129 94.6914 275.256 94.0589 275.512 93.5203C275.767 92.9787 276.123 92.5601 276.578 92.2647C277.034 91.9661 277.56 91.8169 278.157 91.8169C278.619 91.8169 278.985 91.8938 279.256 92.0477C279.53 92.1985 279.739 92.3708 279.884 92.5647C280.031 92.7555 280.145 92.9125 280.225 93.0356H280.336V91.9092H281.389V99.2032C281.389 99.8126 281.25 100.308 280.973 100.69C280.699 101.074 280.33 101.356 279.865 101.534C279.403 101.716 278.89 101.807 278.323 101.807ZM278.286 97.9106C278.723 97.9106 279.093 97.8106 279.394 97.6105C279.696 97.4105 279.925 97.1227 280.082 96.7473C280.239 96.3718 280.318 95.9224 280.318 95.3992C280.318 94.8884 280.241 94.4375 280.087 94.0466C279.933 93.6558 279.705 93.3495 279.403 93.1279C279.102 92.9063 278.729 92.7956 278.286 92.7956C277.825 92.7956 277.44 92.9125 277.132 93.1464C276.828 93.3803 276.598 93.6942 276.444 94.0882C276.294 94.4821 276.218 94.9191 276.218 95.3992C276.218 95.8917 276.295 96.3272 276.449 96.7057C276.606 97.0812 276.837 97.3766 277.141 97.5921C277.449 97.8044 277.831 97.9106 278.286 97.9106ZM290.123 91.9092V92.8325H286.448V91.9092H290.123ZM287.519 90.2103H288.609V96.9689C288.609 97.2766 288.653 97.5074 288.743 97.6613C288.835 97.8121 288.952 97.9137 289.093 97.966C289.238 98.0153 289.39 98.0399 289.551 98.0399C289.671 98.0399 289.769 98.0337 289.846 98.0214C289.923 98.006 289.984 97.9937 290.031 97.9845L290.252 98.9632C290.178 98.9909 290.075 99.0186 289.943 99.0463C289.811 99.077 289.643 99.0924 289.44 99.0924C289.132 99.0924 288.83 99.0263 288.535 98.8939C288.243 98.7616 287.999 98.56 287.805 98.2892C287.615 98.0183 287.519 97.6767 287.519 97.2643V90.2103ZM293.004 94.7345V99.0001H291.914V89.5456H293.004V93.0171H293.096C293.262 92.6509 293.511 92.3601 293.844 92.1446C294.179 91.9261 294.626 91.8169 295.183 91.8169C295.666 91.8169 296.089 91.9138 296.452 92.1077C296.815 92.2985 297.097 92.5924 297.297 92.9894C297.5 93.3834 297.602 93.885 297.602 94.4944V99.0001H296.512V94.5683C296.512 94.0051 296.366 93.5696 296.074 93.2618C295.784 92.951 295.383 92.7956 294.869 92.7956C294.512 92.7956 294.192 92.871 293.908 93.0218C293.628 93.1726 293.407 93.3926 293.244 93.6819C293.084 93.9712 293.004 94.3221 293.004 94.7345ZM302.568 99.1478C301.885 99.1478 301.295 98.997 300.8 98.6954C300.307 98.3907 299.927 97.966 299.659 97.4213C299.395 96.8734 299.262 96.2364 299.262 95.51C299.262 94.7837 299.395 94.1436 299.659 93.5896C299.927 93.0325 300.3 92.5986 300.777 92.2877C301.257 91.9738 301.817 91.8169 302.457 91.8169C302.826 91.8169 303.191 91.8784 303.551 92.0015C303.911 92.1246 304.239 92.3247 304.534 92.6017C304.83 92.8756 305.065 93.2387 305.241 93.6912C305.416 94.1436 305.504 94.7006 305.504 95.3623V95.824H300.038V94.8822H304.396C304.396 94.4821 304.316 94.1251 304.156 93.8112C303.999 93.4973 303.774 93.2495 303.482 93.0679C303.193 92.8863 302.851 92.7956 302.457 92.7956C302.023 92.7956 301.648 92.9033 301.331 93.1187C301.017 93.3311 300.775 93.6081 300.606 93.9497C300.437 94.2913 300.352 94.6575 300.352 95.0484V95.6762C300.352 96.2117 300.444 96.6657 300.629 97.0381C300.817 97.4074 301.077 97.689 301.409 97.8829C301.741 98.0737 302.128 98.1691 302.568 98.1691C302.854 98.1691 303.113 98.1291 303.343 98.0491C303.577 97.966 303.779 97.8429 303.948 97.6798C304.117 97.5136 304.248 97.3074 304.341 97.0612L305.393 97.3566C305.282 97.7136 305.096 98.0276 304.835 98.2984C304.573 98.5662 304.25 98.7754 303.865 98.9262C303.48 99.074 303.048 99.1478 302.568 99.1478ZM313.901 91.9092V92.8325H310.227V91.9092H313.901ZM311.298 90.2103H312.387V96.9689C312.387 97.2766 312.432 97.5074 312.521 97.6613C312.613 97.8121 312.73 97.9137 312.872 97.966C313.016 98.0153 313.169 98.0399 313.329 98.0399C313.449 98.0399 313.547 98.0337 313.624 98.0214C313.701 98.006 313.763 97.9937 313.809 97.9845L314.031 98.9632C313.957 98.9909 313.854 99.0186 313.721 99.0463C313.589 99.077 313.421 99.0924 313.218 99.0924C312.91 99.0924 312.609 99.0263 312.313 98.8939C312.021 98.7616 311.778 98.56 311.584 98.2892C311.393 98.0183 311.298 97.6767 311.298 97.2643V90.2103ZM318.437 99.1478C317.754 99.1478 317.164 98.997 316.669 98.6954C316.176 98.3907 315.796 97.966 315.529 97.4213C315.264 96.8734 315.132 96.2364 315.132 95.51C315.132 94.7837 315.264 94.1436 315.529 93.5896C315.796 93.0325 316.169 92.5986 316.646 92.2877C317.126 91.9738 317.686 91.8169 318.326 91.8169C318.695 91.8169 319.06 91.8784 319.42 92.0015C319.78 92.1246 320.108 92.3247 320.404 92.6017C320.699 92.8756 320.934 93.2387 321.11 93.6912C321.285 94.1436 321.373 94.7006 321.373 95.3623V95.824H315.907V94.8822H320.265C320.265 94.4821 320.185 94.1251 320.025 93.8112C319.868 93.4973 319.643 93.2495 319.351 93.0679C319.062 92.8863 318.72 92.7956 318.326 92.7956C317.892 92.7956 317.517 92.9033 317.2 93.1187C316.886 93.3311 316.644 93.6081 316.475 93.9497C316.306 94.2913 316.221 94.6575 316.221 95.0484V95.6762C316.221 96.2117 316.313 96.6657 316.498 97.0381C316.686 97.4074 316.946 97.689 317.278 97.8829C317.611 98.0737 317.997 98.1691 318.437 98.1691C318.723 98.1691 318.982 98.1291 319.213 98.0491C319.446 97.966 319.648 97.8429 319.817 97.6798C319.987 97.5136 320.117 97.3074 320.21 97.0612L321.262 97.3566C321.151 97.7136 320.965 98.0276 320.704 98.2984C320.442 98.5662 320.119 98.7754 319.734 98.9262C319.349 99.074 318.917 99.1478 318.437 99.1478ZM323.03 99.0001V91.9092H324.083V92.9802H324.157C324.286 92.6294 324.52 92.3447 324.858 92.1262C325.197 91.9077 325.579 91.7984 326.003 91.7984C326.083 91.7984 326.183 91.7999 326.303 91.803C326.423 91.8061 326.514 91.8107 326.576 91.8169V92.9248C326.539 92.9156 326.454 92.9017 326.322 92.8833C326.193 92.8617 326.056 92.851 325.911 92.851C325.566 92.851 325.259 92.9233 324.988 93.0679C324.72 93.2095 324.508 93.4065 324.351 93.6588C324.197 93.9081 324.12 94.1928 324.12 94.5129V99.0001H323.03ZM327.867 99.0001V91.9092H328.92V93.0171H329.012C329.16 92.6386 329.398 92.3447 329.728 92.1354C330.057 91.923 330.453 91.8169 330.914 91.8169C331.382 91.8169 331.771 91.923 332.082 92.1354C332.396 92.3447 332.641 92.6386 332.816 93.0171H332.89C333.072 92.6509 333.344 92.3601 333.707 92.1446C334.07 91.9261 334.506 91.8169 335.014 91.8169C335.648 91.8169 336.166 92.0154 336.569 92.4124C336.973 92.8063 337.174 93.4203 337.174 94.2544V99.0001H336.085V94.2544C336.085 93.7312 335.941 93.3572 335.655 93.1326C335.369 92.9079 335.032 92.7956 334.644 92.7956C334.146 92.7956 333.759 92.9464 333.486 93.248C333.212 93.5465 333.075 93.9251 333.075 94.3836V99.0001H331.967V94.1436C331.967 93.7404 331.836 93.4157 331.574 93.1695C331.313 92.9202 330.976 92.7956 330.563 92.7956C330.28 92.7956 330.015 92.871 329.769 93.0218C329.526 93.1726 329.329 93.3818 329.178 93.6496C329.031 93.9143 328.957 94.2205 328.957 94.5683V99.0001H327.867ZM342.453 92.5001V91.6691C342.453 91.4168 342.498 91.149 342.587 90.8659C342.679 90.5796 342.812 90.3042 342.984 90.0395C343.159 89.7718 343.37 89.5394 343.616 89.3424L344.207 89.8225C344.013 90.0995 343.844 90.3888 343.699 90.6904C343.558 90.989 343.487 91.309 343.487 91.6507V92.5001H342.453ZM344.817 92.5001V91.6691C344.817 91.4168 344.861 91.149 344.951 90.8659C345.043 90.5796 345.175 90.3042 345.348 90.0395C345.523 89.7718 345.734 89.5394 345.98 89.3424L346.571 89.8225C346.377 90.0995 346.208 90.3888 346.063 90.6904C345.922 90.989 345.851 91.309 345.851 91.6507V92.5001H344.817ZM347.921 99.0001V89.5456H353.59V90.5612H349.066V93.7558H353.166V94.7714H349.066V99.0001H347.921ZM355.403 99.0001V91.9092H356.493V99.0001H355.403ZM355.957 90.7274C355.745 90.7274 355.562 90.655 355.408 90.5104C355.257 90.3657 355.182 90.1919 355.182 89.9887C355.182 89.7856 355.257 89.6117 355.408 89.4671C355.562 89.3224 355.745 89.2501 355.957 89.2501C356.17 89.2501 356.351 89.3224 356.502 89.4671C356.656 89.6117 356.733 89.7856 356.733 89.9887C356.733 90.1919 356.656 90.3657 356.502 90.5104C356.351 90.655 356.17 90.7274 355.957 90.7274ZM358.488 99.0001V91.9092H359.541V92.9802H359.615C359.744 92.6294 359.978 92.3447 360.316 92.1262C360.655 91.9077 361.037 91.7984 361.461 91.7984C361.541 91.7984 361.641 91.7999 361.761 91.803C361.881 91.8061 361.972 91.8107 362.034 91.8169V92.9248C361.997 92.9156 361.912 92.9017 361.78 92.8833C361.651 92.8617 361.514 92.851 361.369 92.851C361.024 92.851 360.717 92.9233 360.446 93.0679C360.178 93.2095 359.966 93.4065 359.809 93.6588C359.655 93.9081 359.578 94.1928 359.578 94.5129V99.0001H358.488ZM366.082 99.1478C365.399 99.1478 364.81 98.997 364.314 98.6954C363.822 98.3907 363.442 97.966 363.174 97.4213C362.909 96.8734 362.777 96.2364 362.777 95.51C362.777 94.7837 362.909 94.1436 363.174 93.5896C363.442 93.0325 363.814 92.5986 364.291 92.2877C364.771 91.9738 365.332 91.8169 365.972 91.8169C366.341 91.8169 366.706 91.8784 367.066 92.0015C367.426 92.1246 367.754 92.3247 368.049 92.6017C368.345 92.8756 368.58 93.2387 368.755 93.6912C368.931 94.1436 369.019 94.7006 369.019 95.3623V95.824H363.553V94.8822H367.911C367.911 94.4821 367.831 94.1251 367.671 93.8112C367.514 93.4973 367.289 93.2495 366.997 93.0679C366.707 92.8863 366.366 92.7956 365.972 92.7956C365.538 92.7956 365.162 92.9033 364.845 93.1187C364.531 93.3311 364.29 93.6081 364.12 93.9497C363.951 94.2913 363.867 94.6575 363.867 95.0484V95.6762C363.867 96.2117 363.959 96.6657 364.144 97.0381C364.331 97.4074 364.591 97.689 364.924 97.8829C365.256 98.0737 365.642 98.1691 366.082 98.1691C366.369 98.1691 366.627 98.1291 366.858 98.0491C367.092 97.966 367.294 97.8429 367.463 97.6798C367.632 97.5136 367.763 97.3074 367.855 97.0612L368.908 97.3566C368.797 97.7136 368.611 98.0276 368.349 98.2984C368.088 98.5662 367.764 98.7754 367.38 98.9262C366.995 99.074 366.563 99.1478 366.082 99.1478ZM20.1544 109.909V110.832H16.332V109.909H20.1544ZM17.4769 117V108.93C17.4769 108.524 17.5723 108.186 17.7631 107.915C17.9539 107.644 18.2017 107.441 18.5063 107.305C18.811 107.17 19.1326 107.102 19.4712 107.102C19.7389 107.102 19.9575 107.124 20.1267 107.167C20.296 107.21 20.4222 107.25 20.5053 107.287L20.1914 108.229C20.136 108.21 20.059 108.187 19.9605 108.159C19.8651 108.132 19.7389 108.118 19.582 108.118C19.2219 108.118 18.9618 108.209 18.8018 108.39C18.6448 108.572 18.5664 108.838 18.5664 109.189V117H17.4769ZM21.6813 117V109.909H22.7708V117H21.6813ZM22.2353 108.727C22.0229 108.727 21.8398 108.655 21.6859 108.51C21.5351 108.366 21.4597 108.192 21.4597 107.989C21.4597 107.786 21.5351 107.612 21.6859 107.467C21.8398 107.322 22.0229 107.25 22.2353 107.25C22.4477 107.25 22.6292 107.322 22.7801 107.467C22.9339 107.612 23.0109 107.786 23.0109 107.989C23.0109 108.192 22.9339 108.366 22.7801 108.51C22.6292 108.655 22.4477 108.727 22.2353 108.727ZM27.6285 119.807C27.1022 119.807 26.6498 119.739 26.2713 119.604C25.8927 119.471 25.5773 119.296 25.3249 119.077C25.0756 118.862 24.8771 118.631 24.7294 118.385L25.5973 117.776C25.6957 117.905 25.8204 118.053 25.9712 118.219C26.122 118.388 26.3282 118.534 26.5898 118.657C26.8545 118.783 27.2007 118.847 27.6285 118.847C28.2009 118.847 28.6734 118.708 29.0458 118.431C29.4182 118.154 29.6044 117.72 29.6044 117.129V115.689H29.512C29.432 115.818 29.3181 115.978 29.1704 116.169C29.0258 116.357 28.8165 116.525 28.5426 116.672C28.2717 116.817 27.9055 116.889 27.4438 116.889C26.8714 116.889 26.3574 116.754 25.9019 116.483C25.4495 116.212 25.091 115.818 24.8263 115.301C24.5647 114.784 24.4339 114.156 24.4339 113.418C24.4339 112.691 24.5616 112.059 24.8171 111.52C25.0725 110.979 25.428 110.56 25.8835 110.265C26.339 109.966 26.8652 109.817 27.4623 109.817C27.924 109.817 28.2902 109.894 28.561 110.048C28.8349 110.198 29.0442 110.371 29.1889 110.565C29.3366 110.755 29.4505 110.912 29.5305 111.036H29.6413V109.909H30.6938V117.203C30.6938 117.812 30.5554 118.308 30.2784 118.69C30.0045 119.074 29.6351 119.356 29.1704 119.534C28.7088 119.716 28.1948 119.807 27.6285 119.807ZM27.5916 115.911C28.0286 115.911 28.3979 115.81 28.6995 115.61C29.0011 115.41 29.2304 115.123 29.3874 114.747C29.5443 114.372 29.6228 113.922 29.6228 113.399C29.6228 112.888 29.5459 112.437 29.392 112.047C29.2381 111.656 29.0104 111.349 28.7088 111.128C28.4072 110.906 28.0348 110.795 27.5916 110.795C27.1299 110.795 26.7452 110.912 26.4375 111.146C26.1328 111.38 25.9035 111.694 25.7496 112.088C25.5988 112.482 25.5234 112.919 25.5234 113.399C25.5234 113.892 25.6003 114.327 25.7542 114.706C25.9112 115.081 26.142 115.377 26.4467 115.592C26.7545 115.804 27.1361 115.911 27.5916 115.911ZM33.7777 112.734V117H32.6882V107.545H33.7777V111.017H33.87C34.0362 110.651 34.2855 110.36 34.6179 110.145C34.9533 109.926 35.3996 109.817 35.9566 109.817C36.4398 109.817 36.863 109.914 37.2262 110.108C37.5893 110.298 37.8709 110.592 38.071 110.989C38.2741 111.383 38.3757 111.885 38.3757 112.494V117H37.2862V112.568C37.2862 112.005 37.14 111.569 36.8476 111.262C36.5583 110.951 36.1567 110.795 35.6427 110.795C35.2857 110.795 34.9656 110.871 34.6825 111.022C34.4024 111.172 34.1808 111.393 34.0177 111.682C33.8577 111.971 33.7777 112.322 33.7777 112.734ZM43.4526 109.909V110.832H39.7779V109.909H43.4526ZM40.8489 108.21H41.9384V114.969C41.9384 115.277 41.9831 115.507 42.0723 115.661C42.1646 115.812 42.2816 115.914 42.4232 115.966C42.5678 116.015 42.7202 116.04 42.8802 116.04C43.0002 116.04 43.0987 116.034 43.1756 116.021C43.2526 116.006 43.3141 115.994 43.3603 115.984L43.5819 116.963C43.508 116.991 43.4049 117.018 43.2726 117.046C43.1403 117.077 42.9725 117.092 42.7694 117.092C42.4616 117.092 42.16 117.026 41.8646 116.894C41.5722 116.761 41.3291 116.56 41.1352 116.289C40.9444 116.018 40.8489 115.677 40.8489 115.264V108.21ZM47.9883 117.148C47.3051 117.148 46.7157 116.997 46.2202 116.695C45.7278 116.391 45.3477 115.966 45.0799 115.421C44.8153 114.873 44.6829 114.236 44.6829 113.51C44.6829 112.784 44.8153 112.143 45.0799 111.589C45.3477 111.032 45.7201 110.598 46.1971 110.288C46.6772 109.974 47.2374 109.817 47.8775 109.817C48.2468 109.817 48.6115 109.878 48.9716 110.001C49.3317 110.125 49.6595 110.325 49.9549 110.602C50.2504 110.875 50.4858 111.239 50.6613 111.691C50.8367 112.143 50.9244 112.701 50.9244 113.362V113.824H45.4585V112.882H49.8165C49.8165 112.482 49.7364 112.125 49.5764 111.811C49.4194 111.497 49.1948 111.249 48.9024 111.068C48.6131 110.886 48.2715 110.795 47.8775 110.795C47.4436 110.795 47.0681 110.903 46.7511 111.119C46.4372 111.331 46.1956 111.608 46.0263 111.95C45.8571 112.291 45.7724 112.657 45.7724 113.048V113.676C45.7724 114.212 45.8647 114.666 46.0494 115.038C46.2371 115.407 46.4972 115.689 46.8296 115.883C47.162 116.074 47.5482 116.169 47.9883 116.169C48.2745 116.169 48.5331 116.129 48.7639 116.049C48.9978 115.966 49.1994 115.843 49.3687 115.68C49.5379 115.513 49.6687 115.307 49.7611 115.061L50.8136 115.357C50.7028 115.714 50.5166 116.027 50.255 116.298C49.9934 116.566 49.6703 116.775 49.2856 116.926C48.9008 117.074 48.4684 117.148 47.9883 117.148ZM52.5817 117V109.909H53.6343V110.98H53.7081C53.8374 110.629 54.0713 110.345 54.4098 110.126C54.7484 109.908 55.13 109.798 55.5547 109.798C55.6348 109.798 55.7348 109.8 55.8548 109.803C55.9748 109.806 56.0656 109.811 56.1272 109.817V110.925C56.0902 110.915 56.0056 110.902 55.8733 110.883C55.744 110.862 55.6071 110.851 55.4624 110.851C55.1177 110.851 54.8099 110.923 54.5391 111.068C54.2714 111.209 54.059 111.406 53.902 111.659C53.7482 111.908 53.6712 112.193 53.6712 112.513V117H52.5817ZM62.4414 111.497L61.4627 111.774C61.4011 111.611 61.3103 111.453 61.1903 111.299C61.0733 111.142 60.9133 111.012 60.7102 110.911C60.5071 110.809 60.247 110.759 59.93 110.759C59.496 110.759 59.1344 110.859 58.8451 111.059C58.5589 111.256 58.4158 111.506 58.4158 111.811C58.4158 112.082 58.5143 112.296 58.7112 112.453C58.9082 112.61 59.216 112.741 59.6345 112.845L60.6871 113.104C61.3211 113.258 61.7935 113.493 62.1044 113.81C62.4152 114.124 62.5706 114.529 62.5706 115.024C62.5706 115.43 62.4537 115.794 62.2198 116.114C61.9889 116.434 61.6658 116.686 61.2503 116.871C60.8348 117.055 60.3516 117.148 59.8007 117.148C59.0775 117.148 58.4789 116.991 58.0049 116.677C57.531 116.363 57.2309 115.904 57.1047 115.301L58.1388 115.043C58.2373 115.424 58.4235 115.71 58.6974 115.901C58.9744 116.092 59.336 116.188 59.7823 116.188C60.2901 116.188 60.6933 116.08 60.9918 115.864C61.2934 115.646 61.4442 115.384 61.4442 115.08C61.4442 114.833 61.358 114.627 61.1857 114.461C61.0133 114.292 60.7487 114.165 60.3916 114.082L59.2098 113.805C58.5604 113.652 58.0834 113.413 57.7787 113.09C57.4771 112.764 57.3263 112.356 57.3263 111.866C57.3263 111.466 57.4386 111.112 57.6633 110.805C57.8911 110.497 58.2004 110.255 58.5912 110.08C58.9852 109.904 59.4314 109.817 59.93 109.817C60.6317 109.817 61.1826 109.971 61.5827 110.278C61.9859 110.586 62.2721 110.992 62.4414 111.497ZM65.1709 107.545V108.376C65.1709 108.629 65.1247 108.898 65.0324 109.184C64.9431 109.467 64.8108 109.743 64.6353 110.011C64.463 110.275 64.2537 110.506 64.0075 110.703L63.4166 110.223C63.6105 109.946 63.7782 109.658 63.9198 109.36C64.0644 109.058 64.1368 108.737 64.1368 108.395V107.545H65.1709ZM67.5345 107.545V108.376C67.5345 108.629 67.4883 108.898 67.396 109.184C67.3067 109.467 67.1744 109.743 66.999 110.011C66.8266 110.275 66.6173 110.506 66.3711 110.703L65.7802 110.223C65.9741 109.946 66.1419 109.658 66.2834 109.36C66.4281 109.058 66.5004 108.737 66.5004 108.395V107.545H67.5345ZM72.818 117V109.909H73.9075V117H72.818ZM73.372 108.727C73.1597 108.727 72.9765 108.655 72.8227 108.51C72.6719 108.366 72.5965 108.192 72.5965 107.989C72.5965 107.786 72.6719 107.612 72.8227 107.467C72.9765 107.322 73.1597 107.25 73.372 107.25C73.5844 107.25 73.766 107.322 73.9168 107.467C74.0707 107.612 74.1476 107.786 74.1476 107.989C74.1476 108.192 74.0707 108.366 73.9168 108.51C73.766 108.655 73.5844 108.727 73.372 108.727ZM76.9925 112.734V117H75.903V109.909H76.9556V111.017H77.0479C77.2141 110.657 77.4665 110.368 77.805 110.149C78.1435 109.928 78.5806 109.817 79.1161 109.817C79.5962 109.817 80.0163 109.915 80.3764 110.112C80.7365 110.306 81.0165 110.602 81.2166 110.999C81.4166 111.393 81.5166 111.891 81.5166 112.494V117H80.4272V112.568C80.4272 112.011 80.2825 111.577 79.9932 111.266C79.7039 110.952 79.3069 110.795 78.8022 110.795C78.4544 110.795 78.1435 110.871 77.8696 111.022C77.5988 111.172 77.3849 111.393 77.2279 111.682C77.071 111.971 76.9925 112.322 76.9925 112.734ZM88.5302 111.497L87.5515 111.774C87.49 111.611 87.3992 111.453 87.2792 111.299C87.1622 111.142 87.0022 111.012 86.799 110.911C86.5959 110.809 86.3359 110.759 86.0189 110.759C85.5849 110.759 85.2233 110.859 84.934 111.059C84.6478 111.256 84.5047 111.506 84.5047 111.811C84.5047 112.082 84.6031 112.296 84.8001 112.453C84.9971 112.61 85.3048 112.741 85.7234 112.845L86.776 113.104C87.41 113.258 87.8824 113.493 88.1932 113.81C88.5041 114.124 88.6595 114.529 88.6595 115.024C88.6595 115.43 88.5425 115.794 88.3086 116.114C88.0778 116.434 87.7547 116.686 87.3392 116.871C86.9237 117.055 86.4405 117.148 85.8896 117.148C85.1664 117.148 84.5678 116.991 84.0938 116.677C83.6198 116.363 83.3198 115.904 83.1936 115.301L84.2277 115.043C84.3262 115.424 84.5124 115.71 84.7863 115.901C85.0633 116.092 85.4249 116.188 85.8711 116.188C86.379 116.188 86.7821 116.08 87.0807 115.864C87.3823 115.646 87.5331 115.384 87.5331 115.08C87.5331 114.833 87.4469 114.627 87.2745 114.461C87.1022 114.292 86.8375 114.165 86.4805 114.082L85.2987 113.805C84.6493 113.652 84.1723 113.413 83.8676 113.09C83.566 112.764 83.4152 112.356 83.4152 111.866C83.4152 111.466 83.5275 111.112 83.7522 110.805C83.9799 110.497 84.2892 110.255 84.6801 110.08C85.074 109.904 85.5203 109.817 86.0189 109.817C86.7206 109.817 87.2715 109.971 87.6716 110.278C88.0747 110.586 88.361 110.992 88.5302 111.497ZM93.3833 109.909V110.832H89.7086V109.909H93.3833ZM90.7796 108.21H91.8691V114.969C91.8691 115.277 91.9137 115.507 92.003 115.661C92.0953 115.812 92.2123 115.914 92.3538 115.966C92.4985 116.015 92.6508 116.04 92.8109 116.04C92.9309 116.04 93.0294 116.034 93.1063 116.021C93.1833 116.006 93.2448 115.994 93.291 115.984L93.5126 116.963C93.4387 116.991 93.3356 117.018 93.2033 117.046C93.0709 117.077 92.9032 117.092 92.7001 117.092C92.3923 117.092 92.0907 117.026 91.7952 116.894C91.5029 116.761 91.2597 116.56 91.0658 116.289C90.875 116.018 90.7796 115.677 90.7796 115.264V108.21ZM97.919 117.148C97.2358 117.148 96.6464 116.997 96.1509 116.695C95.6585 116.391 95.2784 115.966 95.0106 115.421C94.7459 114.873 94.6136 114.236 94.6136 113.51C94.6136 112.784 94.7459 112.143 95.0106 111.589C95.2784 111.032 95.6508 110.598 96.1278 110.288C96.6079 109.974 97.168 109.817 97.8082 109.817C98.1775 109.817 98.5422 109.878 98.9023 110.001C99.2624 110.125 99.5902 110.325 99.8856 110.602C100.181 110.875 100.417 111.239 100.592 111.691C100.768 112.143 100.855 112.701 100.855 113.362V113.824H95.3892V112.882H99.7471C99.7471 112.482 99.6671 112.125 99.5071 111.811C99.3501 111.497 99.1254 111.249 98.8331 111.068C98.5438 110.886 98.2021 110.795 97.8082 110.795C97.3742 110.795 96.9988 110.903 96.6818 111.119C96.3679 111.331 96.1263 111.608 95.957 111.95C95.7877 112.291 95.7031 112.657 95.7031 113.048V113.676C95.7031 114.212 95.7954 114.666 95.9801 115.038C96.1678 115.407 96.4279 115.689 96.7603 115.883C97.0926 116.074 97.4789 116.169 97.919 116.169C98.2052 116.169 98.4637 116.129 98.6946 116.049C98.9285 115.966 99.13 115.843 99.2993 115.68C99.4686 115.513 99.5994 115.307 99.6917 115.061L100.745 115.357C100.634 115.714 100.448 116.027 100.186 116.298C99.9241 116.566 99.6009 116.775 99.2162 116.926C98.8315 117.074 98.3991 117.148 97.919 117.148ZM104.599 117.166C104.15 117.166 103.742 117.082 103.376 116.912C103.01 116.74 102.719 116.492 102.504 116.169C102.288 115.843 102.18 115.449 102.18 114.987C102.18 114.581 102.26 114.252 102.42 113.999C102.58 113.744 102.794 113.544 103.062 113.399C103.33 113.254 103.625 113.147 103.949 113.076C104.275 113.002 104.603 112.944 104.932 112.901C105.363 112.845 105.712 112.804 105.98 112.776C106.251 112.745 106.448 112.694 106.571 112.624C106.697 112.553 106.76 112.43 106.76 112.254V112.217C106.76 111.762 106.635 111.408 106.386 111.156C106.14 110.903 105.766 110.777 105.264 110.777C104.744 110.777 104.336 110.891 104.041 111.119C103.745 111.346 103.538 111.589 103.418 111.848L102.384 111.479C102.568 111.048 102.814 110.712 103.122 110.472C103.433 110.229 103.772 110.06 104.138 109.964C104.507 109.866 104.87 109.817 105.227 109.817C105.455 109.817 105.717 109.844 106.012 109.9C106.311 109.952 106.598 110.061 106.875 110.228C107.155 110.394 107.388 110.645 107.572 110.98C107.757 111.316 107.849 111.765 107.849 112.328V117H106.76V116.04H106.705C106.631 116.194 106.508 116.358 106.335 116.534C106.163 116.709 105.934 116.858 105.647 116.982C105.361 117.105 105.012 117.166 104.599 117.166ZM104.766 116.188C105.196 116.188 105.56 116.103 105.855 115.934C106.154 115.764 106.378 115.546 106.529 115.278C106.683 115.01 106.76 114.729 106.76 114.433V113.436C106.714 113.491 106.612 113.542 106.455 113.588C106.301 113.632 106.123 113.67 105.92 113.704C105.72 113.735 105.524 113.762 105.333 113.787C105.146 113.808 104.993 113.827 104.876 113.842C104.593 113.879 104.329 113.939 104.082 114.022C103.839 114.102 103.642 114.224 103.491 114.387C103.344 114.547 103.27 114.766 103.27 115.043C103.27 115.421 103.41 115.707 103.69 115.901C103.973 116.092 104.332 116.188 104.766 116.188ZM112.516 117.148C111.925 117.148 111.403 116.998 110.951 116.7C110.498 116.398 110.144 115.974 109.889 115.426C109.633 114.875 109.506 114.224 109.506 113.473C109.506 112.728 109.633 112.082 109.889 111.534C110.144 110.986 110.5 110.563 110.955 110.265C111.411 109.966 111.937 109.817 112.534 109.817C112.996 109.817 113.36 109.894 113.628 110.048C113.899 110.198 114.105 110.371 114.247 110.565C114.391 110.755 114.504 110.912 114.584 111.036H114.676V107.545H115.766V117H114.713V115.911H114.584C114.504 116.04 114.39 116.203 114.242 116.4C114.094 116.594 113.884 116.768 113.61 116.922C113.336 117.072 112.971 117.148 112.516 117.148ZM112.663 116.169C113.1 116.169 113.47 116.055 113.771 115.827C114.073 115.597 114.302 115.278 114.459 114.872C114.616 114.462 114.695 113.99 114.695 113.455C114.695 112.925 114.618 112.462 114.464 112.065C114.31 111.665 114.082 111.354 113.78 111.132C113.479 110.908 113.106 110.795 112.663 110.795C112.202 110.795 111.817 110.914 111.509 111.151C111.204 111.385 110.975 111.703 110.821 112.107C110.67 112.507 110.595 112.956 110.595 113.455C110.595 113.959 110.672 114.418 110.826 114.83C110.983 115.24 111.214 115.566 111.518 115.809C111.826 116.049 112.208 116.169 112.663 116.169ZM118.706 117.074C118.478 117.074 118.283 116.992 118.12 116.829C117.957 116.666 117.875 116.471 117.875 116.243C117.875 116.015 117.957 115.82 118.12 115.657C118.283 115.493 118.478 115.412 118.706 115.412C118.934 115.412 119.129 115.493 119.293 115.657C119.456 115.82 119.537 116.015 119.537 116.243C119.537 116.394 119.499 116.532 119.422 116.658C119.348 116.785 119.248 116.886 119.122 116.963C118.999 117.037 118.86 117.074 118.706 117.074Z" fill="#E9ECEC"/>
<path fill-rule="evenodd" clip-rule="evenodd" d="M28 148H24V144H23V148H19V149H23V153H24V149H28V148Z" fill="#6E7575"/>
<path d="M37.5592 153H36.4512L39.6558 144.273H40.7467L43.9512 153H42.8433L40.2353 145.653H40.1672L37.5592 153ZM37.9683 149.591H42.4342V150.528H37.9683V149.591ZM47.6459 153.136C47.1004 153.136 46.6189 152.999 46.2012 152.723C45.7836 152.445 45.4569 152.053 45.2211 151.547C44.9853 151.038 44.8674 150.438 44.8674 149.744C44.8674 149.057 44.9853 148.46 45.2211 147.955C45.4569 147.449 45.7851 147.058 46.2055 146.783C46.626 146.507 47.1118 146.369 47.6629 146.369C48.089 146.369 48.4257 146.44 48.6728 146.582C48.9228 146.722 49.1132 146.881 49.2439 147.06C49.3774 147.236 49.4811 147.381 49.5549 147.494H49.6402V144.273H50.6459V153H49.6743V151.994H49.5549C49.4811 152.114 49.376 152.264 49.2396 152.446C49.1032 152.625 48.9086 152.786 48.6558 152.928C48.403 153.067 48.0663 153.136 47.6459 153.136ZM47.7822 152.233C48.1856 152.233 48.5265 152.128 48.8049 151.918C49.0834 151.705 49.295 151.411 49.4399 151.036C49.5848 150.658 49.6572 150.222 49.6572 149.727C49.6572 149.239 49.5862 148.811 49.4441 148.445C49.3021 148.075 49.0919 147.788 48.8135 147.584C48.5351 147.376 48.1913 147.273 47.7822 147.273C47.3561 147.273 47.001 147.382 46.7169 147.601C46.4356 147.817 46.224 148.111 46.0819 148.483C45.9427 148.852 45.8731 149.267 45.8731 149.727C45.8731 150.193 45.9441 150.616 46.0862 150.997C46.2311 151.375 46.4441 151.676 46.7254 151.901C47.0095 152.122 47.3618 152.233 47.7822 152.233ZM55.099 153.136C54.5535 153.136 54.072 152.999 53.6544 152.723C53.2368 152.445 52.9101 152.053 52.6743 151.547C52.4385 151.038 52.3206 150.438 52.3206 149.744C52.3206 149.057 52.4385 148.46 52.6743 147.955C52.9101 147.449 53.2382 147.058 53.6586 146.783C54.0791 146.507 54.5649 146.369 55.116 146.369C55.5422 146.369 55.8788 146.44 56.126 146.582C56.376 146.722 56.5663 146.881 56.697 147.06C56.8305 147.236 56.9342 147.381 57.0081 147.494H57.0933V144.273H58.099V153H57.1274V151.994H57.0081C56.9342 152.114 56.8291 152.264 56.6927 152.446C56.5564 152.625 56.3618 152.786 56.1089 152.928C55.8561 153.067 55.5194 153.136 55.099 153.136ZM55.2353 152.233C55.6387 152.233 55.9797 152.128 56.2581 151.918C56.5365 151.705 56.7481 151.411 56.893 151.036C57.0379 150.658 57.1103 150.222 57.1103 149.727C57.1103 149.239 57.0393 148.811 56.8973 148.445C56.7552 148.075 56.545 147.788 56.2666 147.584C55.9882 147.376 55.6444 147.273 55.2353 147.273C54.8092 147.273 54.4541 147.382 54.17 147.601C53.8887 147.817 53.6771 148.111 53.5351 148.483C53.3959 148.852 53.3262 149.267 53.3262 149.727C53.3262 150.193 53.3973 150.616 53.5393 150.997C53.6842 151.375 53.8973 151.676 54.1785 151.901C54.4626 152.122 54.8149 152.233 55.2353 152.233ZM66.3021 146.455V147.307H62.9101V146.455H66.3021ZM63.8987 144.886H64.9044V151.125C64.9044 151.409 64.9456 151.622 65.028 151.764C65.1132 151.903 65.2211 151.997 65.3518 152.045C65.4853 152.091 65.626 152.114 65.7737 152.114C65.8845 152.114 65.9754 152.108 66.0464 152.097C66.1174 152.082 66.1743 152.071 66.2169 152.062L66.4214 152.966C66.3532 152.991 66.2581 153.017 66.1359 153.043C66.0137 153.071 65.8589 153.085 65.6714 153.085C65.3873 153.085 65.1089 153.024 64.8362 152.902C64.5663 152.78 64.3419 152.594 64.1629 152.344C63.9868 152.094 63.8987 151.778 63.8987 151.398V144.886ZM70.4037 153.136C69.8128 153.136 69.2943 152.996 68.8483 152.714C68.4051 152.433 68.0585 152.04 67.8085 151.534C67.5613 151.028 67.4378 150.437 67.4378 149.761C67.4378 149.08 67.5613 148.484 67.8085 147.976C68.0585 147.467 68.4051 147.072 68.8483 146.791C69.2943 146.51 69.8128 146.369 70.4037 146.369C70.9946 146.369 71.5116 146.51 71.9548 146.791C72.4008 147.072 72.7474 147.467 72.9946 147.976C73.2446 148.484 73.3696 149.08 73.3696 149.761C73.3696 150.437 73.2446 151.028 72.9946 151.534C72.7474 152.04 72.4008 152.433 71.9548 152.714C71.5116 152.996 70.9946 153.136 70.4037 153.136ZM70.4037 152.233C70.8525 152.233 71.2218 152.118 71.5116 151.888C71.8014 151.658 72.0159 151.355 72.1551 150.98C72.2943 150.605 72.3639 150.199 72.3639 149.761C72.3639 149.324 72.2943 148.916 72.1551 148.538C72.0159 148.161 71.8014 147.855 71.5116 147.622C71.2218 147.389 70.8525 147.273 70.4037 147.273C69.9548 147.273 69.5855 147.389 69.2957 147.622C69.0059 147.855 68.7914 148.161 68.6522 148.538C68.513 148.916 68.4434 149.324 68.4434 149.761C68.4434 150.199 68.513 150.605 68.6522 150.98C68.7914 151.355 69.0059 151.658 69.2957 151.888C69.5855 152.118 69.9548 152.233 70.4037 152.233ZM80.7513 153.136C80.2059 153.136 79.7243 152.999 79.3067 152.723C78.8891 152.445 78.5624 152.053 78.3266 151.547C78.0908 151.038 77.9729 150.438 77.9729 149.744C77.9729 149.057 78.0908 148.46 78.3266 147.955C78.5624 147.449 78.8905 147.058 79.311 146.783C79.7314 146.507 80.2172 146.369 80.7684 146.369C81.1945 146.369 81.5312 146.44 81.7783 146.582C82.0283 146.722 82.2187 146.881 82.3493 147.06C82.4829 147.236 82.5865 147.381 82.6604 147.494H82.7456V144.273H83.7513V153H82.7797V151.994H82.6604C82.5865 152.114 82.4814 152.264 82.3451 152.446C82.2087 152.625 82.0141 152.786 81.7613 152.928C81.5084 153.067 81.1718 153.136 80.7513 153.136ZM80.8877 152.233C81.2911 152.233 81.632 152.128 81.9104 151.918C82.1888 151.705 82.4005 151.411 82.5454 151.036C82.6902 150.658 82.7627 150.222 82.7627 149.727C82.7627 149.239 82.6917 148.811 82.5496 148.445C82.4076 148.075 82.1973 147.788 81.9189 147.584C81.6405 147.376 81.2968 147.273 80.8877 147.273C80.4615 147.273 80.1064 147.382 79.8223 147.601C79.5411 147.817 79.3294 148.111 79.1874 148.483C79.0482 148.852 78.9786 149.267 78.9786 149.727C78.9786 150.193 79.0496 150.616 79.1917 150.997C79.3365 151.375 79.5496 151.676 79.8309 151.901C80.115 152.122 80.4672 152.233 80.8877 152.233ZM85.7329 153V146.455H86.7385V153H85.7329ZM86.2442 145.364C86.0482 145.364 85.8792 145.297 85.7371 145.163C85.5979 145.03 85.5283 144.869 85.5283 144.682C85.5283 144.494 85.5979 144.334 85.7371 144.2C85.8792 144.067 86.0482 144 86.2442 144C86.4402 144 86.6079 144.067 86.7471 144.2C86.8891 144.334 86.9601 144.494 86.9601 144.682C86.9601 144.869 86.8891 145.03 86.7471 145.163C86.6079 145.297 86.4402 145.364 86.2442 145.364ZM91.2396 153.136C90.626 153.136 90.0976 152.991 89.6544 152.702C89.2112 152.412 88.8703 152.013 88.6316 151.504C88.393 150.996 88.2737 150.415 88.2737 149.761C88.2737 149.097 88.3959 148.51 88.6402 148.001C88.8873 147.49 89.2311 147.091 89.6714 146.804C90.1146 146.514 90.6316 146.369 91.2226 146.369C91.6828 146.369 92.0976 146.455 92.4669 146.625C92.8362 146.795 93.1387 147.034 93.3745 147.341C93.6103 147.648 93.7566 148.006 93.8135 148.415H92.8078C92.7311 148.116 92.5606 147.852 92.2964 147.622C92.0351 147.389 91.6828 147.273 91.2396 147.273C90.8476 147.273 90.5038 147.375 90.2084 147.58C89.9157 147.781 89.687 148.067 89.5223 148.436C89.3603 148.803 89.2794 149.233 89.2794 149.727C89.2794 150.233 89.3589 150.673 89.518 151.048C89.6799 151.423 89.9072 151.714 90.1998 151.922C90.4953 152.129 90.8419 152.233 91.2396 152.233C91.501 152.233 91.7382 152.188 91.9512 152.097C92.1643 152.006 92.3447 151.875 92.4924 151.705C92.6402 151.534 92.7453 151.33 92.8078 151.091H93.8135C93.7566 151.477 93.616 151.825 93.3916 152.135C93.17 152.442 92.876 152.686 92.5095 152.868C92.1459 153.047 91.7226 153.136 91.2396 153.136ZM98.1302 146.455V147.307H94.7382V146.455H98.1302ZM95.7268 144.886H96.7325V151.125C96.7325 151.409 96.7737 151.622 96.8561 151.764C96.9413 151.903 97.0493 151.997 97.1799 152.045C97.3135 152.091 97.4541 152.114 97.6018 152.114C97.7126 152.114 97.8035 152.108 97.8745 152.097C97.9456 152.082 98.0024 152.071 98.045 152.062L98.2495 152.966C98.1814 152.991 98.0862 153.017 97.964 153.043C97.8419 153.071 97.687 153.085 97.4995 153.085C97.2155 153.085 96.937 153.024 96.6643 152.902C96.3944 152.78 96.17 152.594 95.991 152.344C95.8149 152.094 95.7268 151.778 95.7268 151.398V144.886ZM99.643 153V146.455H100.649V153H99.643ZM100.154 145.364C99.9584 145.364 99.7893 145.297 99.6473 145.163C99.5081 145.03 99.4385 144.869 99.4385 144.682C99.4385 144.494 99.5081 144.334 99.6473 144.2C99.7893 144.067 99.9584 144 100.154 144C100.35 144 100.518 144.067 100.657 144.2C100.799 144.334 100.87 144.494 100.87 144.682C100.87 144.869 100.799 145.03 100.657 145.163C100.518 145.297 100.35 145.364 100.154 145.364ZM105.15 153.136C104.559 153.136 104.04 152.996 103.594 152.714C103.151 152.433 102.805 152.04 102.555 151.534C102.308 151.028 102.184 150.437 102.184 149.761C102.184 149.08 102.308 148.484 102.555 147.976C102.805 147.467 103.151 147.072 103.594 146.791C104.04 146.51 104.559 146.369 105.15 146.369C105.741 146.369 106.258 146.51 106.701 146.791C107.147 147.072 107.494 147.467 107.741 147.976C107.991 148.484 108.116 149.08 108.116 149.761C108.116 150.437 107.991 151.028 107.741 151.534C107.494 152.04 107.147 152.433 106.701 152.714C106.258 152.996 105.741 153.136 105.15 153.136ZM105.15 152.233C105.599 152.233 105.968 152.118 106.258 151.888C106.548 151.658 106.762 151.355 106.901 150.98C107.04 150.605 107.11 150.199 107.11 149.761C107.11 149.324 107.04 148.916 106.901 148.538C106.762 148.161 106.548 147.855 106.258 147.622C105.968 147.389 105.599 147.273 105.15 147.273C104.701 147.273 104.332 147.389 104.042 147.622C103.752 147.855 103.538 148.161 103.398 148.538C103.259 148.916 103.19 149.324 103.19 149.761C103.19 150.199 103.259 150.605 103.398 150.98C103.538 151.355 103.752 151.658 104.042 151.888C104.332 152.118 104.701 152.233 105.15 152.233ZM110.657 149.062V153H109.651V146.455H110.623V147.477H110.708C110.861 147.145 111.094 146.878 111.407 146.676C111.719 146.472 112.123 146.369 112.617 146.369C113.06 146.369 113.448 146.46 113.78 146.642C114.113 146.821 114.371 147.094 114.556 147.46C114.74 147.824 114.833 148.284 114.833 148.841V153H113.827V148.909C113.827 148.395 113.694 147.994 113.426 147.707C113.159 147.418 112.793 147.273 112.327 147.273C112.006 147.273 111.719 147.342 111.466 147.482C111.216 147.621 111.019 147.824 110.874 148.091C110.729 148.358 110.657 148.682 110.657 149.062ZM118.597 153.153C118.182 153.153 117.805 153.075 117.467 152.919C117.129 152.76 116.861 152.531 116.662 152.233C116.463 151.932 116.364 151.568 116.364 151.142C116.364 150.767 116.438 150.463 116.585 150.23C116.733 149.994 116.93 149.81 117.178 149.676C117.425 149.543 117.697 149.443 117.996 149.378C118.297 149.31 118.599 149.256 118.903 149.216C119.301 149.165 119.624 149.126 119.871 149.101C120.121 149.072 120.303 149.026 120.416 148.96C120.533 148.895 120.591 148.781 120.591 148.619V148.585C120.591 148.165 120.476 147.838 120.246 147.605C120.018 147.372 119.673 147.256 119.21 147.256C118.73 147.256 118.354 147.361 118.081 147.571C117.808 147.781 117.616 148.006 117.506 148.244L116.551 147.903C116.722 147.506 116.949 147.196 117.233 146.974C117.52 146.75 117.832 146.594 118.17 146.506C118.511 146.415 118.847 146.369 119.176 146.369C119.386 146.369 119.628 146.395 119.901 146.446C120.176 146.494 120.442 146.595 120.697 146.749C120.956 146.902 121.17 147.134 121.341 147.443C121.511 147.753 121.597 148.168 121.597 148.688V153H120.591V152.114H120.54C120.472 152.256 120.358 152.408 120.199 152.57C120.04 152.732 119.828 152.869 119.564 152.983C119.3 153.097 118.977 153.153 118.597 153.153ZM118.75 152.25C119.148 152.25 119.483 152.172 119.756 152.016C120.031 151.859 120.239 151.658 120.378 151.411C120.52 151.163 120.591 150.903 120.591 150.631V149.71C120.548 149.761 120.455 149.808 120.31 149.851C120.168 149.891 120.003 149.926 119.815 149.957C119.631 149.986 119.45 150.011 119.274 150.034C119.101 150.054 118.96 150.071 118.852 150.085C118.591 150.119 118.347 150.175 118.119 150.251C117.895 150.325 117.713 150.437 117.574 150.588C117.438 150.736 117.369 150.937 117.369 151.193C117.369 151.543 117.499 151.807 117.757 151.986C118.018 152.162 118.349 152.25 118.75 152.25ZM123.432 153V146.455H124.404V147.443H124.472C124.591 147.119 124.807 146.857 125.12 146.655C125.432 146.453 125.784 146.352 126.176 146.352C126.25 146.352 126.343 146.354 126.453 146.357C126.564 146.359 126.648 146.364 126.705 146.369V147.392C126.671 147.384 126.593 147.371 126.471 147.354C126.351 147.334 126.225 147.324 126.091 147.324C125.773 147.324 125.489 147.391 125.239 147.524C124.992 147.655 124.796 147.837 124.651 148.07C124.509 148.3 124.438 148.562 124.438 148.858V153H123.432ZM128.744 155.455C128.574 155.455 128.422 155.44 128.288 155.412C128.154 155.386 128.062 155.361 128.011 155.335L128.267 154.449C128.511 154.511 128.727 154.534 128.914 154.517C129.102 154.5 129.268 154.416 129.413 154.266C129.561 154.118 129.696 153.878 129.818 153.545L130.005 153.034L127.585 146.455H128.676L130.483 151.67H130.551L132.358 146.455H133.449L130.67 153.955C130.545 154.293 130.39 154.572 130.206 154.794C130.021 155.018 129.806 155.185 129.562 155.293C129.321 155.401 129.048 155.455 128.744 155.455Z" fill="#A7B0B4"/>
<path opacity="0.8" fill-rule="evenodd" clip-rule="evenodd" d="M365 141H359V143H356V144H357V156H367V144H368V143H365V141ZM360 142H364V143H360V142ZM358 155H366V144H358V155ZM360 146H361V153H360V146ZM364 146H363V153H364V146Z" fill="#A7B0B4"/>
<path d="M380 0.5H6C2.96243 0.5 0.5 2.96243 0.5 6V167C0.5 170.038 2.96243 172.5 6 172.5H380C383.038 172.5 385.5 170.038 385.5 167V6C385.5 2.96243 383.038 0.5 380 0.5Z" stroke="#41474A"/>
</svg>
