<svg width="442" height="158" viewBox="0 0 442 158" fill="none" xmlns="http://www.w3.org/2000/svg">
<g filter="url(#filter0_dddddd_3_1073)">
<g clip-path="url(#clip0_3_1073)">
<path d="M48.9616 4.06016C48.9616 2.16135 50.5009 0.622055 52.3997 0.622055H389.334C391.233 0.622055 392.772 2.16135 392.772 4.06016V47.6095H48.9616V4.06016Z" fill="white"/>
<path fill-rule="evenodd" clip-rule="evenodd" d="M68.4352 16.1025C68.4352 16.7405 68.9524 17.2576 69.5903 17.2576C70.2282 17.2576 70.7453 16.7405 70.7453 16.1025C70.7453 15.4646 70.2282 14.9475 69.5903 14.9475C68.9524 14.9475 68.4352 15.4646 68.4352 16.1025ZM66.6665 17.7991C66.0286 17.7991 65.5114 17.2819 65.5114 16.644C65.5114 16.0061 66.0286 15.4889 66.6665 15.4889C67.3044 15.4889 67.8216 16.0061 67.8216 16.644C67.8216 17.2819 67.3044 17.7991 66.6665 17.7991ZM62.9848 18.1961C62.9848 18.834 63.502 19.3512 64.1399 19.3512C64.7778 19.3512 65.2949 18.834 65.2949 18.1961C65.2949 17.5582 64.7778 17.041 64.1399 17.041C63.502 17.041 62.9848 17.5582 62.9848 18.1961ZM69.5903 20.7228C68.9524 20.7228 68.4352 20.2056 68.4352 19.5677C68.4352 18.9298 68.9524 18.4127 69.5903 18.4127C70.2282 18.4127 70.7453 18.9298 70.7453 19.5677C70.7453 20.2056 70.2282 20.7228 69.5903 20.7228ZM65.4753 20.6506C65.4753 21.2886 65.9925 21.8057 66.6304 21.8057C67.2683 21.8057 67.7854 21.2886 67.7854 20.6506C67.7854 20.0127 67.2683 19.4956 66.6304 19.4956C65.9925 19.4956 65.4753 20.0127 65.4753 20.6506ZM65.0422 24.5489C64.4043 24.5489 63.8871 24.0318 63.8871 23.3939C63.8871 22.756 64.4043 22.2388 65.0422 22.2388C65.6801 22.2388 66.1973 22.756 66.1973 23.3939C66.1973 24.0318 65.6801 24.5489 65.0422 24.5489ZM65.5837 27.6531C64.9458 27.6531 64.4286 27.136 64.4286 26.4981C64.4286 25.8602 64.9458 25.343 65.5837 25.343C66.2216 25.343 66.7387 25.8602 66.7387 26.4981C66.7387 27.136 66.2216 27.6531 65.5837 27.6531ZM71.395 20.6506C71.395 21.2886 71.9122 21.8057 72.5501 21.8057C73.188 21.8057 73.7052 21.2886 73.7052 20.6506C73.7052 20.0127 73.188 19.4956 72.5501 19.4956C71.9122 19.4956 71.395 20.0127 71.395 20.6506ZM74.1383 24.5489C73.5004 24.5489 72.9833 24.0318 72.9833 23.3939C72.9833 22.756 73.5004 22.2388 74.1383 22.2388C74.7762 22.2388 75.2934 22.756 75.2934 23.3939C75.2934 24.0318 74.7762 24.5489 74.1383 24.5489ZM72.4418 26.4981C72.4418 27.136 72.9589 27.6531 73.5968 27.6531C74.2348 27.6531 74.7519 27.136 74.7519 26.4981C74.7519 25.8602 74.2348 25.343 73.5968 25.343C72.9589 25.343 72.4418 25.8602 72.4418 26.4981ZM71.1785 29.6745C70.5405 29.6745 70.0234 29.1574 70.0234 28.5195C70.0234 27.8815 70.5405 27.3644 71.1785 27.3644C71.8164 27.3644 72.3335 27.8815 72.3335 28.5195C72.3335 29.1574 71.8164 29.6745 71.1785 29.6745ZM66.847 28.5195C66.847 29.1574 67.3641 29.6745 68.0021 29.6745C68.64 29.6745 69.1571 29.1574 69.1571 28.5195C69.1571 27.8815 68.64 27.3644 68.0021 27.3644C67.3641 27.3644 66.847 27.8815 66.847 28.5195ZM71.0702 33.2841C70.4323 33.2841 69.9152 32.767 69.9152 32.129C69.9152 31.4911 70.4323 30.974 71.0702 30.974C71.7082 30.974 72.2253 31.4911 72.2253 32.129C72.2253 32.767 71.7082 33.2841 71.0702 33.2841ZM66.9553 32.129C66.9553 32.767 67.4724 33.2841 68.1103 33.2841C68.7483 33.2841 69.2654 32.767 69.2654 32.129C69.2654 31.4911 68.7483 30.974 68.1103 30.974C67.4724 30.974 66.9553 31.4911 66.9553 32.129ZM65.331 32.2012C64.6931 32.2012 64.1759 31.6841 64.1759 31.0461C64.1759 30.4082 64.6931 29.8911 65.331 29.8911C65.9689 29.8911 66.486 30.4082 66.486 31.0461C66.486 31.6841 65.9689 32.2012 65.331 32.2012ZM61.9741 29.0609C61.9741 29.6988 62.4912 30.216 63.1291 30.216C63.7671 30.216 64.2842 29.6988 64.2842 29.0609C64.2842 28.423 63.7671 27.9059 63.1291 27.9059C62.4912 27.9059 61.9741 28.423 61.9741 29.0609ZM61.8297 27.5449C61.1918 27.5449 60.6746 27.0277 60.6746 26.3898C60.6746 25.7519 61.1918 25.2347 61.8297 25.2347C62.4676 25.2347 62.9847 25.7519 62.9847 26.3898C62.9847 27.0277 62.4676 27.5449 61.8297 27.5449ZM60.422 23.43C60.422 24.0679 60.9391 24.5851 61.577 24.5851C62.215 24.5851 62.7321 24.0679 62.7321 23.43C62.7321 22.7921 62.215 22.2749 61.577 22.2749C60.9391 22.2749 60.422 22.7921 60.422 23.43ZM62.3351 21.7335C61.6971 21.7335 61.18 21.2164 61.18 20.5784C61.18 19.9405 61.6971 19.4234 62.3351 19.4234C62.973 19.4234 63.4901 19.9405 63.4901 20.5784C63.4901 21.2164 62.973 21.7335 62.3351 21.7335ZM72.514 17.7991C71.8761 17.7991 71.359 17.2819 71.359 16.644C71.359 16.0061 71.8761 15.4889 72.514 15.4889C73.152 15.4889 73.6691 16.0061 73.6691 16.644C73.6691 17.2819 73.152 17.7991 72.514 17.7991ZM73.8857 18.1961C73.8857 18.834 74.4028 19.3512 75.0407 19.3512C75.6787 19.3512 76.1958 18.834 76.1958 18.1961C76.1958 17.5582 75.6787 17.041 75.0407 17.041C74.4028 17.041 73.8857 17.5582 73.8857 18.1961ZM76.8094 21.7335C76.1715 21.7335 75.6543 21.2164 75.6543 20.5784C75.6543 19.9405 76.1715 19.4234 76.8094 19.4234C77.4473 19.4234 77.9645 19.9405 77.9645 20.5784C77.9645 21.2164 77.4473 21.7335 76.8094 21.7335ZM76.4484 23.43C76.4484 24.0679 76.9656 24.5851 77.6035 24.5851C78.2414 24.5851 78.7586 24.0679 78.7586 23.43C78.7586 22.7921 78.2414 22.2749 77.6035 22.2749C76.9656 22.2749 76.4484 22.7921 76.4484 23.43ZM77.3508 27.5449C76.7129 27.5449 76.1958 27.0277 76.1958 26.3898C76.1958 25.7519 76.7129 25.2347 77.3508 25.2347C77.9888 25.2347 78.5059 25.7519 78.5059 26.3898C78.5059 27.0277 77.9888 27.5449 77.3508 27.5449ZM74.8963 29.0609C74.8963 29.6988 75.4135 30.216 76.0514 30.216C76.6893 30.216 77.2064 29.6988 77.2064 29.0609C77.2064 28.423 76.6893 27.9059 76.0514 27.9059C75.4135 27.9059 74.8963 28.423 74.8963 29.0609ZM73.8496 32.2012C73.2116 32.2012 72.6945 31.6841 72.6945 31.0461C72.6945 30.4082 73.2116 29.8911 73.8496 29.8911C74.4875 29.8911 75.0046 30.4082 75.0046 31.0461C75.0046 31.6841 74.4875 32.2012 73.8496 32.2012Z" fill="#0C74DF"/>
<path d="M97.1488 24.0316C97.1488 25.0314 96.9593 25.882 96.5803 26.5834C96.2042 27.2847 95.6909 27.8204 95.0403 28.1905C94.3927 28.5576 93.6645 28.7411 92.8557 28.7411C92.0409 28.7411 91.3097 28.5561 90.6621 28.186C90.0145 27.8159 89.5026 27.2802 89.1266 26.5789C88.7505 25.8775 88.5625 25.0285 88.5625 24.0316C88.5625 23.0318 88.7505 22.1813 89.1266 21.4799C89.5026 20.7786 90.0145 20.2444 90.6621 19.8773C91.3097 19.5072 92.0409 19.3221 92.8557 19.3221C93.6645 19.3221 94.3927 19.5072 95.0403 19.8773C95.6909 20.2444 96.2042 20.7786 96.5803 21.4799C96.9593 22.1813 97.1488 23.0318 97.1488 24.0316ZM95.1836 24.0316C95.1836 23.384 95.0866 22.8379 94.8926 22.3932C94.7016 21.9485 94.4315 21.6112 94.0823 21.3814C93.7331 21.1516 93.3242 21.0367 92.8557 21.0367C92.3871 21.0367 91.9782 21.1516 91.6291 21.3814C91.2799 21.6112 91.0083 21.9485 90.8143 22.3932C90.6233 22.8379 90.5278 23.384 90.5278 24.0316C90.5278 24.6793 90.6233 25.2254 90.8143 25.6701C91.0083 26.1148 91.2799 26.452 91.6291 26.6818C91.9782 26.9117 92.3871 27.0266 92.8557 27.0266C93.3242 27.0266 93.7331 26.9117 94.0823 26.6818C94.4315 26.452 94.7016 26.1148 94.8926 25.6701C95.0866 25.2254 95.1836 24.6793 95.1836 24.0316ZM100.456 24.6405V28.6158H98.5489V21.7396H100.366V22.9528H100.447C100.599 22.5528 100.854 22.2365 101.213 22.0037C101.571 21.7679 102.005 21.65 102.515 21.65C102.993 21.65 103.409 21.7545 103.764 21.9634C104.119 22.1723 104.395 22.4708 104.592 22.8587C104.789 23.2437 104.888 23.7033 104.888 24.2376V28.6158H102.981V24.5778C102.984 24.157 102.876 23.8287 102.659 23.5929C102.441 23.3542 102.141 23.2348 101.759 23.2348C101.502 23.2348 101.275 23.29 101.078 23.4004C100.884 23.5109 100.732 23.672 100.622 23.8839C100.514 24.0928 100.459 24.345 100.456 24.6405ZM109.525 28.7501C108.817 28.7501 108.209 28.6068 107.698 28.3203C107.191 28.0308 106.8 27.622 106.525 27.0937C106.251 26.5625 106.113 25.9342 106.113 25.209C106.113 24.5017 106.251 23.8809 106.525 23.3467C106.8 22.8125 107.186 22.3962 107.685 22.0977C108.186 21.7993 108.774 21.65 109.449 21.65C109.902 21.65 110.325 21.7232 110.715 21.8694C111.109 22.0126 111.453 22.229 111.745 22.5185C112.041 22.808 112.27 23.1721 112.435 23.6108C112.599 24.0466 112.681 24.5569 112.681 25.1419V25.6656H106.874V24.4838H110.886C110.886 24.2092 110.826 23.966 110.707 23.7541C110.587 23.5422 110.422 23.3765 110.21 23.2572C110.001 23.1348 109.757 23.0736 109.48 23.0736C109.19 23.0736 108.934 23.1408 108.71 23.2751C108.489 23.4064 108.316 23.584 108.191 23.8078C108.065 24.0287 108.001 24.2749 107.998 24.5465V25.6701C107.998 26.0103 108.061 26.3043 108.186 26.552C108.314 26.7997 108.495 26.9907 108.728 27.125C108.961 27.2593 109.237 27.3265 109.556 27.3265C109.768 27.3265 109.962 27.2966 110.138 27.237C110.314 27.1773 110.465 27.0877 110.59 26.9684C110.715 26.849 110.811 26.7027 110.877 26.5296L112.64 26.646C112.551 27.0698 112.367 27.4399 112.09 27.7563C111.815 28.0696 111.46 28.3144 111.024 28.4904C110.592 28.6635 110.092 28.7501 109.525 28.7501ZM124.968 22.6573H123.007C122.972 22.4036 122.898 22.1783 122.788 21.9813C122.678 21.7814 122.536 21.6112 122.363 21.471C122.19 21.3307 121.99 21.2233 121.763 21.1486C121.539 21.074 121.296 21.0367 121.033 21.0367C120.559 21.0367 120.145 21.1546 119.793 21.3904C119.441 21.6232 119.168 21.9634 118.974 22.4111C118.78 22.8558 118.683 23.3959 118.683 24.0316C118.683 24.6852 118.78 25.2344 118.974 25.6791C119.171 26.1238 119.445 26.4595 119.798 26.6863C120.15 26.9131 120.557 27.0266 121.02 27.0266C121.279 27.0266 121.52 26.9922 121.74 26.9236C121.964 26.8549 122.163 26.755 122.336 26.6237C122.509 26.4893 122.652 26.3267 122.766 26.1357C122.882 25.9447 122.963 25.7268 123.007 25.4821L124.968 25.491C124.917 25.9119 124.791 26.3177 124.588 26.7087C124.388 27.0967 124.118 27.4444 123.777 27.7518C123.44 28.0562 123.037 28.2979 122.569 28.477C122.103 28.6531 121.576 28.7411 120.988 28.7411C120.171 28.7411 119.439 28.5561 118.795 28.186C118.153 27.8159 117.646 27.2802 117.273 26.5789C116.903 25.8775 116.718 25.0285 116.718 24.0316C116.718 23.0318 116.906 22.1813 117.282 21.4799C117.658 20.7786 118.168 20.2444 118.813 19.8773C119.457 19.5072 120.183 19.3221 120.988 19.3221C121.52 19.3221 122.012 19.3968 122.466 19.546C122.922 19.6952 123.327 19.9131 123.679 20.1996C124.031 20.4831 124.318 20.8308 124.538 21.2427C124.762 21.6545 124.905 22.1261 124.968 22.6573ZM129.429 28.7501C128.734 28.7501 128.132 28.6024 127.625 28.3069C127.121 28.0084 126.731 27.5936 126.457 27.0624C126.182 26.5281 126.045 25.9089 126.045 25.2045C126.045 24.4942 126.182 23.8735 126.457 23.3422C126.731 22.808 127.121 22.3932 127.625 22.0977C128.132 21.7993 128.734 21.65 129.429 21.65C130.125 21.65 130.724 21.7993 131.229 22.0977C131.736 22.3932 132.127 22.808 132.402 23.3422C132.676 23.8735 132.814 24.4942 132.814 25.2045C132.814 25.9089 132.676 26.5281 132.402 27.0624C132.127 27.5936 131.736 28.0084 131.229 28.3069C130.724 28.6024 130.125 28.7501 129.429 28.7501ZM129.438 27.2728C129.755 27.2728 130.019 27.1832 130.231 27.0042C130.442 26.8221 130.602 26.5744 130.71 26.261C130.82 25.9477 130.875 25.591 130.875 25.1911C130.875 24.7912 130.82 24.4345 130.71 24.1212C130.602 23.8078 130.442 23.5601 130.231 23.378C130.019 23.196 129.755 23.105 129.438 23.105C129.119 23.105 128.85 23.196 128.632 23.378C128.417 23.5601 128.255 23.8078 128.144 24.1212C128.037 24.4345 127.983 24.7912 127.983 25.1911C127.983 25.591 128.037 25.9477 128.144 26.261C128.255 26.5744 128.417 26.8221 128.632 27.0042C128.85 27.1832 129.119 27.2728 129.438 27.2728ZM134.054 28.6158V21.7396H135.903V22.9393H135.974C136.099 22.5125 136.31 22.1902 136.605 21.9724C136.901 21.7515 137.241 21.6411 137.626 21.6411C137.722 21.6411 137.825 21.6471 137.935 21.659C138.045 21.6709 138.142 21.6873 138.226 21.7082V23.4004C138.136 23.3736 138.013 23.3497 137.854 23.3288C137.696 23.3079 137.551 23.2975 137.42 23.2975C137.14 23.2975 136.889 23.3586 136.668 23.481C136.45 23.6004 136.277 23.7675 136.149 23.9824C136.023 24.1973 135.961 24.445 135.961 24.7255V28.6158H134.054ZM142.026 28.7501C141.318 28.7501 140.709 28.6068 140.199 28.3203C139.692 28.0308 139.301 27.622 139.026 27.0937C138.752 26.5625 138.614 25.9342 138.614 25.209C138.614 24.5017 138.752 23.8809 139.026 23.3467C139.301 22.8125 139.687 22.3962 140.186 22.0977C140.687 21.7993 141.275 21.65 141.949 21.65C142.403 21.65 142.825 21.7232 143.216 21.8694C143.61 22.0126 143.953 22.229 144.246 22.5185C144.541 22.808 144.771 23.1721 144.935 23.6108C145.1 24.0466 145.182 24.5569 145.182 25.1419V25.6656H139.375V24.4838H143.386C143.386 24.2092 143.327 23.966 143.207 23.7541C143.088 23.5422 142.922 23.3765 142.71 23.2572C142.502 23.1348 142.258 23.0736 141.981 23.0736C141.691 23.0736 141.435 23.1408 141.211 23.2751C140.99 23.4064 140.817 23.584 140.691 23.8078C140.566 24.0287 140.502 24.2749 140.499 24.5465V25.6701C140.499 26.0103 140.562 26.3043 140.687 26.552C140.815 26.7997 140.996 26.9907 141.229 27.125C141.461 27.2593 141.738 27.3265 142.057 27.3265C142.269 27.3265 142.463 27.2966 142.639 27.237C142.815 27.1773 142.966 27.0877 143.091 26.9684C143.216 26.849 143.312 26.7027 143.377 26.5296L145.141 26.646C145.052 27.0698 144.868 27.4399 144.591 27.7563C144.316 28.0696 143.961 28.3144 143.525 28.4904C143.092 28.6635 142.593 28.7501 142.026 28.7501ZM149.03 21.0457V19.4475H156.56V21.0457H153.753V28.6158H151.837V21.0457H149.03ZM159.874 28.7501C159.179 28.7501 158.577 28.6024 158.07 28.3069C157.566 28.0084 157.176 27.5936 156.902 27.0624C156.627 26.5281 156.49 25.9089 156.49 25.2045C156.49 24.4942 156.627 23.8735 156.902 23.3422C157.176 22.808 157.566 22.3932 158.07 22.0977C158.577 21.7993 159.179 21.65 159.874 21.65C160.57 21.65 161.169 21.7993 161.674 22.0977C162.181 22.3932 162.572 22.808 162.847 23.3422C163.121 23.8735 163.259 24.4942 163.259 25.2045C163.259 25.9089 163.121 26.5281 162.847 27.0624C162.572 27.5936 162.181 28.0084 161.674 28.3069C161.169 28.6024 160.57 28.7501 159.874 28.7501ZM159.883 27.2728C160.199 27.2728 160.464 27.1832 160.675 27.0042C160.887 26.8221 161.047 26.5744 161.154 26.261C161.265 25.9477 161.32 25.591 161.32 25.1911C161.32 24.7912 161.265 24.4345 161.154 24.1212C161.047 23.8078 160.887 23.5601 160.675 23.378C160.464 23.196 160.199 23.105 159.883 23.105C159.564 23.105 159.295 23.196 159.077 23.378C158.862 23.5601 158.7 23.8078 158.589 24.1212C158.482 24.4345 158.428 24.7912 158.428 25.1911C158.428 25.591 158.482 25.9477 158.589 26.261C158.7 26.5744 158.862 26.8221 159.077 27.0042C159.295 27.1832 159.564 27.2728 159.883 27.2728ZM167.605 28.7501C166.91 28.7501 166.309 28.6024 165.801 28.3069C165.297 28.0084 164.907 27.5936 164.633 27.0624C164.358 26.5281 164.221 25.9089 164.221 25.2045C164.221 24.4942 164.358 23.8735 164.633 23.3422C164.907 22.808 165.297 22.3932 165.801 22.0977C166.309 21.7993 166.91 21.65 167.605 21.65C168.301 21.65 168.901 21.7993 169.405 22.0977C169.912 22.3932 170.303 22.808 170.578 23.3422C170.853 23.8735 170.99 24.4942 170.99 25.2045C170.99 25.9089 170.853 26.5281 170.578 27.0624C170.303 27.5936 169.912 28.0084 169.405 28.3069C168.901 28.6024 168.301 28.7501 167.605 28.7501ZM167.614 27.2728C167.931 27.2728 168.195 27.1832 168.407 27.0042C168.619 26.8221 168.778 26.5744 168.886 26.261C168.996 25.9477 169.051 25.591 169.051 25.1911C169.051 24.7912 168.996 24.4345 168.886 24.1212C168.778 23.8078 168.619 23.5601 168.407 23.378C168.195 23.196 167.931 23.105 167.614 23.105C167.295 23.105 167.026 23.196 166.809 23.378C166.594 23.5601 166.431 23.8078 166.321 24.1212C166.213 24.4345 166.159 24.7912 166.159 25.1911C166.159 25.591 166.213 25.9477 166.321 26.261C166.431 26.5744 166.594 26.8221 166.809 27.0042C167.026 27.1832 167.295 27.2728 167.614 27.2728ZM174.137 19.4475V28.6158H172.23V19.4475H174.137ZM175.7 28.6158V19.4475H177.607V22.8946H177.666C177.749 22.7095 177.87 22.5215 178.028 22.3305C178.189 22.1365 178.398 21.9753 178.655 21.847C178.915 21.7157 179.237 21.65 179.622 21.65C180.123 21.65 180.586 21.7814 181.01 22.044C181.434 22.3036 181.772 22.6961 182.026 23.2214C182.28 23.7436 182.407 24.3987 182.407 25.1866C182.407 25.9536 182.283 26.6013 182.035 27.1295C181.79 27.6548 181.456 28.0532 181.032 28.3248C180.611 28.5934 180.14 28.7277 179.618 28.7277C179.247 28.7277 178.933 28.6665 178.673 28.5442C178.416 28.4218 178.206 28.2681 178.042 28.0831C177.878 27.895 177.752 27.7055 177.666 27.5145H177.581V28.6158H175.7ZM177.567 25.1777C177.567 25.5865 177.624 25.9432 177.737 26.2476C177.851 26.552 178.015 26.7893 178.23 26.9594C178.445 27.1265 178.706 27.2101 179.013 27.2101C179.324 27.2101 179.586 27.125 179.801 26.9549C180.016 26.7818 180.179 26.5431 180.289 26.2387C180.402 25.9313 180.459 25.5776 180.459 25.1777C180.459 24.7807 180.404 24.4316 180.293 24.1301C180.183 23.8287 180.02 23.5929 179.806 23.4228C179.591 23.2527 179.327 23.1676 179.013 23.1676C178.703 23.1676 178.44 23.2497 178.225 23.4139C178.013 23.578 177.851 23.8108 177.737 24.1122C177.624 24.4137 177.567 24.7688 177.567 25.1777ZM186.786 28.7501C186.09 28.7501 185.489 28.6024 184.982 28.3069C184.477 28.0084 184.088 27.5936 183.813 27.0624C183.539 26.5281 183.401 25.9089 183.401 25.2045C183.401 24.4942 183.539 23.8735 183.813 23.3422C184.088 22.808 184.477 22.3932 184.982 22.0977C185.489 21.7993 186.09 21.65 186.786 21.65C187.481 21.65 188.081 21.7993 188.585 22.0977C189.093 22.3932 189.484 22.808 189.758 23.3422C190.033 23.8735 190.17 24.4942 190.17 25.2045C190.17 25.9089 190.033 26.5281 189.758 27.0624C189.484 27.5936 189.093 28.0084 188.585 28.3069C188.081 28.6024 187.481 28.7501 186.786 28.7501ZM186.795 27.2728C187.111 27.2728 187.375 27.1832 187.587 27.0042C187.799 26.8221 187.959 26.5744 188.066 26.261C188.177 25.9477 188.232 25.591 188.232 25.1911C188.232 24.7912 188.177 24.4345 188.066 24.1212C187.959 23.8078 187.799 23.5601 187.587 23.378C187.375 23.196 187.111 23.105 186.795 23.105C186.475 23.105 186.207 23.196 185.989 23.378C185.774 23.5601 185.611 23.8078 185.501 24.1212C185.394 24.4345 185.34 24.7912 185.34 25.1911C185.34 25.591 185.394 25.9477 185.501 26.261C185.611 26.5744 185.774 26.8221 185.989 27.0042C186.207 27.1832 186.475 27.2728 186.795 27.2728ZM192.758 21.7396L194.02 24.1436L195.314 21.7396H197.27L195.278 25.1777L197.324 28.6158H195.377L194.02 26.2387L192.686 28.6158H190.716L192.758 25.1777L190.788 21.7396H192.758Z" fill="#293338"/>
<path fill-rule="evenodd" clip-rule="evenodd" d="M363.484 17.6328L362.674 18.4432L368.346 24.1158L362.674 29.7884L363.484 30.5987L369.156 24.9262L374.829 30.5987L375.639 29.7884L369.967 24.1158L375.639 18.4432L374.829 17.6328L369.156 23.3054L363.484 17.6328Z" fill="#293338"/>
<line x1="48.9616" y1="47.0365" x2="392.772" y2="47.0365" stroke="#E7E9EA" stroke-width="1.14604"/>
<rect width="343.811" height="347.658" transform="translate(48.9616 47.6095)" fill="white"/>
<rect x="75.8935" y="75.6874" width="289.947" height="87.235" rx="2.86509" fill="white"/>
<rect x="93.657" y="99.8223" width="38.9652" height="38.9652" rx="11.4604" fill="#F6FAFD"/>
<circle cx="112.567" cy="118.732" r="10.8873" stroke="#0C74DF" stroke-width="2.29207"/>
<mask id="path-10-inside-1_3_1073" fill="white">
<path fill-rule="evenodd" clip-rule="evenodd" d="M109.673 122.428L107.242 119.997C107.018 119.773 107.018 119.41 107.242 119.186L108.052 118.376C108.276 118.152 108.639 118.152 108.862 118.376L110.888 120.402L116.854 114.436C117.078 114.212 117.441 114.212 117.664 114.436L118.475 115.246C118.699 115.47 118.699 115.833 118.475 116.057L111.293 123.238C111.07 123.462 110.707 123.462 110.483 123.238L110.483 123.238L109.673 122.428Z"/>
</mask>
<path fill-rule="evenodd" clip-rule="evenodd" d="M109.673 122.428L107.242 119.997C107.018 119.773 107.018 119.41 107.242 119.186L108.052 118.376C108.276 118.152 108.639 118.152 108.862 118.376L110.888 120.402L116.854 114.436C117.078 114.212 117.441 114.212 117.664 114.436L118.475 115.246C118.699 115.47 118.699 115.833 118.475 116.057L111.293 123.238C111.07 123.462 110.707 123.462 110.483 123.238L110.483 123.238L109.673 122.428Z" fill="#0C74DF"/>
<path d="M109.673 122.428L108.862 123.238L109.673 122.428ZM107.242 119.997L108.052 119.186L107.242 119.997ZM107.242 119.186L108.052 119.997L107.242 119.186ZM108.052 118.376L107.242 117.565L108.052 118.376ZM110.888 120.402L110.078 121.212L110.888 122.022L111.699 121.212L110.888 120.402ZM116.854 114.436L117.664 115.246L116.854 114.436ZM118.475 116.057L117.664 115.246L118.475 116.057ZM111.293 123.238L112.104 124.048L111.293 123.238ZM110.483 123.238L109.673 124.048L110.483 123.238ZM110.483 123.238L111.293 122.428L110.483 123.238ZM110.483 121.617L108.052 119.186L106.431 120.807L108.862 123.238L110.483 121.617ZM108.052 119.186C108.276 119.41 108.276 119.773 108.052 119.997L106.431 118.376C105.76 119.047 105.76 120.136 106.431 120.807L108.052 119.186ZM108.052 119.997L108.862 119.186L107.242 117.565L106.431 118.376L108.052 119.997ZM108.862 119.186C108.639 119.41 108.276 119.41 108.052 119.186L109.673 117.565C109.001 116.894 107.913 116.894 107.242 117.565L108.862 119.186ZM108.052 119.186L110.078 121.212L111.699 119.591L109.673 117.565L108.052 119.186ZM111.699 121.212L117.664 115.246L116.044 113.626L110.078 119.591L111.699 121.212ZM117.664 115.246C117.441 115.47 117.078 115.47 116.854 115.246L118.475 113.626C117.803 112.954 116.715 112.954 116.044 113.626L117.664 115.246ZM116.854 115.246L117.664 116.057L119.285 114.436L118.475 113.626L116.854 115.246ZM117.664 116.057C117.441 115.833 117.441 115.47 117.664 115.246L119.285 116.867C119.956 116.196 119.956 115.107 119.285 114.436L117.664 116.057ZM117.664 115.246L110.483 122.428L112.104 124.048L119.285 116.867L117.664 115.246ZM110.483 122.428C110.707 122.204 111.07 122.204 111.293 122.428L109.673 124.048C110.344 124.72 111.432 124.72 112.104 124.048L110.483 122.428ZM111.293 122.428L111.293 122.428L109.673 124.048L109.673 124.048L111.293 122.428ZM111.293 122.428L110.483 121.617L108.862 123.238L109.673 124.048L111.293 122.428Z" fill="#0C74DF" mask="url(#path-10-inside-1_3_1073)"/>
<path d="M153.772 106.159H149.818V94.4901H153.852C155.01 94.4901 156.005 94.7237 156.837 95.1909C157.673 95.6543 158.315 96.321 158.763 97.1908C159.211 98.0606 159.435 99.1014 159.435 100.313C159.435 101.529 159.209 102.573 158.757 103.447C158.309 104.32 157.661 104.991 156.814 105.458C155.971 105.925 154.957 106.159 153.772 106.159ZM151.931 104.33H153.669C154.482 104.33 155.16 104.182 155.703 103.885C156.246 103.585 156.655 103.139 156.928 102.547C157.202 101.95 157.339 101.206 157.339 100.313C157.339 99.4205 157.202 98.6798 156.928 98.091C156.655 97.4985 156.25 97.0559 155.715 96.7635C155.183 96.4672 154.522 96.3191 153.732 96.3191H151.931V104.33ZM165.227 106.33C164.349 106.33 163.592 106.147 162.954 105.783C162.319 105.414 161.831 104.894 161.489 104.222C161.147 103.546 160.976 102.75 160.976 101.834C160.976 100.934 161.147 100.144 161.489 99.4641C161.835 98.7804 162.317 98.2486 162.936 97.8688C163.556 97.4852 164.283 97.2933 165.119 97.2933C165.658 97.2933 166.167 97.3807 166.646 97.5554C167.128 97.7264 167.553 97.9923 167.922 98.3531C168.294 98.714 168.587 99.1736 168.799 99.7319C169.012 100.286 169.118 100.947 169.118 101.715V102.347H161.945V100.957H167.141C167.137 100.562 167.052 100.211 166.885 99.9029C166.718 99.5914 166.484 99.3464 166.184 99.1679C165.888 98.9893 165.542 98.9001 165.147 98.9001C164.725 98.9001 164.355 99.0026 164.036 99.2077C163.717 99.4091 163.468 99.675 163.29 100.005C163.115 100.332 163.026 100.691 163.022 101.082V102.296C163.022 102.805 163.115 103.242 163.301 103.606C163.487 103.967 163.747 104.244 164.082 104.438C164.416 104.628 164.807 104.723 165.255 104.723C165.555 104.723 165.827 104.681 166.07 104.598C166.313 104.51 166.524 104.383 166.703 104.216C166.881 104.049 167.016 103.842 167.107 103.595L169.033 103.811C168.911 104.32 168.68 104.765 168.338 105.145C168 105.521 167.567 105.813 167.039 106.022C166.511 106.227 165.907 106.33 165.227 106.33ZM177.78 99.7205L175.9 99.9256C175.847 99.7357 175.754 99.5572 175.621 99.3901C175.492 99.2229 175.317 99.0881 175.097 98.9855C174.876 98.883 174.607 98.8317 174.288 98.8317C173.858 98.8317 173.497 98.9248 173.205 99.1109C172.916 99.297 172.774 99.5382 172.778 99.8345C172.774 100.089 172.867 100.296 173.057 100.456C173.251 100.615 173.57 100.746 174.014 100.849L175.507 101.168C176.335 101.346 176.95 101.629 177.353 102.017C177.759 102.404 177.964 102.911 177.968 103.538C177.964 104.089 177.803 104.575 177.484 104.997C177.169 105.414 176.73 105.741 176.168 105.977C175.606 106.212 174.96 106.33 174.231 106.33C173.159 106.33 172.297 106.106 171.644 105.657C170.99 105.205 170.601 104.577 170.476 103.772L172.487 103.578C172.578 103.973 172.772 104.271 173.068 104.472C173.365 104.674 173.75 104.774 174.225 104.774C174.715 104.774 175.108 104.674 175.404 104.472C175.704 104.271 175.854 104.022 175.854 103.726C175.854 103.475 175.758 103.268 175.564 103.105C175.374 102.942 175.078 102.816 174.675 102.729L173.182 102.416C172.343 102.241 171.722 101.946 171.319 101.532C170.916 101.115 170.717 100.587 170.721 99.9484C170.717 99.4091 170.863 98.9419 171.16 98.5468C171.46 98.148 171.876 97.8403 172.407 97.6238C172.943 97.4035 173.56 97.2933 174.259 97.2933C175.285 97.2933 176.092 97.5118 176.681 97.9486C177.273 98.3854 177.64 98.976 177.78 99.7205ZM179.669 106.159V97.4073H181.731V106.159H179.669ZM180.706 96.1652C180.379 96.1652 180.098 96.057 179.863 95.8405C179.627 95.6201 179.509 95.3562 179.509 95.0485C179.509 94.737 179.627 94.473 179.863 94.2565C180.098 94.0362 180.379 93.9261 180.706 93.9261C181.036 93.9261 181.317 94.0362 181.549 94.2565C181.785 94.473 181.902 94.737 181.902 95.0485C181.902 95.3562 181.785 95.6201 181.549 95.8405C181.317 96.057 181.036 96.1652 180.706 96.1652ZM187.658 109.623C186.918 109.623 186.281 109.522 185.75 109.321C185.218 109.124 184.791 108.858 184.468 108.523C184.145 108.189 183.921 107.819 183.795 107.412L185.653 106.962C185.736 107.133 185.858 107.302 186.017 107.469C186.177 107.64 186.392 107.781 186.661 107.891C186.935 108.005 187.279 108.062 187.693 108.062C188.278 108.062 188.762 107.919 189.145 107.635C189.529 107.353 189.721 106.89 189.721 106.244V104.586H189.618C189.512 104.799 189.356 105.017 189.151 105.242C188.95 105.466 188.682 105.654 188.348 105.806C188.017 105.958 187.601 106.033 187.1 106.033C186.428 106.033 185.818 105.876 185.271 105.561C184.728 105.242 184.295 104.767 183.972 104.136C183.653 103.502 183.493 102.708 183.493 101.755C183.493 100.794 183.653 99.9826 183.972 99.3217C184.295 98.657 184.73 98.1537 185.277 97.8118C185.824 97.4662 186.433 97.2933 187.106 97.2933C187.619 97.2933 188.04 97.3807 188.371 97.5554C188.705 97.7264 188.971 97.9334 189.168 98.1765C189.366 98.4158 189.516 98.6418 189.618 98.8545H189.732V97.4073H191.766V106.301C191.766 107.05 191.588 107.669 191.231 108.159C190.874 108.649 190.386 109.015 189.767 109.258C189.147 109.501 188.445 109.623 187.658 109.623ZM187.676 104.415C188.112 104.415 188.485 104.309 188.792 104.096C189.1 103.884 189.334 103.578 189.493 103.179C189.653 102.78 189.732 102.302 189.732 101.743C189.732 101.192 189.653 100.71 189.493 100.296C189.337 99.882 189.106 99.561 188.798 99.3331C188.494 99.1014 188.12 98.9855 187.676 98.9855C187.216 98.9855 186.832 99.1052 186.525 99.3445C186.217 99.5838 185.985 99.9124 185.829 100.33C185.674 100.744 185.596 101.215 185.596 101.743C185.596 102.279 185.674 102.748 185.829 103.151C185.989 103.549 186.223 103.861 186.53 104.085C186.842 104.305 187.223 104.415 187.676 104.415ZM195.943 101.031V106.159H193.88V97.4073H195.852V98.8944H195.954C196.155 98.4044 196.476 98.015 196.917 97.7264C197.361 97.4377 197.91 97.2933 198.564 97.2933C199.168 97.2933 199.694 97.4225 200.142 97.6808C200.594 97.9391 200.943 98.3132 201.19 98.8032C201.441 99.2932 201.564 99.8877 201.561 100.587V106.159H199.498V100.906C199.498 100.321 199.346 99.863 199.042 99.5325C198.742 99.202 198.326 99.0368 197.794 99.0368C197.434 99.0368 197.113 99.1166 196.832 99.2761C196.554 99.4319 196.336 99.6579 196.176 99.9541C196.021 100.25 195.943 100.609 195.943 101.031ZM209.7 94.4901V106.159H207.637V94.4901H209.7ZM211.821 106.159V97.4073H213.883V106.159H211.821ZM212.858 96.1652C212.531 96.1652 212.25 96.057 212.014 95.8405C211.779 95.6201 211.661 95.3562 211.661 95.0485C211.661 94.737 211.779 94.473 212.014 94.2565C212.25 94.0362 212.531 93.9261 212.858 93.9261C213.188 93.9261 213.469 94.0362 213.701 94.2565C213.936 94.473 214.054 94.737 214.054 95.0485C214.054 95.3562 213.936 95.6201 213.701 95.8405C213.469 96.057 213.188 96.1652 212.858 96.1652ZM218.067 101.031V106.159H216.004V97.4073H217.975V98.8944H218.078C218.279 98.4044 218.6 98.015 219.041 97.7264C219.485 97.4377 220.034 97.2933 220.688 97.2933C221.291 97.2933 221.818 97.4225 222.266 97.6808C222.718 97.9391 223.067 98.3132 223.314 98.8032C223.565 99.2932 223.688 99.8877 223.684 100.587V106.159H221.622V100.906C221.622 100.321 221.47 99.863 221.166 99.5325C220.866 99.202 220.45 99.0368 219.918 99.0368C219.557 99.0368 219.237 99.1166 218.955 99.2761C218.678 99.4319 218.46 99.6579 218.3 99.9541C218.144 100.25 218.067 100.609 218.067 101.031ZM230.151 97.4073V99.0026H225.12V97.4073H230.151ZM226.362 95.3106H228.425V103.527C228.425 103.804 228.467 104.017 228.55 104.165C228.638 104.309 228.752 104.408 228.892 104.461C229.033 104.514 229.188 104.541 229.359 104.541C229.488 104.541 229.606 104.531 229.713 104.512C229.823 104.493 229.906 104.476 229.963 104.461L230.311 106.073C230.201 106.111 230.043 106.153 229.838 106.199C229.637 106.244 229.39 106.271 229.097 106.278C228.581 106.294 228.115 106.216 227.701 106.045C227.287 105.87 226.959 105.6 226.716 105.236C226.476 104.871 226.359 104.415 226.362 103.868V95.3106ZM235.657 106.33C234.779 106.33 234.021 106.147 233.383 105.783C232.749 105.414 232.261 104.894 231.919 104.222C231.577 103.546 231.406 102.75 231.406 101.834C231.406 100.934 231.577 100.144 231.919 99.4641C232.265 98.7804 232.747 98.2486 233.366 97.8688C233.985 97.4852 234.713 97.2933 235.548 97.2933C236.088 97.2933 236.597 97.3807 237.075 97.5554C237.558 97.7264 237.983 97.9923 238.352 98.3531C238.724 98.714 239.016 99.1736 239.229 99.7319C239.442 100.286 239.548 100.947 239.548 101.715V102.347H232.375V100.957H237.571C237.567 100.562 237.482 100.211 237.315 99.9029C237.147 99.5914 236.914 99.3464 236.614 99.1679C236.318 98.9893 235.972 98.9001 235.577 98.9001C235.155 98.9001 234.785 99.0026 234.466 99.2077C234.147 99.4091 233.898 99.675 233.719 100.005C233.545 100.332 233.455 100.691 233.452 101.082V102.296C233.452 102.805 233.545 103.242 233.731 103.606C233.917 103.967 234.177 104.244 234.511 104.438C234.846 104.628 235.237 104.723 235.685 104.723C235.985 104.723 236.257 104.681 236.5 104.598C236.743 104.51 236.954 104.383 237.132 104.216C237.311 104.049 237.446 103.842 237.537 103.595L239.463 103.811C239.341 104.32 239.109 104.765 238.767 105.145C238.429 105.521 237.996 105.813 237.468 106.022C236.94 106.227 236.337 106.33 235.657 106.33ZM241.293 106.159V97.4073H243.293V98.8659H243.384C243.544 98.3607 243.817 97.9714 244.204 97.6979C244.596 97.4206 245.042 97.282 245.543 97.282C245.657 97.282 245.785 97.2876 245.925 97.299C246.069 97.3066 246.189 97.3199 246.284 97.3389V99.2362C246.197 99.2058 246.058 99.1793 245.868 99.1565C245.682 99.1299 245.502 99.1166 245.327 99.1166C244.951 99.1166 244.613 99.1983 244.313 99.3616C244.016 99.5211 243.783 99.7433 243.612 100.028C243.441 100.313 243.355 100.642 243.355 101.014V106.159H241.293Z" fill="#283636"/>
<path d="M157.155 119.148H156.044C155.979 118.828 155.864 118.548 155.7 118.306C155.538 118.064 155.342 117.861 155.109 117.697C154.879 117.53 154.624 117.405 154.343 117.321C154.063 117.238 153.77 117.196 153.466 117.196C152.911 117.196 152.408 117.336 151.957 117.617C151.509 117.897 151.153 118.311 150.887 118.857C150.625 119.403 150.493 120.073 150.493 120.867C150.493 121.661 150.625 122.331 150.887 122.877C151.153 123.423 151.509 123.836 151.957 124.117C152.408 124.397 152.911 124.538 153.466 124.538C153.77 124.538 154.063 124.496 154.343 124.412C154.624 124.329 154.879 124.205 155.109 124.041C155.342 123.874 155.538 123.669 155.7 123.427C155.864 123.183 155.979 122.902 156.044 122.586H157.155C157.071 123.054 156.919 123.474 156.698 123.844C156.477 124.214 156.203 124.529 155.874 124.788C155.546 125.045 155.177 125.241 154.768 125.375C154.363 125.509 153.928 125.576 153.466 125.576C152.684 125.576 151.988 125.385 151.38 125.003C150.771 124.621 150.292 124.078 149.943 123.374C149.593 122.669 149.419 121.834 149.419 120.867C149.419 119.9 149.593 119.064 149.943 118.36C150.292 117.655 150.771 117.112 151.38 116.73C151.988 116.348 152.684 116.157 153.466 116.157C153.928 116.157 154.363 116.224 154.768 116.359C155.177 116.493 155.546 116.69 155.874 116.95C156.203 117.206 156.477 117.52 156.698 117.89C156.919 118.257 157.071 118.676 157.155 119.148ZM159.862 121.314V125.451H158.805V116.283H159.862V119.649H159.951C160.113 119.294 160.354 119.012 160.677 118.803C161.002 118.591 161.435 118.485 161.975 118.485C162.443 118.485 162.854 118.579 163.206 118.767C163.558 118.952 163.831 119.237 164.025 119.622C164.222 120.004 164.321 120.491 164.321 121.082V125.451H163.264V121.153C163.264 120.607 163.122 120.185 162.839 119.886C162.558 119.585 162.169 119.434 161.67 119.434C161.324 119.434 161.014 119.507 160.739 119.654C160.468 119.8 160.253 120.013 160.095 120.294C159.939 120.574 159.862 120.915 159.862 121.314ZM169.136 125.594C168.474 125.594 167.902 125.448 167.422 125.155C166.944 124.86 166.576 124.448 166.316 123.92C166.059 123.389 165.931 122.771 165.931 122.067C165.931 121.362 166.059 120.741 166.316 120.204C166.576 119.664 166.937 119.243 167.4 118.942C167.865 118.637 168.408 118.485 169.029 118.485C169.387 118.485 169.741 118.545 170.09 118.664C170.439 118.784 170.757 118.978 171.044 119.246C171.33 119.512 171.558 119.864 171.728 120.303C171.899 120.741 171.984 121.282 171.984 121.923V122.371H166.683V121.458H170.909C170.909 121.07 170.832 120.724 170.676 120.419C170.524 120.115 170.306 119.874 170.023 119.698C169.742 119.522 169.411 119.434 169.029 119.434C168.608 119.434 168.244 119.539 167.937 119.748C167.632 119.954 167.398 120.222 167.234 120.553C167.07 120.885 166.988 121.24 166.988 121.619V122.228C166.988 122.747 167.077 123.187 167.256 123.548C167.438 123.906 167.69 124.18 168.013 124.368C168.335 124.553 168.71 124.645 169.136 124.645C169.414 124.645 169.665 124.606 169.889 124.529C170.115 124.448 170.311 124.329 170.475 124.171C170.639 124.009 170.766 123.809 170.856 123.571L171.876 123.857C171.769 124.203 171.588 124.508 171.335 124.77C171.081 125.03 170.767 125.233 170.394 125.379C170.021 125.523 169.602 125.594 169.136 125.594ZM176.384 125.594C175.74 125.594 175.184 125.442 174.719 125.138C174.253 124.833 173.895 124.414 173.645 123.88C173.394 123.345 173.268 122.735 173.268 122.049C173.268 121.35 173.397 120.734 173.653 120.2C173.913 119.663 174.274 119.243 174.737 118.942C175.202 118.637 175.746 118.485 176.366 118.485C176.85 118.485 177.286 118.575 177.674 118.754C178.062 118.933 178.379 119.184 178.627 119.506C178.875 119.828 179.028 120.204 179.088 120.634H178.032C177.951 120.321 177.772 120.043 177.494 119.801C177.22 119.557 176.85 119.434 176.384 119.434C175.972 119.434 175.611 119.542 175.301 119.757C174.993 119.968 174.753 120.268 174.58 120.656C174.41 121.041 174.325 121.494 174.325 122.013C174.325 122.544 174.409 123.007 174.576 123.401C174.746 123.795 174.985 124.1 175.292 124.318C175.602 124.536 175.966 124.645 176.384 124.645C176.659 124.645 176.908 124.597 177.132 124.502C177.356 124.406 177.545 124.269 177.7 124.09C177.856 123.911 177.966 123.696 178.032 123.445H179.088C179.028 123.851 178.881 124.217 178.645 124.542C178.412 124.864 178.103 125.121 177.718 125.312C177.336 125.5 176.892 125.594 176.384 125.594ZM181.618 122.944L181.6 121.637H181.814L184.823 118.575H186.13L182.925 121.816H182.835L181.618 122.944ZM180.633 125.451V116.283H181.689V125.451H180.633ZM185.002 125.451L182.316 122.049L183.068 121.314L186.345 125.451H185.002ZM192.36 120.115L191.411 120.383C191.352 120.225 191.264 120.071 191.147 119.922C191.034 119.77 190.879 119.645 190.682 119.546C190.485 119.448 190.233 119.398 189.925 119.398C189.504 119.398 189.154 119.495 188.873 119.689C188.596 119.88 188.457 120.124 188.457 120.419C188.457 120.682 188.552 120.889 188.743 121.041C188.934 121.194 189.233 121.32 189.639 121.422L190.659 121.673C191.274 121.822 191.732 122.05 192.034 122.358C192.335 122.662 192.486 123.054 192.486 123.535C192.486 123.929 192.372 124.281 192.146 124.591C191.922 124.902 191.608 125.147 191.205 125.326C190.803 125.505 190.334 125.594 189.8 125.594C189.098 125.594 188.518 125.442 188.058 125.138C187.599 124.833 187.308 124.388 187.185 123.804L188.188 123.553C188.284 123.923 188.464 124.2 188.73 124.385C188.998 124.571 189.349 124.663 189.782 124.663C190.274 124.663 190.665 124.559 190.955 124.35C191.247 124.138 191.394 123.884 191.394 123.589C191.394 123.35 191.31 123.15 191.143 122.989C190.976 122.825 190.719 122.702 190.373 122.622L189.227 122.353C188.597 122.204 188.134 121.973 187.839 121.659C187.547 121.343 187.4 120.947 187.4 120.473C187.4 120.085 187.509 119.742 187.727 119.443C187.948 119.145 188.248 118.91 188.627 118.74C189.009 118.57 189.442 118.485 189.925 118.485C190.606 118.485 191.14 118.634 191.528 118.933C191.919 119.231 192.196 119.625 192.36 120.115ZM200.684 118.575V119.47H196.977V118.575H200.684ZM198.087 125.451V117.626C198.087 117.232 198.18 116.903 198.365 116.641C198.55 116.378 198.79 116.181 199.086 116.05C199.381 115.919 199.693 115.853 200.021 115.853C200.281 115.853 200.493 115.874 200.657 115.916C200.821 115.957 200.943 115.996 201.024 116.032L200.72 116.945C200.666 116.927 200.591 116.905 200.496 116.878C200.403 116.851 200.281 116.838 200.129 116.838C199.779 116.838 199.527 116.926 199.372 117.102C199.22 117.278 199.144 117.536 199.144 117.876V125.451H198.087ZM204.675 125.594C204.054 125.594 203.509 125.446 203.041 125.151C202.575 124.856 202.211 124.442 201.948 123.911C201.689 123.38 201.559 122.759 201.559 122.049C201.559 121.332 201.689 120.707 201.948 120.173C202.211 119.639 202.575 119.224 203.041 118.928C203.509 118.633 204.054 118.485 204.675 118.485C205.296 118.485 205.839 118.633 206.304 118.928C206.773 119.224 207.137 119.639 207.397 120.173C207.659 120.707 207.791 121.332 207.791 122.049C207.791 122.759 207.659 123.38 207.397 123.911C207.137 124.442 206.773 124.856 206.304 125.151C205.839 125.446 205.296 125.594 204.675 125.594ZM204.675 124.645C205.146 124.645 205.534 124.524 205.839 124.283C206.143 124.041 206.368 123.723 206.515 123.329C206.661 122.935 206.734 122.508 206.734 122.049C206.734 121.589 206.661 121.161 206.515 120.764C206.368 120.367 206.143 120.046 205.839 119.801C205.534 119.557 205.146 119.434 204.675 119.434C204.203 119.434 203.815 119.557 203.511 119.801C203.206 120.046 202.981 120.367 202.835 120.764C202.689 121.161 202.615 121.589 202.615 122.049C202.615 122.508 202.689 122.935 202.835 123.329C202.981 123.723 203.206 124.041 203.511 124.283C203.815 124.524 204.203 124.645 204.675 124.645ZM209.403 125.451V118.575H210.424V119.613H210.496C210.621 119.273 210.848 118.997 211.176 118.785C211.504 118.573 211.874 118.467 212.286 118.467C212.364 118.467 212.461 118.469 212.577 118.472C212.694 118.475 212.782 118.479 212.841 118.485V119.56C212.806 119.551 212.724 119.537 212.595 119.519C212.47 119.498 212.337 119.488 212.197 119.488C211.862 119.488 211.564 119.558 211.301 119.698C211.042 119.836 210.836 120.027 210.684 120.271C210.534 120.513 210.46 120.789 210.46 121.1V125.451H209.403ZM220.433 125.594C219.788 125.594 219.233 125.442 218.767 125.138C218.302 124.833 217.944 124.414 217.693 123.88C217.442 123.345 217.317 122.735 217.317 122.049C217.317 121.35 217.445 120.734 217.702 120.2C217.962 119.663 218.323 119.243 218.785 118.942C219.251 118.637 219.794 118.485 220.415 118.485C220.898 118.485 221.334 118.575 221.722 118.754C222.11 118.933 222.428 119.184 222.676 119.506C222.923 119.828 223.077 120.204 223.137 120.634H222.08C222 120.321 221.821 120.043 221.543 119.801C221.268 119.557 220.898 119.434 220.433 119.434C220.021 119.434 219.66 119.542 219.349 119.757C219.042 119.968 218.802 120.268 218.629 120.656C218.459 121.041 218.373 121.494 218.373 122.013C218.373 122.544 218.457 123.007 218.624 123.401C218.794 123.795 219.033 124.1 219.34 124.318C219.651 124.536 220.015 124.645 220.433 124.645C220.707 124.645 220.957 124.597 221.18 124.502C221.404 124.406 221.594 124.269 221.749 124.09C221.904 123.911 222.015 123.696 222.08 123.445H223.137C223.077 123.851 222.929 124.217 222.693 124.542C222.461 124.864 222.152 125.121 221.767 125.312C221.385 125.5 220.94 125.594 220.433 125.594ZM227.475 125.594C226.854 125.594 226.309 125.446 225.841 125.151C225.375 124.856 225.011 124.442 224.748 123.911C224.489 123.38 224.359 122.759 224.359 122.049C224.359 121.332 224.489 120.707 224.748 120.173C225.011 119.639 225.375 119.224 225.841 118.928C226.309 118.633 226.854 118.485 227.475 118.485C228.095 118.485 228.639 118.633 229.104 118.928C229.573 119.224 229.937 119.639 230.196 120.173C230.459 120.707 230.59 121.332 230.59 122.049C230.59 122.759 230.459 123.38 230.196 123.911C229.937 124.442 229.573 124.856 229.104 125.151C228.639 125.446 228.095 125.594 227.475 125.594ZM227.475 124.645C227.946 124.645 228.334 124.524 228.639 124.283C228.943 124.041 229.168 123.723 229.315 123.329C229.461 122.935 229.534 122.508 229.534 122.049C229.534 121.589 229.461 121.161 229.315 120.764C229.168 120.367 228.943 120.046 228.639 119.801C228.334 119.557 227.946 119.434 227.475 119.434C227.003 119.434 226.615 119.557 226.311 119.801C226.006 120.046 225.781 120.367 225.635 120.764C225.488 121.161 225.415 121.589 225.415 122.049C225.415 122.508 225.488 122.935 225.635 123.329C225.781 123.723 226.006 124.041 226.311 124.283C226.615 124.524 227.003 124.645 227.475 124.645ZM233.26 116.283V125.451H232.203V116.283H233.26ZM237.988 125.594C237.367 125.594 236.823 125.446 236.354 125.151C235.889 124.856 235.524 124.442 235.262 123.911C235.002 123.38 234.872 122.759 234.872 122.049C234.872 121.332 235.002 120.707 235.262 120.173C235.524 119.639 235.889 119.224 236.354 118.928C236.823 118.633 237.367 118.485 237.988 118.485C238.609 118.485 239.152 118.633 239.618 118.928C240.086 119.224 240.45 119.639 240.71 120.173C240.973 120.707 241.104 121.332 241.104 122.049C241.104 122.759 240.973 123.38 240.71 123.911C240.45 124.442 240.086 124.856 239.618 125.151C239.152 125.446 238.609 125.594 237.988 125.594ZM237.988 124.645C238.46 124.645 238.848 124.524 239.152 124.283C239.457 124.041 239.682 123.723 239.828 123.329C239.974 122.935 240.047 122.508 240.047 122.049C240.047 121.589 239.974 121.161 239.828 120.764C239.682 120.367 239.457 120.046 239.152 119.801C238.848 119.557 238.46 119.434 237.988 119.434C237.517 119.434 237.129 119.557 236.824 119.801C236.52 120.046 236.294 120.367 236.148 120.764C236.002 121.161 235.929 121.589 235.929 122.049C235.929 122.508 236.002 122.935 236.148 123.329C236.294 123.723 236.52 124.041 236.824 124.283C237.129 124.524 237.517 124.645 237.988 124.645ZM242.717 125.451V118.575H243.737V119.613H243.809C243.934 119.273 244.161 118.997 244.489 118.785C244.818 118.573 245.188 118.467 245.6 118.467C245.677 118.467 245.774 118.469 245.891 118.472C246.007 118.475 246.095 118.479 246.155 118.485V119.56C246.119 119.551 246.037 119.537 245.909 119.519C245.783 119.498 245.65 119.488 245.51 119.488C245.176 119.488 244.877 119.558 244.615 119.698C244.355 119.836 244.149 120.027 243.997 120.271C243.848 120.513 243.773 120.789 243.773 121.1V125.451H242.717ZM252.278 120.115L251.329 120.383C251.269 120.225 251.181 120.071 251.065 119.922C250.951 119.77 250.796 119.645 250.599 119.546C250.402 119.448 250.15 119.398 249.842 119.398C249.422 119.398 249.071 119.495 248.79 119.689C248.513 119.88 248.374 120.124 248.374 120.419C248.374 120.682 248.47 120.889 248.661 121.041C248.852 121.194 249.15 121.32 249.556 121.422L250.577 121.673C251.191 121.822 251.65 122.05 251.951 122.358C252.252 122.662 252.403 123.054 252.403 123.535C252.403 123.929 252.29 124.281 252.063 124.591C251.839 124.902 251.526 125.147 251.123 125.326C250.72 125.505 250.251 125.594 249.717 125.594C249.016 125.594 248.435 125.442 247.976 125.138C247.516 124.833 247.225 124.388 247.103 123.804L248.106 123.553C248.201 123.923 248.382 124.2 248.647 124.385C248.916 124.571 249.266 124.663 249.699 124.663C250.192 124.663 250.583 124.559 250.872 124.35C251.165 124.138 251.311 123.884 251.311 123.589C251.311 123.35 251.227 123.15 251.06 122.989C250.893 122.825 250.636 122.702 250.29 122.622L249.144 122.353C248.514 122.204 248.052 121.973 247.756 121.659C247.464 121.343 247.318 120.947 247.318 120.473C247.318 120.085 247.427 119.742 247.644 119.443C247.865 119.145 248.165 118.91 248.544 118.74C248.926 118.57 249.359 118.485 249.842 118.485C250.523 118.485 251.057 118.634 251.445 118.933C251.836 119.231 252.114 119.625 252.278 120.115ZM255.569 124.197L255.498 124.681C255.447 125.021 255.369 125.385 255.265 125.773C255.163 126.161 255.057 126.527 254.947 126.87C254.837 127.213 254.746 127.486 254.674 127.689H253.868C253.907 127.498 253.958 127.246 254.02 126.933C254.083 126.619 254.146 126.269 254.208 125.881C254.274 125.496 254.328 125.102 254.37 124.699L254.423 124.197H255.569ZM262.129 116.283V125.451H261.072V116.283H262.129ZM266.087 125.612C265.652 125.612 265.256 125.53 264.901 125.366C264.546 125.199 264.264 124.958 264.055 124.645C263.846 124.329 263.742 123.947 263.742 123.499C263.742 123.105 263.819 122.786 263.974 122.541C264.129 122.293 264.337 122.099 264.597 121.959C264.856 121.819 265.143 121.714 265.456 121.646C265.772 121.574 266.09 121.517 266.41 121.476C266.827 121.422 267.166 121.382 267.426 121.355C267.688 121.325 267.879 121.276 267.999 121.207C268.121 121.138 268.182 121.019 268.182 120.849V120.813C268.182 120.371 268.062 120.028 267.82 119.783C267.581 119.539 267.218 119.416 266.732 119.416C266.228 119.416 265.832 119.527 265.546 119.748C265.259 119.968 265.058 120.204 264.941 120.455L263.938 120.097C264.118 119.679 264.356 119.354 264.655 119.121C264.956 118.885 265.284 118.721 265.64 118.628C265.998 118.533 266.35 118.485 266.696 118.485C266.917 118.485 267.171 118.512 267.457 118.566C267.747 118.616 268.026 118.722 268.294 118.884C268.566 119.045 268.791 119.288 268.97 119.613C269.149 119.939 269.239 120.374 269.239 120.921V125.451H268.182V124.52H268.129C268.057 124.669 267.938 124.829 267.771 124.999C267.603 125.169 267.381 125.314 267.104 125.433C266.826 125.552 266.487 125.612 266.087 125.612ZM266.248 124.663C266.666 124.663 267.018 124.581 267.305 124.417C267.594 124.253 267.812 124.041 267.959 123.781C268.108 123.521 268.182 123.248 268.182 122.962V121.995C268.138 122.049 268.039 122.098 267.887 122.143C267.738 122.184 267.565 122.222 267.368 122.255C267.174 122.284 266.984 122.311 266.799 122.335C266.617 122.356 266.469 122.374 266.356 122.389C266.081 122.425 265.825 122.483 265.586 122.563C265.35 122.641 265.159 122.759 265.013 122.917C264.87 123.072 264.798 123.284 264.798 123.553C264.798 123.92 264.934 124.197 265.205 124.385C265.48 124.571 265.828 124.663 266.248 124.663ZM272.224 121.314V125.451H271.167V118.575H272.188V119.649H272.277C272.439 119.3 272.683 119.019 273.012 118.808C273.34 118.593 273.764 118.485 274.283 118.485C274.749 118.485 275.156 118.581 275.505 118.772C275.854 118.96 276.126 119.246 276.32 119.631C276.514 120.013 276.611 120.497 276.611 121.082V125.451H275.554V121.153C275.554 120.613 275.414 120.192 275.134 119.891C274.853 119.586 274.468 119.434 273.979 119.434C273.641 119.434 273.34 119.507 273.074 119.654C272.812 119.8 272.604 120.013 272.452 120.294C272.3 120.574 272.224 120.915 272.224 121.314ZM281.317 128.173C280.807 128.173 280.368 128.107 280.001 127.976C279.634 127.847 279.328 127.677 279.083 127.465C278.841 127.257 278.649 127.033 278.506 126.794L279.347 126.203C279.443 126.328 279.564 126.472 279.71 126.633C279.856 126.797 280.056 126.939 280.31 127.058C280.566 127.18 280.902 127.242 281.317 127.242C281.872 127.242 282.33 127.107 282.691 126.839C283.053 126.57 283.233 126.149 283.233 125.576V124.18H283.144C283.066 124.305 282.956 124.46 282.812 124.645C282.672 124.827 282.469 124.99 282.203 125.133C281.941 125.273 281.586 125.343 281.138 125.343C280.583 125.343 280.084 125.212 279.643 124.95C279.204 124.687 278.856 124.305 278.6 123.804C278.346 123.302 278.219 122.693 278.219 121.977C278.219 121.273 278.343 120.659 278.591 120.137C278.838 119.612 279.183 119.206 279.625 118.919C280.067 118.63 280.577 118.485 281.156 118.485C281.604 118.485 281.959 118.56 282.221 118.709C282.487 118.855 282.69 119.022 282.83 119.21C282.973 119.395 283.084 119.548 283.161 119.667H283.269V118.575H284.29V125.648C284.29 126.239 284.155 126.719 283.887 127.089C283.621 127.462 283.263 127.736 282.812 127.909C282.365 128.085 281.866 128.173 281.317 128.173ZM281.281 124.394C281.705 124.394 282.063 124.297 282.356 124.103C282.648 123.909 282.87 123.63 283.023 123.266C283.175 122.902 283.251 122.466 283.251 121.959C283.251 121.464 283.176 121.026 283.027 120.647C282.878 120.268 282.657 119.971 282.365 119.757C282.072 119.542 281.711 119.434 281.281 119.434C280.834 119.434 280.46 119.548 280.162 119.774C279.867 120.001 279.644 120.306 279.495 120.688C279.349 121.07 279.276 121.494 279.276 121.959C279.276 122.437 279.35 122.859 279.499 123.226C279.652 123.59 279.876 123.877 280.171 124.086C280.469 124.291 280.84 124.394 281.281 124.394ZM290.557 122.64V118.575H291.613V125.451H290.557V124.287H290.485C290.324 124.636 290.073 124.933 289.733 125.178C289.393 125.42 288.963 125.54 288.444 125.54C288.014 125.54 287.632 125.446 287.298 125.258C286.964 125.067 286.701 124.781 286.51 124.399C286.319 124.014 286.223 123.529 286.223 122.944V118.575H287.28V122.872C287.28 123.374 287.42 123.774 287.701 124.072C287.984 124.371 288.345 124.52 288.784 124.52C289.047 124.52 289.314 124.453 289.586 124.318C289.86 124.184 290.09 123.978 290.275 123.701C290.463 123.423 290.557 123.069 290.557 122.64ZM295.572 125.612C295.136 125.612 294.741 125.53 294.386 125.366C294.031 125.199 293.748 124.958 293.54 124.645C293.331 124.329 293.226 123.947 293.226 123.499C293.226 123.105 293.304 122.786 293.459 122.541C293.614 122.293 293.822 122.099 294.081 121.959C294.341 121.819 294.627 121.714 294.941 121.646C295.257 121.574 295.575 121.517 295.894 121.476C296.312 121.422 296.651 121.382 296.911 121.355C297.173 121.325 297.364 121.276 297.484 121.207C297.606 121.138 297.667 121.019 297.667 120.849V120.813C297.667 120.371 297.546 120.028 297.304 119.783C297.066 119.539 296.703 119.416 296.217 119.416C295.712 119.416 295.317 119.527 295.03 119.748C294.744 119.968 294.542 120.204 294.426 120.455L293.423 120.097C293.602 119.679 293.841 119.354 294.139 119.121C294.441 118.885 294.769 118.721 295.124 118.628C295.482 118.533 295.835 118.485 296.181 118.485C296.402 118.485 296.655 118.512 296.942 118.566C297.231 118.616 297.51 118.722 297.779 118.884C298.051 119.045 298.276 119.288 298.455 119.613C298.634 119.939 298.724 120.374 298.724 120.921V125.451H297.667V124.52H297.613C297.542 124.669 297.422 124.829 297.255 124.999C297.088 125.169 296.866 125.314 296.588 125.433C296.311 125.552 295.972 125.612 295.572 125.612ZM295.733 124.663C296.151 124.663 296.503 124.581 296.79 124.417C297.079 124.253 297.297 124.041 297.443 123.781C297.592 123.521 297.667 123.248 297.667 122.962V121.995C297.622 122.049 297.524 122.098 297.372 122.143C297.222 122.184 297.049 122.222 296.852 122.255C296.658 122.284 296.469 122.311 296.284 122.335C296.102 122.356 295.954 122.374 295.841 122.389C295.566 122.425 295.309 122.483 295.071 122.563C294.835 122.641 294.644 122.759 294.498 122.917C294.354 123.072 294.283 123.284 294.283 123.553C294.283 123.92 294.418 124.197 294.69 124.385C294.965 124.571 295.312 124.663 295.733 124.663ZM303.427 128.173C302.917 128.173 302.478 128.107 302.111 127.976C301.744 127.847 301.438 127.677 301.194 127.465C300.952 127.257 300.759 127.033 300.616 126.794L301.458 126.203C301.553 126.328 301.674 126.472 301.82 126.633C301.967 126.797 302.167 126.939 302.42 127.058C302.677 127.18 303.013 127.242 303.427 127.242C303.983 127.242 304.441 127.107 304.802 126.839C305.163 126.57 305.344 126.149 305.344 125.576V124.18H305.254C305.176 124.305 305.066 124.46 304.923 124.645C304.782 124.827 304.579 124.99 304.314 125.133C304.051 125.273 303.696 125.343 303.248 125.343C302.693 125.343 302.195 125.212 301.753 124.95C301.314 124.687 300.967 124.305 300.71 123.804C300.456 123.302 300.33 122.693 300.33 121.977C300.33 121.273 300.453 120.659 300.701 120.137C300.949 119.612 301.294 119.206 301.735 118.919C302.177 118.63 302.687 118.485 303.266 118.485C303.714 118.485 304.069 118.56 304.332 118.709C304.597 118.855 304.8 119.022 304.941 119.21C305.084 119.395 305.194 119.548 305.272 119.667H305.379V118.575H306.4V125.648C306.4 126.239 306.266 126.719 305.997 127.089C305.731 127.462 305.373 127.736 304.923 127.909C304.475 128.085 303.977 128.173 303.427 128.173ZM303.392 124.394C303.815 124.394 304.174 124.297 304.466 124.103C304.759 123.909 304.981 123.63 305.133 123.266C305.285 122.902 305.361 122.466 305.361 121.959C305.361 121.464 305.287 121.026 305.138 120.647C304.988 120.268 304.768 119.971 304.475 119.757C304.183 119.542 303.821 119.434 303.392 119.434C302.944 119.434 302.571 119.548 302.272 119.774C301.977 120.001 301.755 120.306 301.605 120.688C301.459 121.07 301.386 121.494 301.386 121.959C301.386 122.437 301.461 122.859 301.61 123.226C301.762 123.59 301.986 123.877 302.281 124.086C302.58 124.291 302.95 124.394 303.392 124.394ZM311.217 125.594C310.554 125.594 309.983 125.448 309.502 125.155C309.025 124.86 308.656 124.448 308.397 123.92C308.14 123.389 308.012 122.771 308.012 122.067C308.012 121.362 308.14 120.741 308.397 120.204C308.656 119.664 309.017 119.243 309.48 118.942C309.946 118.637 310.489 118.485 311.109 118.485C311.468 118.485 311.821 118.545 312.17 118.664C312.52 118.784 312.838 118.978 313.124 119.246C313.411 119.512 313.639 119.864 313.809 120.303C313.979 120.741 314.064 121.282 314.064 121.923V122.371H308.764V121.458H312.99C312.99 121.07 312.912 120.724 312.757 120.419C312.605 120.115 312.387 119.874 312.103 119.698C311.823 119.522 311.492 119.434 311.109 119.434C310.689 119.434 310.325 119.539 310.017 119.748C309.713 119.954 309.478 120.222 309.314 120.553C309.15 120.885 309.068 121.24 309.068 121.619V122.228C309.068 122.747 309.158 123.187 309.337 123.548C309.519 123.906 309.771 124.18 310.093 124.368C310.416 124.553 310.79 124.645 311.217 124.645C311.494 124.645 311.745 124.606 311.969 124.529C312.196 124.448 312.391 124.329 312.555 124.171C312.72 124.009 312.846 123.809 312.936 123.571L313.957 123.857C313.849 124.203 313.669 124.508 313.415 124.77C313.161 125.03 312.848 125.233 312.475 125.379C312.102 125.523 311.683 125.594 311.217 125.594ZM317.247 124.197L317.175 124.681C317.125 125.021 317.047 125.385 316.943 125.773C316.841 126.161 316.735 126.527 316.625 126.87C316.514 127.213 316.423 127.486 316.352 127.689H315.546C315.585 127.498 315.635 127.246 315.698 126.933C315.761 126.619 315.823 126.269 315.886 125.881C315.952 125.496 316.006 125.102 316.047 124.699L316.101 124.197H317.247ZM324.774 125.612C324.338 125.612 323.942 125.53 323.587 125.366C323.232 125.199 322.95 124.958 322.741 124.645C322.532 124.329 322.428 123.947 322.428 123.499C322.428 123.105 322.505 122.786 322.66 122.541C322.816 122.293 323.023 122.099 323.283 121.959C323.542 121.819 323.829 121.714 324.142 121.646C324.459 121.574 324.776 121.517 325.096 121.476C325.514 121.422 325.852 121.382 326.112 121.355C326.375 121.325 326.566 121.276 326.685 121.207C326.807 121.138 326.869 121.019 326.869 120.849V120.813C326.869 120.371 326.748 120.028 326.506 119.783C326.267 119.539 325.905 119.416 325.418 119.416C324.914 119.416 324.518 119.527 324.232 119.748C323.945 119.968 323.744 120.204 323.627 120.455L322.625 120.097C322.804 119.679 323.043 119.354 323.341 119.121C323.642 118.885 323.971 118.721 324.326 118.628C324.684 118.533 325.036 118.485 325.382 118.485C325.603 118.485 325.857 118.512 326.143 118.566C326.433 118.616 326.712 118.722 326.981 118.884C327.252 119.045 327.477 119.288 327.656 119.613C327.836 119.939 327.925 120.374 327.925 120.921V125.451H326.869V124.52H326.815C326.743 124.669 326.624 124.829 326.457 124.999C326.29 125.169 326.067 125.314 325.79 125.433C325.512 125.552 325.173 125.612 324.774 125.612ZM324.935 124.663C325.352 124.663 325.705 124.581 325.991 124.417C326.281 124.253 326.499 124.041 326.645 123.781C326.794 123.521 326.869 123.248 326.869 122.962V121.995C326.824 122.049 326.725 122.098 326.573 122.143C326.424 122.184 326.251 122.222 326.054 122.255C325.86 122.284 325.67 122.311 325.485 122.335C325.303 122.356 325.156 122.374 325.042 122.389C324.768 122.425 324.511 122.483 324.272 122.563C324.036 122.641 323.845 122.759 323.699 122.917C323.556 123.072 323.484 123.284 323.484 123.553C323.484 123.92 323.62 124.197 323.892 124.385C324.166 124.571 324.514 124.663 324.935 124.663ZM330.91 121.314V125.451H329.853V118.575H330.874V119.649H330.964C331.125 119.3 331.37 119.019 331.698 118.808C332.026 118.593 332.45 118.485 332.969 118.485C333.435 118.485 333.842 118.581 334.191 118.772C334.541 118.96 334.812 119.246 335.006 119.631C335.2 120.013 335.297 120.497 335.297 121.082V125.451H334.241V121.153C334.241 120.613 334.1 120.192 333.82 119.891C333.539 119.586 333.154 119.434 332.665 119.434C332.328 119.434 332.026 119.507 331.761 119.654C331.498 119.8 331.29 120.013 331.138 120.294C330.986 120.574 330.91 120.915 330.91 121.314ZM339.824 125.594C339.251 125.594 338.745 125.449 338.307 125.16C337.868 124.867 337.525 124.456 337.277 123.924C337.029 123.39 336.905 122.759 336.905 122.031C336.905 121.308 337.029 120.682 337.277 120.151C337.525 119.619 337.869 119.209 338.311 118.919C338.753 118.63 339.263 118.485 339.842 118.485C340.29 118.485 340.643 118.56 340.903 118.709C341.166 118.855 341.366 119.022 341.503 119.21C341.643 119.395 341.752 119.548 341.83 119.667H341.919V116.283H342.976V125.451H341.955V124.394H341.83C341.752 124.52 341.642 124.678 341.498 124.869C341.355 125.057 341.151 125.226 340.885 125.375C340.62 125.521 340.266 125.594 339.824 125.594ZM339.967 124.645C340.391 124.645 340.749 124.535 341.042 124.314C341.334 124.09 341.557 123.781 341.709 123.387C341.861 122.99 341.937 122.532 341.937 122.013C341.937 121.499 341.863 121.05 341.713 120.665C341.564 120.277 341.343 119.976 341.051 119.761C340.758 119.543 340.397 119.434 339.967 119.434C339.52 119.434 339.147 119.549 338.848 119.779C338.553 120.006 338.33 120.315 338.181 120.706C338.035 121.094 337.962 121.529 337.962 122.013C337.962 122.502 338.036 122.947 338.186 123.347C338.338 123.744 338.562 124.06 338.857 124.296C339.156 124.529 339.526 124.645 339.967 124.645ZM149.634 142.451V135.575H150.654V136.649H150.744C150.887 136.282 151.118 135.997 151.438 135.794C151.757 135.588 152.141 135.485 152.588 135.485C153.042 135.485 153.42 135.588 153.721 135.794C154.025 135.997 154.263 136.282 154.433 136.649H154.504C154.68 136.294 154.945 136.012 155.297 135.803C155.649 135.591 156.071 135.485 156.564 135.485C157.178 135.485 157.681 135.678 158.072 136.063C158.463 136.445 158.659 137.04 158.659 137.849V142.451H157.602V137.849C157.602 137.342 157.463 136.979 157.186 136.761C156.908 136.543 156.582 136.434 156.206 136.434C155.722 136.434 155.347 136.58 155.082 136.873C154.816 137.162 154.683 137.53 154.683 137.974V142.451H153.609V137.741C153.609 137.35 153.482 137.036 153.229 136.797C152.975 136.555 152.648 136.434 152.248 136.434C151.974 136.434 151.717 136.507 151.478 136.654C151.242 136.8 151.051 137.003 150.905 137.262C150.762 137.519 150.69 137.816 150.69 138.153V142.451H149.634ZM163.384 142.594C162.763 142.594 162.218 142.446 161.75 142.151C161.284 141.856 160.92 141.442 160.658 140.911C160.398 140.38 160.268 139.759 160.268 139.049C160.268 138.332 160.398 137.707 160.658 137.173C160.92 136.639 161.284 136.224 161.75 135.928C162.218 135.633 162.763 135.485 163.384 135.485C164.005 135.485 164.548 135.633 165.013 135.928C165.482 136.224 165.846 136.639 166.106 137.173C166.368 137.707 166.5 138.332 166.5 139.049C166.5 139.759 166.368 140.38 166.106 140.911C165.846 141.442 165.482 141.856 165.013 142.151C164.548 142.446 164.005 142.594 163.384 142.594ZM163.384 141.645C163.855 141.645 164.243 141.524 164.548 141.283C164.852 141.041 165.078 140.723 165.224 140.329C165.37 139.935 165.443 139.508 165.443 139.049C165.443 138.589 165.37 138.161 165.224 137.764C165.078 137.367 164.852 137.046 164.548 136.801C164.243 136.557 163.855 136.434 163.384 136.434C162.912 136.434 162.524 136.557 162.22 136.801C161.916 137.046 161.69 137.367 161.544 137.764C161.398 138.161 161.325 138.589 161.325 139.049C161.325 139.508 161.398 139.935 161.544 140.329C161.69 140.723 161.916 141.041 162.22 141.283C162.524 141.524 162.912 141.645 163.384 141.645ZM168.112 142.451V135.575H169.133V136.613H169.205C169.33 136.273 169.557 135.997 169.885 135.785C170.213 135.573 170.584 135.467 170.995 135.467C171.073 135.467 171.17 135.469 171.286 135.472C171.403 135.475 171.491 135.479 171.551 135.485V136.56C171.515 136.551 171.433 136.537 171.304 136.519C171.179 136.498 171.046 136.488 170.906 136.488C170.572 136.488 170.273 136.558 170.011 136.698C169.751 136.836 169.545 137.027 169.393 137.271C169.244 137.513 169.169 137.789 169.169 138.1V142.451H168.112ZM175.477 142.594C174.814 142.594 174.243 142.448 173.762 142.155C173.285 141.86 172.916 141.448 172.656 140.92C172.4 140.389 172.271 139.771 172.271 139.067C172.271 138.362 172.4 137.741 172.656 137.204C172.916 136.664 173.277 136.243 173.74 135.942C174.205 135.637 174.748 135.485 175.369 135.485C175.727 135.485 176.081 135.545 176.43 135.664C176.779 135.784 177.097 135.978 177.384 136.246C177.67 136.512 177.898 136.864 178.069 137.303C178.239 137.741 178.324 138.282 178.324 138.923V139.371H173.023V138.458H177.249C177.249 138.07 177.172 137.724 177.017 137.419C176.864 137.115 176.647 136.874 176.363 136.698C176.082 136.522 175.751 136.434 175.369 136.434C174.948 136.434 174.584 136.539 174.277 136.748C173.972 136.954 173.738 137.222 173.574 137.553C173.41 137.885 173.328 138.24 173.328 138.619V139.228C173.328 139.747 173.417 140.187 173.596 140.548C173.778 140.906 174.031 141.18 174.353 141.368C174.675 141.553 175.05 141.645 175.477 141.645C175.754 141.645 176.005 141.606 176.229 141.529C176.456 141.448 176.651 141.329 176.815 141.171C176.979 141.009 177.106 140.809 177.196 140.571L178.216 140.857C178.109 141.203 177.928 141.508 177.675 141.77C177.421 142.03 177.108 142.233 176.735 142.379C176.361 142.523 175.942 142.594 175.477 142.594ZM186.467 135.575V136.47H182.903V135.575H186.467ZM183.942 133.927H184.999V140.481C184.999 140.78 185.042 141.003 185.128 141.153C185.218 141.299 185.331 141.397 185.469 141.448C185.609 141.496 185.757 141.52 185.912 141.52C186.028 141.52 186.124 141.514 186.198 141.502C186.273 141.487 186.333 141.475 186.377 141.466L186.592 142.415C186.521 142.442 186.421 142.469 186.292 142.496C186.164 142.526 186.001 142.54 185.804 142.54C185.506 142.54 185.213 142.476 184.927 142.348C184.643 142.22 184.408 142.024 184.22 141.762C184.035 141.499 183.942 141.168 183.942 140.768V133.927ZM190.776 142.594C190.155 142.594 189.61 142.446 189.142 142.151C188.676 141.856 188.312 141.442 188.049 140.911C187.79 140.38 187.66 139.759 187.66 139.049C187.66 138.332 187.79 137.707 188.049 137.173C188.312 136.639 188.676 136.224 189.142 135.928C189.61 135.633 190.155 135.485 190.776 135.485C191.397 135.485 191.94 135.633 192.405 135.928C192.874 136.224 193.238 136.639 193.498 137.173C193.76 137.707 193.892 138.332 193.892 139.049C193.892 139.759 193.76 140.38 193.498 140.911C193.238 141.442 192.874 141.856 192.405 142.151C191.94 142.446 191.397 142.594 190.776 142.594ZM190.776 141.645C191.247 141.645 191.635 141.524 191.94 141.283C192.244 141.041 192.469 140.723 192.616 140.329C192.762 139.935 192.835 139.508 192.835 139.049C192.835 138.589 192.762 138.161 192.616 137.764C192.469 137.367 192.244 137.046 191.94 136.801C191.635 136.557 191.247 136.434 190.776 136.434C190.304 136.434 189.916 136.557 189.612 136.801C189.307 137.046 189.082 137.367 188.936 137.764C188.79 138.161 188.716 138.589 188.716 139.049C188.716 139.508 188.79 139.935 188.936 140.329C189.082 140.723 189.307 141.041 189.612 141.283C189.916 141.524 190.304 141.645 190.776 141.645ZM201.843 142.594C201.199 142.594 200.644 142.442 200.178 142.138C199.712 141.833 199.354 141.414 199.104 140.88C198.853 140.345 198.727 139.735 198.727 139.049C198.727 138.35 198.856 137.734 199.112 137.2C199.372 136.663 199.733 136.243 200.196 135.942C200.661 135.637 201.205 135.485 201.825 135.485C202.309 135.485 202.745 135.575 203.133 135.754C203.521 135.933 203.838 136.184 204.086 136.506C204.334 136.828 204.487 137.204 204.547 137.634H203.491C203.41 137.321 203.231 137.043 202.953 136.801C202.679 136.557 202.309 136.434 201.843 136.434C201.431 136.434 201.07 136.542 200.76 136.757C200.452 136.968 200.212 137.268 200.039 137.656C199.869 138.041 199.784 138.494 199.784 139.013C199.784 139.544 199.868 140.007 200.035 140.401C200.205 140.795 200.444 141.1 200.751 141.318C201.061 141.536 201.425 141.645 201.843 141.645C202.118 141.645 202.367 141.597 202.591 141.502C202.815 141.406 203.004 141.269 203.159 141.09C203.315 140.911 203.425 140.696 203.491 140.445H204.547C204.487 140.851 204.34 141.217 204.104 141.542C203.871 141.864 203.562 142.121 203.177 142.312C202.795 142.5 202.351 142.594 201.843 142.594ZM208.885 142.594C208.264 142.594 207.72 142.446 207.251 142.151C206.786 141.856 206.421 141.442 206.159 140.911C205.899 140.38 205.769 139.759 205.769 139.049C205.769 138.332 205.899 137.707 206.159 137.173C206.421 136.639 206.786 136.224 207.251 135.928C207.72 135.633 208.264 135.485 208.885 135.485C209.506 135.485 210.049 135.633 210.515 135.928C210.983 136.224 211.347 136.639 211.607 137.173C211.87 137.707 212.001 138.332 212.001 139.049C212.001 139.759 211.87 140.38 211.607 140.911C211.347 141.442 210.983 141.856 210.515 142.151C210.049 142.446 209.506 142.594 208.885 142.594ZM208.885 141.645C209.357 141.645 209.745 141.524 210.049 141.283C210.353 141.041 210.579 140.723 210.725 140.329C210.871 139.935 210.944 139.508 210.944 139.049C210.944 138.589 210.871 138.161 210.725 137.764C210.579 137.367 210.353 137.046 210.049 136.801C209.745 136.557 209.357 136.434 208.885 136.434C208.414 136.434 208.026 136.557 207.721 136.801C207.417 137.046 207.191 137.367 207.045 137.764C206.899 138.161 206.826 138.589 206.826 139.049C206.826 139.508 206.899 139.935 207.045 140.329C207.191 140.723 207.417 141.041 207.721 141.283C208.026 141.524 208.414 141.645 208.885 141.645ZM213.614 142.451V135.575H214.634V136.649H214.724C214.867 136.282 215.098 135.997 215.418 135.794C215.737 135.588 216.121 135.485 216.568 135.485C217.022 135.485 217.399 135.588 217.701 135.794C218.005 135.997 218.243 136.282 218.413 136.649H218.484C218.66 136.294 218.924 136.012 219.277 135.803C219.629 135.591 220.051 135.485 220.544 135.485C221.158 135.485 221.661 135.678 222.052 136.063C222.443 136.445 222.639 137.04 222.639 137.849V142.451H221.582V137.849C221.582 137.342 221.443 136.979 221.166 136.761C220.888 136.543 220.561 136.434 220.185 136.434C219.702 136.434 219.327 136.58 219.062 136.873C218.796 137.162 218.663 137.53 218.663 137.974V142.451H217.589V137.741C217.589 137.35 217.462 137.036 217.208 136.797C216.955 136.555 216.628 136.434 216.228 136.434C215.953 136.434 215.697 136.507 215.458 136.654C215.222 136.8 215.031 137.003 214.885 137.262C214.742 137.519 214.67 137.816 214.67 138.153V142.451H213.614ZM227.453 142.594C226.791 142.594 226.219 142.448 225.739 142.155C225.261 141.86 224.893 141.448 224.633 140.92C224.376 140.389 224.248 139.771 224.248 139.067C224.248 138.362 224.376 137.741 224.633 137.204C224.893 136.664 225.254 136.243 225.716 135.942C226.182 135.637 226.725 135.485 227.346 135.485C227.704 135.485 228.058 135.545 228.407 135.664C228.756 135.784 229.074 135.978 229.36 136.246C229.647 136.512 229.875 136.864 230.045 137.303C230.215 137.741 230.301 138.282 230.301 138.923V139.371H225V138.458H229.226C229.226 138.07 229.149 137.724 228.993 137.419C228.841 137.115 228.623 136.874 228.34 136.698C228.059 136.522 227.728 136.434 227.346 136.434C226.925 136.434 226.561 136.539 226.254 136.748C225.949 136.954 225.715 137.222 225.551 137.553C225.387 137.885 225.305 138.24 225.305 138.619V139.228C225.305 139.747 225.394 140.187 225.573 140.548C225.755 140.906 226.007 141.18 226.33 141.368C226.652 141.553 227.027 141.645 227.453 141.645C227.731 141.645 227.982 141.606 228.205 141.529C228.432 141.448 228.628 141.329 228.792 141.171C228.956 141.009 229.083 140.809 229.172 140.571L230.193 140.857C230.086 141.203 229.905 141.508 229.651 141.77C229.398 142.03 229.084 142.233 228.711 142.379C228.338 142.523 227.919 142.594 227.453 142.594ZM232.678 142.523C232.457 142.523 232.267 142.443 232.109 142.285C231.951 142.127 231.872 141.938 231.872 141.717C231.872 141.496 231.951 141.306 232.109 141.148C232.267 140.99 232.457 140.911 232.678 140.911C232.899 140.911 233.088 140.99 233.246 141.148C233.404 141.306 233.483 141.496 233.483 141.717C233.483 141.863 233.446 141.997 233.372 142.12C233.3 142.242 233.203 142.341 233.081 142.415C232.961 142.487 232.827 142.523 232.678 142.523ZM236.149 142.523C235.928 142.523 235.739 142.443 235.581 142.285C235.423 142.127 235.344 141.938 235.344 141.717C235.344 141.496 235.423 141.306 235.581 141.148C235.739 140.99 235.928 140.911 236.149 140.911C236.37 140.911 236.56 140.99 236.718 141.148C236.876 141.306 236.955 141.496 236.955 141.717C236.955 141.863 236.918 141.997 236.843 142.12C236.772 142.242 236.675 142.341 236.552 142.415C236.433 142.487 236.299 142.523 236.149 142.523ZM239.621 142.523C239.4 142.523 239.211 142.443 239.052 142.285C238.894 142.127 238.815 141.938 238.815 141.717C238.815 141.496 238.894 141.306 239.052 141.148C239.211 140.99 239.4 140.911 239.621 140.911C239.842 140.911 240.031 140.99 240.19 141.148C240.348 141.306 240.427 141.496 240.427 141.717C240.427 141.863 240.39 141.997 240.315 142.12C240.243 142.242 240.146 142.341 240.024 142.415C239.905 142.487 239.77 142.523 239.621 142.523Z" fill="#535E65"/>
<rect x="75.8935" y="75.6874" width="289.947" height="87.235" rx="2.86509" stroke="#CDD3D5" stroke-width="1.14604"/>
</g>
</g>
<defs>
<filter id="filter0_dddddd_3_1073" x="-19.2375" y="0.622055" width="480.209" height="543.008" filterUnits="userSpaceOnUse" color-interpolation-filters="sRGB">
<feFlood flood-opacity="0" result="BackgroundImageFix"/>
<feColorMatrix in="SourceAlpha" type="matrix" values="0 0 0 0 0 0 0 0 0 0 0 0 0 0 0 0 0 0 127 0" result="hardAlpha"/>
<feOffset dy="2.21834"/>
<feGaussianBlur stdDeviation="0.943622"/>
<feColorMatrix type="matrix" values="0 0 0 0 0.101961 0 0 0 0 0.121569 0 0 0 0 0.207843 0 0 0 0.0477948 0"/>
<feBlend mode="normal" in2="BackgroundImageFix" result="effect1_dropShadow_3_1073"/>
<feColorMatrix in="SourceAlpha" type="matrix" values="0 0 0 0 0 0 0 0 0 0 0 0 0 0 0 0 0 0 127 0" result="hardAlpha"/>
<feOffset dy="5.33098"/>
<feGaussianBlur stdDeviation="2.26765"/>
<feColorMatrix type="matrix" values="0 0 0 0 0.101961 0 0 0 0 0.121569 0 0 0 0 0.207843 0 0 0 0.0686618 0"/>
<feBlend mode="normal" in2="effect1_dropShadow_3_1073" result="effect2_dropShadow_3_1073"/>
<feColorMatrix in="SourceAlpha" type="matrix" values="0 0 0 0 0 0 0 0 0 0 0 0 0 0 0 0 0 0 127 0" result="hardAlpha"/>
<feOffset dy="10.0378"/>
<feGaussianBlur stdDeviation="4.26979"/>
<feColorMatrix type="matrix" values="0 0 0 0 0.101961 0 0 0 0 0.121569 0 0 0 0 0.207843 0 0 0 0.085 0"/>
<feBlend mode="normal" in2="effect2_dropShadow_3_1073" result="effect3_dropShadow_3_1073"/>
<feColorMatrix in="SourceAlpha" type="matrix" values="0 0 0 0 0 0 0 0 0 0 0 0 0 0 0 0 0 0 127 0" result="hardAlpha"/>
<feOffset dy="17.9056"/>
<feGaussianBlur stdDeviation="7.61658"/>
<feColorMatrix type="matrix" values="0 0 0 0 0.101961 0 0 0 0 0.121569 0 0 0 0 0.207843 0 0 0 0.101338 0"/>
<feBlend mode="normal" in2="effect3_dropShadow_3_1073" result="effect4_dropShadow_3_1073"/>
<feColorMatrix in="SourceAlpha" type="matrix" values="0 0 0 0 0 0 0 0 0 0 0 0 0 0 0 0 0 0 127 0" result="hardAlpha"/>
<feOffset dy="33.4905"/>
<feGaussianBlur stdDeviation="14.246"/>
<feColorMatrix type="matrix" values="0 0 0 0 0.101961 0 0 0 0 0.121569 0 0 0 0 0.207843 0 0 0 0.122205 0"/>
<feBlend mode="normal" in2="effect4_dropShadow_3_1073" result="effect5_dropShadow_3_1073"/>
<feColorMatrix in="SourceAlpha" type="matrix" values="0 0 0 0 0 0 0 0 0 0 0 0 0 0 0 0 0 0 127 0" result="hardAlpha"/>
<feOffset dy="80.1639"/>
<feGaussianBlur stdDeviation="34.0995"/>
<feColorMatrix type="matrix" values="0 0 0 0 0.101961 0 0 0 0 0.121569 0 0 0 0 0.207843 0 0 0 0.17 0"/>
<feBlend mode="normal" in2="effect5_dropShadow_3_1073" result="effect6_dropShadow_3_1073"/>
<feBlend mode="normal" in="SourceGraphic" in2="effect6_dropShadow_3_1073" result="shape"/>
</filter>
<clipPath id="clip0_3_1073">
<rect x="48.9616" y="0.622055" width="343.811" height="394.645" rx="3.43811" fill="white"/>
</clipPath>
</defs>
</svg>
